<svg xmlns="http://www.w3.org/2000/svg" xmlns:xlink="http://www.w3.org/1999/xlink" width="500" zoomAndPan="magnify" viewBox="0 0 375 374.999991" height="500" preserveAspectRatio="xMidYMid meet" version="1.0"><defs><g/><clipPath id="92a7d36367"><path d="M 116 119 L 255 119 L 255 257.726562 L 116 257.726562 Z M 116 119 " clip-rule="nonzero"/></clipPath><clipPath id="612623974e"><path d="M 91.699219 155 L 282.949219 155 L 282.949219 205 L 91.699219 205 Z M 91.699219 155 " clip-rule="nonzero"/></clipPath><clipPath id="dff69ead7b"><path d="M 240 117.476562 L 274 117.476562 L 274 151 L 240 151 Z M 240 117.476562 " clip-rule="nonzero"/></clipPath></defs><g clip-path="url(#92a7d36367)"><path fill="#000000" d="M 119.125 175.089844 C 119.066406 176.425781 119.027344 177.769531 119.046875 179.117188 C 118.761719 179.664062 118.492188 180.21875 118.25 180.777344 C 118.460938 178.855469 118.761719 176.953125 119.125 175.089844 Z M 146.574219 132.96875 C 145.355469 134.332031 144.25 135.851562 143.242188 137.503906 C 140.945312 138.65625 138.832031 139.90625 136.910156 141.25 C 139.859375 138.207031 143.097656 135.417969 146.574219 132.96875 Z M 234.417969 141.242188 C 232.496094 139.898438 230.371094 138.636719 228.078125 137.496094 C 227.066406 135.824219 225.945312 134.296875 224.714844 132.921875 C 227.867188 135.140625 230.851562 137.640625 233.628906 140.414062 C 233.898438 140.675781 234.160156 140.964844 234.417969 141.242188 Z M 252.277344 179.105469 C 252.308594 177.742188 252.269531 176.398438 252.203125 175.050781 C 252.566406 176.914062 252.84375 178.789062 253.058594 180.691406 C 252.828125 180.164062 252.566406 179.625 252.277344 179.105469 Z M 252.007812 202.566406 C 251.867188 200.003906 251.144531 197.503906 249.875 195.074219 C 251.144531 190.605469 251.921875 186.0625 252.183594 181.515625 C 252.863281 183.152344 253.277344 184.8125 253.460938 186.496094 C 253.46875 187.117188 253.5 187.753906 253.5 188.386719 C 253.5 193.210938 252.988281 197.957031 252.007812 202.566406 Z M 232.101562 237.808594 C 232.265625 237.570312 232.410156 237.320312 232.554688 237.070312 C 233.09375 236.664062 233.609375 236.242188 234.140625 235.820312 C 233.964844 235.992188 233.804688 236.1875 233.628906 236.359375 C 233.128906 236.859375 232.613281 237.328125 232.101562 237.808594 Z M 137.148438 235.78125 C 137.675781 236.214844 138.207031 236.648438 138.742188 237.050781 C 138.886719 237.300781 139.042969 237.550781 139.203125 237.800781 C 138.695312 237.320312 138.1875 236.847656 137.6875 236.359375 C 137.503906 236.167969 137.332031 235.972656 137.148438 235.78125 Z M 125.859375 172.398438 C 125.917969 176.820312 126.476562 181.355469 127.570312 185.984375 C 127.65625 186.332031 127.742188 186.675781 127.828125 187.023438 C 127.214844 187.5625 126.628906 188.109375 126.070312 188.664062 C 124.378906 190.355469 122.988281 192.105469 121.910156 193.882812 C 120.691406 189.320312 120 184.6875 119.84375 180.046875 C 121.21875 177.355469 123.246094 174.792969 125.859375 172.398438 Z M 122.113281 164.636719 C 123.429688 162.101562 125.339844 159.699219 127.773438 157.46875 C 126.550781 161.773438 125.90625 166.28125 125.851562 170.921875 C 125.1875 171.496094 124.554688 172.082031 123.957031 172.667969 C 122.285156 174.351562 120.910156 176.058594 119.808594 177.820312 C 119.816406 175.167969 120.007812 172.523438 120.375 169.902344 C 120.882812 168.113281 121.46875 166.355469 122.113281 164.636719 Z M 132.460938 146.34375 C 132 147.140625 131.558594 147.957031 131.144531 148.785156 C 130.625 149.234375 130.125 149.675781 129.65625 150.148438 C 130.546875 148.839844 131.480469 147.5625 132.460938 146.34375 Z M 140.703125 142.527344 C 137.660156 144.074219 134.949219 145.765625 132.613281 147.582031 C 133.355469 146.226562 134.171875 144.902344 135.042969 143.605469 C 137.214844 141.828125 139.734375 140.183594 142.53125 138.714844 C 141.867188 139.925781 141.25 141.195312 140.703125 142.527344 Z M 155.242188 133.640625 C 154.664062 134.84375 154.144531 136.128906 153.683594 137.484375 C 151.742188 138.050781 149.859375 138.675781 148.035156 139.347656 C 145.804688 140.183594 143.722656 141.070312 141.761719 142.019531 C 142.367188 140.628906 143.039062 139.3125 143.777344 138.070312 C 147.226562 136.359375 151.082031 134.871094 155.242188 133.640625 Z M 149.964844 130.710938 C 150.957031 130.097656 151.953125 129.511719 152.972656 128.953125 C 155.25 127.90625 157.71875 126.972656 160.332031 126.175781 C 158.527344 128.023438 156.980469 130.203125 155.683594 132.730469 C 151.667969 133.890625 147.910156 135.285156 144.519531 136.878906 C 146.085938 134.496094 147.910156 132.429688 149.964844 130.710938 Z M 161.515625 125.042969 C 161.339844 125.082031 161.167969 125.128906 160.996094 125.1875 C 161.207031 125.101562 161.417969 125.023438 161.628906 124.945312 C 161.589844 124.976562 161.550781 125.003906 161.515625 125.042969 Z M 173.128906 122.660156 C 169.652344 123.113281 166.300781 123.765625 163.117188 124.601562 C 163.136719 124.535156 163.148438 124.457031 163.136719 124.390625 C 166.65625 123.152344 170.296875 122.191406 174.050781 121.546875 C 173.726562 121.882812 173.417969 122.257812 173.128906 122.660156 Z M 208.207031 124.582031 C 205.027344 123.746094 201.675781 123.09375 198.1875 122.640625 C 197.910156 122.246094 197.609375 121.882812 197.292969 121.546875 C 201.011719 122.191406 204.664062 123.121094 208.199219 124.359375 C 208.179688 124.4375 208.179688 124.503906 208.207031 124.582031 Z M 209.773438 125.003906 C 209.746094 124.976562 209.707031 124.945312 209.667969 124.910156 C 209.878906 124.996094 210.101562 125.070312 210.3125 125.160156 C 210.140625 125.109375 209.957031 125.054688 209.773438 125.003906 Z M 229.566406 142 C 227.605469 141.058594 225.519531 140.164062 223.300781 139.339844 C 221.464844 138.667969 219.582031 138.042969 217.652344 137.476562 C 217.191406 136.121094 216.664062 134.84375 216.085938 133.621094 C 220.246094 134.863281 224.097656 136.34375 227.539062 138.0625 C 228.289062 139.300781 228.960938 140.617188 229.566406 142 Z M 236.261719 143.578125 C 237.144531 144.875 237.964844 146.199219 238.703125 147.554688 C 236.367188 145.746094 233.667969 144.058594 230.621094 142.519531 C 230.074219 141.183594 229.460938 139.90625 228.789062 138.695312 C 231.582031 140.175781 234.089844 141.800781 236.261719 143.578125 Z M 240.164062 148.753906 C 239.75 147.910156 239.296875 147.082031 238.828125 146.257812 C 239.835938 147.535156 240.808594 148.832031 241.71875 150.15625 C 241.21875 149.6875 240.703125 149.207031 240.164062 148.753906 Z M 247.386719 172.667969 C 246.78125 172.074219 246.148438 171.496094 245.484375 170.910156 C 245.417969 166.222656 244.765625 161.675781 243.527344 157.335938 C 245.957031 159.582031 247.867188 162.003906 249.203125 164.570312 C 249.867188 166.335938 250.453125 168.132812 250.960938 169.960938 C 251.328125 172.5625 251.511719 175.175781 251.519531 177.808594 C 250.425781 176.050781 249.050781 174.339844 247.386719 172.667969 Z M 245.042969 188.664062 C 244.542969 188.15625 244.007812 187.667969 243.457031 187.1875 C 243.5625 186.78125 243.671875 186.378906 243.757812 185.984375 C 244.863281 181.355469 245.417969 176.820312 245.464844 172.410156 C 245.851562 172.753906 246.226562 173.109375 246.582031 173.476562 C 248.703125 175.589844 250.335938 177.789062 251.492188 180.039062 C 251.335938 184.753906 250.617188 189.480469 249.347656 194.132812 C 248.253906 192.257812 246.8125 190.433594 245.042969 188.664062 Z M 246.550781 202.261719 C 245.515625 200.511719 244.160156 198.820312 242.515625 197.167969 C 241.960938 196.621094 241.382812 196.09375 240.777344 195.554688 C 241.738281 193.046875 242.574219 190.53125 243.257812 188.003906 C 243.679688 188.398438 244.101562 188.789062 244.515625 189.195312 C 246.445312 191.125 247.964844 193.125 249.070312 195.160156 C 248.378906 197.554688 247.53125 199.925781 246.550781 202.261719 Z M 251.230469 204.894531 C 250.585938 206.621094 249.886719 208.273438 249.128906 209.871094 C 248.90625 207.554688 248.203125 205.285156 247.011719 203.078125 C 248.003906 200.789062 248.859375 198.484375 249.570312 196.140625 C 250.710938 198.550781 251.289062 201.03125 251.289062 203.558594 C 251.289062 204 251.269531 204.453125 251.230469 204.894531 Z M 249.195312 211.4375 C 249.539062 210.761719 249.867188 210.070312 250.195312 209.371094 C 249.867188 210.359375 249.53125 211.332031 249.164062 212.308594 C 249.183594 212.011719 249.195312 211.734375 249.195312 211.4375 Z M 219.640625 243.296875 C 220.101562 242.199219 220.34375 241.085938 220.382812 239.933594 C 224.789062 237.636719 229.375 234.6875 233.726562 230.96875 C 233.601562 232.863281 233.003906 234.734375 231.988281 236.550781 C 228.164062 239.367188 223.9375 241.59375 219.640625 243.296875 Z M 213.058594 250.460938 C 213.003906 250.480469 212.945312 250.511719 212.886719 250.519531 C 213.875 249.886719 214.789062 249.234375 215.605469 248.53125 C 217 248.117188 218.382812 247.617188 219.726562 247.070312 C 217.566406 248.320312 215.347656 249.453125 213.058594 250.460938 Z M 155.644531 248.503906 C 156.433594 249.195312 157.316406 249.847656 158.277344 250.460938 C 158.257812 250.460938 158.238281 250.453125 158.21875 250.445312 C 155.953125 249.445312 153.722656 248.3125 151.570312 247.050781 C 152.894531 247.601562 154.261719 248.089844 155.644531 248.503906 Z M 137.601562 230.96875 C 141.953125 234.675781 146.535156 237.625 150.945312 239.921875 C 150.972656 241.066406 151.214844 242.191406 151.667969 243.285156 C 147.382812 241.574219 143.152344 239.355469 139.328125 236.542969 C 138.3125 234.726562 137.714844 232.851562 137.601562 230.96875 Z M 122.121094 211.40625 C 122.121094 211.703125 122.140625 211.992188 122.152344 212.300781 C 121.777344 211.300781 121.429688 210.300781 121.105469 209.292969 C 121.429688 210.015625 121.765625 210.726562 122.121094 211.40625 Z M 130.546875 195.542969 C 129.941406 196.082031 129.355469 196.609375 128.808594 197.167969 C 127.15625 198.8125 125.820312 200.511719 124.785156 202.242188 C 123.765625 199.828125 122.902344 197.378906 122.191406 194.902344 C 123.582031 192.414062 125.5625 190.050781 128.039062 187.839844 C 128.722656 190.414062 129.570312 192.988281 130.546875 195.542969 Z M 138.734375 180.769531 C 139.273438 183.46875 139.925781 186.1875 140.695312 188.894531 C 137.070312 190.710938 133.863281 192.769531 131.164062 195.027344 C 130.183594 192.449219 129.347656 189.867188 128.675781 187.292969 C 131.472656 184.898438 134.851562 182.71875 138.734375 180.769531 Z M 138.332031 150.300781 C 137.542969 153.933594 137.070312 157.855469 136.984375 162.050781 C 136.964844 162.582031 136.976562 163.109375 136.976562 163.636719 C 133.046875 165.597656 129.558594 167.816406 126.628906 170.257812 C 126.753906 165.492188 127.492188 160.890625 128.859375 156.5 C 131.519531 154.242188 134.707031 152.164062 138.332031 150.300781 Z M 138.550781 149.285156 C 135.027344 151.070312 131.914062 153.039062 129.28125 155.152344 C 129.980469 153.125 130.808594 151.148438 131.769531 149.214844 C 134.191406 147.140625 137.070312 145.238281 140.328125 143.527344 C 139.636719 145.34375 139.03125 147.265625 138.550781 149.285156 Z M 151.964844 144.074219 C 149.207031 144.882812 146.554688 145.796875 144.058594 146.796875 C 142.453125 147.449219 140.914062 148.128906 139.445312 148.839844 C 139.964844 146.796875 140.589844 144.835938 141.328125 143.007812 C 144.941406 141.195312 149.003906 139.617188 153.394531 138.3125 C 152.828125 140.109375 152.339844 142.03125 151.964844 144.074219 Z M 168.824219 135.015625 C 168.527344 136.824219 168.277344 138.714844 168.09375 140.664062 C 162.742188 141.40625 157.59375 142.460938 152.769531 143.835938 C 153.175781 141.769531 153.675781 139.847656 154.28125 138.050781 C 158.816406 136.746094 163.695312 135.726562 168.824219 135.015625 Z M 169.75 130.558594 C 169.449219 131.730469 169.191406 132.960938 168.949219 134.257812 C 163.945312 134.9375 159.113281 135.929688 154.566406 137.214844 C 155.058594 135.851562 155.597656 134.566406 156.203125 133.355469 C 160.4375 132.152344 164.992188 131.210938 169.75 130.558594 Z M 185.285156 128.742188 C 180.296875 128.75 175.40625 129.070312 170.726562 129.664062 C 171.46875 127.117188 172.398438 124.976562 173.515625 123.371094 C 177.328125 122.871094 181.269531 122.613281 185.285156 122.59375 Z M 200.609375 129.664062 C 195.917969 129.070312 191.027344 128.75 186.035156 128.742188 L 186.035156 122.59375 C 190.070312 122.601562 194.007812 122.863281 197.792969 123.34375 C 198.925781 124.957031 199.847656 127.097656 200.609375 129.664062 Z M 202.375 134.246094 C 202.144531 132.960938 201.886719 131.71875 201.578125 130.546875 C 206.34375 131.203125 210.886719 132.144531 215.125 133.34375 C 215.730469 134.554688 216.277344 135.851562 216.769531 137.214844 C 212.214844 135.917969 207.390625 134.929688 202.375 134.246094 Z M 218.554688 143.808594 C 213.769531 142.453125 208.628906 141.386719 203.242188 140.644531 C 203.046875 138.695312 202.808594 136.8125 202.5 135.015625 C 207.640625 135.71875 212.523438 136.746094 217.058594 138.042969 C 217.652344 139.839844 218.152344 141.75 218.554688 143.808594 Z M 231.882812 148.792969 C 228.105469 146.96875 223.90625 145.375 219.363281 144.046875 C 218.976562 142 218.507812 140.097656 217.929688 138.300781 C 222.332031 139.617188 226.386719 141.183594 230 142.992188 C 230.738281 144.816406 231.363281 146.757812 231.882812 148.792969 Z M 232.773438 149.226562 C 232.285156 147.21875 231.6875 145.316406 230.996094 143.519531 C 234.253906 145.21875 237.128906 147.121094 239.546875 149.195312 C 240.5 151.097656 241.335938 153.070312 242.027344 155.078125 C 239.375 152.953125 236.261719 150.984375 232.773438 149.226562 Z M 234.359375 163.628906 C 234.359375 163.109375 234.359375 162.582031 234.351562 162.050781 C 234.253906 157.804688 233.785156 153.828125 232.976562 150.15625 C 236.589844 152.011719 239.777344 154.097656 242.429688 156.363281 C 243.8125 160.804688 244.582031 165.445312 244.707031 170.246094 C 241.769531 167.816406 238.289062 165.597656 234.359375 163.628906 Z M 230.632812 188.894531 C 231.402344 186.214844 232.042969 183.535156 232.574219 180.875 C 236.464844 182.84375 239.835938 185.042969 242.613281 187.445312 C 241.949219 189.972656 241.132812 192.519531 240.171875 195.035156 C 237.464844 192.769531 234.253906 190.722656 230.632812 188.894531 Z M 236.90625 202.492188 C 234.390625 200.386719 231.410156 198.476562 228.046875 196.785156 C 228.933594 194.410156 229.71875 192.027344 230.421875 189.625 C 234.035156 191.453125 237.214844 193.507812 239.882812 195.777344 C 239 198.035156 238.011719 200.273438 236.90625 202.492188 Z M 243.007812 209.457031 C 242.015625 207.765625 240.71875 206.113281 239.117188 204.5 C 238.605469 203.988281 238.050781 203.492188 237.492188 203 C 238.605469 200.789062 239.597656 198.550781 240.488281 196.304688 C 241 196.765625 241.507812 197.226562 241.980469 197.695312 C 243.738281 199.464844 245.128906 201.269531 246.175781 203.136719 C 245.234375 205.269531 244.1875 207.382812 243.007812 209.457031 Z M 203.894531 245.160156 C 203.835938 244.59375 203.683594 244.027344 203.433594 243.46875 C 208.890625 241.363281 213.992188 238.800781 218.691406 235.800781 C 219.285156 236.992188 219.59375 238.222656 219.621094 239.480469 C 213.722656 242.507812 208.148438 244.332031 203.894531 245.160156 Z M 203.617188 247.398438 C 203.789062 246.925781 203.882812 246.425781 203.914062 245.929688 C 208.148438 245.101562 213.695312 243.316406 219.601562 240.328125 C 219.515625 241.460938 219.199219 242.585938 218.660156 243.671875 C 213.484375 245.621094 208.273438 246.839844 203.617188 247.398438 Z M 199.792969 251.664062 C 200.453125 251.25 201.050781 250.800781 201.570312 250.328125 C 205.449219 250.585938 209.660156 250.117188 213.808594 249.039062 C 212.675781 249.867188 211.386719 250.644531 209.996094 251.347656 C 206.785156 252.125 204.203125 252.144531 199.792969 251.664062 Z M 176.53125 253.804688 C 179.25 254.59375 182.382812 255.046875 185.660156 255.046875 C 187.28125 255.046875 188.847656 254.941406 190.335938 254.746094 C 190.835938 255.238281 191.355469 255.640625 191.882812 255.9375 C 189.828125 256.121094 187.753906 256.226562 185.660156 256.226562 C 181.066406 256.226562 176.539062 255.765625 172.128906 254.882812 C 173.667969 254.746094 175.089844 254.390625 176.53125 253.804688 Z M 169.785156 250.328125 C 170.304688 250.800781 170.902344 251.25 171.5625 251.664062 C 167.125 252.144531 164.539062 252.125 161.3125 251.335938 C 159.917969 250.636719 158.640625 249.867188 157.507812 249.03125 C 161.667969 250.117188 165.894531 250.585938 169.785156 250.328125 Z M 167.414062 245.929688 C 167.441406 246.417969 167.539062 246.917969 167.710938 247.398438 C 163.050781 246.832031 157.835938 245.621094 152.65625 243.660156 C 152.117188 242.574219 151.800781 241.460938 151.722656 240.328125 C 157.625 243.304688 163.167969 245.101562 167.414062 245.929688 Z M 152.628906 235.78125 C 157.335938 238.800781 162.4375 241.363281 167.894531 243.457031 C 167.632812 244.015625 167.480469 244.582031 167.421875 245.160156 C 163.167969 244.324219 157.605469 242.496094 151.695312 239.472656 C 151.722656 238.203125 152.050781 236.972656 152.628906 235.78125 Z M 127.898438 210.207031 C 126.792969 212.28125 126.148438 214.414062 125.976562 216.605469 C 124.871094 214.894531 123.832031 213.128906 122.882812 211.242188 C 122.910156 208.746094 123.535156 206.316406 124.699219 203.980469 C 125.648438 206.09375 126.714844 208.167969 127.898438 210.207031 Z M 133.84375 202.992188 C 133.265625 203.492188 132.71875 203.988281 132.199219 204.5 C 130.605469 206.105469 129.308594 207.757812 128.320312 209.445312 C 127.148438 207.371094 126.089844 205.269531 125.160156 203.136719 C 126.503906 200.722656 128.425781 198.4375 130.835938 196.304688 C 131.730469 198.542969 132.730469 200.78125 133.84375 202.992188 Z M 143.289062 196.773438 C 139.917969 198.464844 136.9375 200.378906 134.421875 202.480469 C 133.316406 200.273438 132.324219 198.023438 131.441406 195.777344 C 134.085938 193.546875 137.273438 191.492188 140.914062 189.65625 C 141.617188 192.039062 142.40625 194.421875 143.289062 196.773438 Z M 153.992188 184.609375 C 154.511719 187.042969 155.097656 189.5 155.75 191.972656 C 151.464844 193.210938 147.515625 194.707031 143.960938 196.4375 C 143.085938 194.074219 142.296875 191.703125 141.597656 189.320312 C 145.304688 187.511719 149.476562 185.925781 153.992188 184.609375 Z M 152.300781 175.523438 C 152.722656 178.25 153.222656 181.027344 153.820312 183.84375 C 149.3125 185.148438 145.132812 186.726562 141.386719 188.558594 C 140.617188 185.839844 139.964844 183.121094 139.425781 180.421875 C 143.289062 178.539062 147.613281 176.886719 152.300781 175.523438 Z M 150.851562 159.488281 C 150.945312 164.289062 151.398438 169.410156 152.183594 174.742188 C 147.507812 176.097656 143.171875 177.730469 139.273438 179.632812 C 138.292969 174.484375 137.773438 169.410156 137.714844 164.539062 C 141.644531 162.601562 146.054688 160.910156 150.851562 159.488281 Z M 151.109375 150.40625 C 150.886719 152.914062 150.800781 155.558594 150.820312 158.296875 C 146.09375 159.679688 141.695312 161.351562 137.726562 163.261719 C 137.726562 162.867188 137.726562 162.464844 137.734375 162.070312 C 137.832031 157.699219 138.332031 153.605469 139.195312 149.859375 C 142.992188 147.988281 147.21875 146.332031 151.808594 144.949219 C 151.511719 146.6875 151.273438 148.496094 151.109375 150.40625 Z M 167.527344 154.796875 C 161.917969 155.558594 156.566406 156.664062 151.570312 158.074219 C 151.550781 155.472656 151.648438 152.925781 151.859375 150.464844 C 152.03125 148.457031 152.289062 146.535156 152.609375 144.730469 C 157.421875 143.316406 162.601562 142.210938 168.019531 141.453125 C 167.644531 145.757812 167.5 150.332031 167.527344 154.796875 Z M 185.285156 140.222656 L 185.285156 153.605469 C 179.402344 153.625 173.660156 154.011719 168.144531 154.722656 C 168.132812 149.957031 168.308594 145.449219 168.679688 141.355469 C 174.023438 140.644531 179.585938 140.253906 185.285156 140.222656 Z M 185.285156 133.890625 L 185.285156 139.472656 C 179.683594 139.492188 174.128906 139.867188 168.757812 140.570312 C 168.960938 138.589844 169.210938 136.6875 169.527344 134.929688 C 174.570312 134.265625 179.855469 133.910156 185.285156 133.890625 Z M 185.285156 133.132812 C 179.941406 133.152344 174.714844 133.496094 169.660156 134.152344 C 169.910156 132.855469 170.191406 131.613281 170.496094 130.460938 C 175.253906 129.835938 180.210938 129.511719 185.285156 129.492188 Z M 186.035156 133.132812 L 186.035156 129.492188 C 191.117188 129.511719 196.074219 129.835938 200.828125 130.453125 C 201.144531 131.605469 201.414062 132.84375 201.664062 134.152344 C 196.613281 133.496094 191.375 133.152344 186.035156 133.132812 Z M 186.035156 139.472656 L 186.035156 133.890625 C 191.472656 133.902344 196.753906 134.257812 201.808594 134.921875 C 202.117188 136.6875 202.367188 138.570312 202.566406 140.550781 C 197.273438 139.859375 191.722656 139.492188 186.035156 139.472656 Z M 203.183594 154.722656 C 197.679688 154 191.921875 153.617188 186.035156 153.605469 L 186.035156 140.222656 C 191.757812 140.242188 197.324219 140.628906 202.644531 141.320312 C 203.03125 145.421875 203.203125 149.945312 203.183594 154.722656 Z M 219.476562 150.464844 C 219.6875 152.925781 219.777344 155.472656 219.757812 158.074219 C 214.769531 156.664062 209.417969 155.558594 203.808594 154.796875 C 203.828125 150.3125 203.691406 145.730469 203.308594 141.40625 C 208.746094 142.15625 213.90625 143.242188 218.699219 144.613281 C 219.035156 146.46875 219.296875 148.417969 219.476562 150.464844 Z M 220.503906 158.296875 C 220.535156 155.558594 220.4375 152.914062 220.226562 150.40625 C 220.054688 148.46875 219.8125 146.621094 219.507812 144.84375 C 224.097656 146.210938 228.328125 147.84375 232.113281 149.714844 C 232.984375 153.511719 233.496094 157.640625 233.601562 162.070312 C 233.609375 162.464844 233.601562 162.867188 233.609375 163.261719 C 229.644531 161.339844 225.242188 159.679688 220.503906 158.296875 Z M 219.132812 174.8125 C 219.9375 169.441406 220.390625 164.289062 220.488281 159.449219 C 225.253906 160.859375 229.660156 162.5625 233.609375 164.519531 C 233.5625 169.421875 233.023438 174.542969 232.042969 179.730469 C 228.152344 177.820312 223.8125 176.175781 219.132812 174.8125 Z M 217.507812 183.851562 C 218.105469 181.054688 218.59375 178.308594 219.015625 175.609375 C 219.582031 175.773438 220.160156 175.925781 220.726562 176.097656 C 224.78125 177.375 228.507812 178.855469 231.882812 180.519531 C 231.351562 183.1875 230.710938 185.878906 229.949219 188.558594 C 226.195312 186.734375 222.023438 185.148438 217.507812 183.851562 Z M 215.585938 191.972656 C 216.238281 189.492188 216.824219 187.023438 217.34375 184.582031 C 221.851562 185.878906 226.011719 187.464844 229.738281 189.289062 C 229.039062 191.683594 228.25 194.074219 227.375 196.449219 C 223.820312 194.71875 219.863281 193.210938 215.585938 191.972656 Z M 224.820312 202.75 C 223.300781 206.171875 221.628906 209.476562 219.804688 212.65625 C 216.921875 211.242188 213.714844 210.023438 210.246094 209.015625 C 211.273438 206.238281 212.253906 203.375 213.164062 200.453125 C 213.972656 197.851562 214.722656 195.265625 215.402344 192.710938 C 219.652344 193.929688 223.582031 195.421875 227.117188 197.148438 C 226.394531 199.03125 225.644531 200.90625 224.820312 202.75 Z M 227.472656 217.519531 C 225.472656 215.855469 223.117188 214.335938 220.476562 212.992188 C 222.300781 209.804688 223.984375 206.488281 225.511719 203.058594 C 226.328125 201.214844 227.085938 199.359375 227.789062 197.484375 C 231.121094 199.175781 234.070312 201.078125 236.550781 203.171875 C 234.042969 208.101562 230.996094 212.914062 227.472656 217.519531 Z M 229.34375 219.21875 C 228.933594 218.804688 228.488281 218.402344 228.039062 218.007812 C 231.5625 213.414062 234.621094 208.613281 237.136719 203.683594 C 237.636719 204.132812 238.125 204.574219 238.578125 205.039062 C 240.257812 206.71875 241.585938 208.4375 242.566406 210.207031 C 242.304688 210.65625 242.046875 211.109375 241.777344 211.550781 C 239.136719 215.828125 236.0625 219.792969 232.613281 223.425781 C 231.785156 221.976562 230.699219 220.582031 229.34375 219.21875 Z M 216.699219 231.824219 C 216.441406 231.574219 216.164062 231.324219 215.882812 231.082031 C 220.007812 227.421875 223.90625 223.28125 227.433594 218.804688 C 227.480469 218.738281 227.527344 218.660156 227.578125 218.601562 C 228.007812 218.976562 228.421875 219.363281 228.808594 219.746094 C 230.179688 221.121094 231.257812 222.542969 232.0625 223.992188 C 228.171875 228 223.78125 231.582031 218.96875 234.714844 C 218.390625 233.726562 217.632812 232.765625 216.699219 231.824219 Z M 201.914062 241.324219 C 201.855469 241.269531 201.808594 241.230469 201.75 241.183594 C 206.371094 238.65625 210.957031 235.386719 215.316406 231.582031 C 215.617188 231.832031 215.902344 232.09375 216.171875 232.363281 C 217.066406 233.265625 217.785156 234.1875 218.34375 235.128906 C 213.636719 238.136719 208.535156 240.703125 203.078125 242.796875 C 202.769531 242.285156 202.386719 241.796875 201.914062 241.324219 Z M 155.988281 231.5625 C 160.359375 235.378906 164.953125 238.644531 169.574219 241.171875 C 169.515625 241.230469 169.460938 241.269531 169.410156 241.324219 C 168.941406 241.796875 168.558594 242.285156 168.238281 242.796875 C 162.78125 240.703125 157.691406 238.125 152.984375 235.128906 C 153.710938 233.871094 154.730469 232.679688 155.988281 231.5625 Z M 143.738281 218.59375 C 143.796875 218.660156 143.84375 218.738281 143.902344 218.804688 C 147.417969 223.28125 151.320312 227.421875 155.441406 231.074219 C 155.164062 231.324219 154.886719 231.574219 154.617188 231.824219 C 153.683594 232.753906 152.925781 233.726562 152.347656 234.714844 C 147.542969 231.582031 143.152344 227.988281 139.261719 223.992188 C 140.308594 222.089844 141.828125 220.273438 143.738281 218.59375 Z M 143.289062 218 C 142.835938 218.390625 142.394531 218.804688 141.980469 219.21875 C 140.617188 220.574219 139.542969 221.976562 138.714844 223.40625 C 135.257812 219.785156 132.191406 215.828125 129.558594 211.550781 C 129.28125 211.109375 129.03125 210.65625 128.761719 210.207031 C 130.039062 207.902344 131.875 205.71875 134.191406 203.683594 C 136.714844 208.601562 139.761719 213.40625 143.289062 218 Z M 145.824219 203.058594 C 147.34375 206.476562 149.023438 209.792969 150.851562 212.984375 C 148.207031 214.335938 145.855469 215.855469 143.863281 217.507812 C 140.339844 212.914062 137.285156 208.101562 134.777344 203.171875 C 137.234375 201.109375 140.183594 199.207031 143.546875 197.515625 C 144.257812 199.378906 145.019531 201.222656 145.824219 203.058594 Z M 158.171875 200.453125 C 159.082031 203.375 160.0625 206.238281 161.082031 209.015625 C 157.613281 210.015625 154.40625 211.242188 151.523438 212.65625 C 149.707031 209.476562 148.023438 206.171875 146.507812 202.75 C 145.691406 200.914062 144.941406 199.050781 144.230469 197.167969 C 147.738281 195.46875 151.667969 193.96875 155.941406 192.738281 C 156.625 195.285156 157.355469 197.871094 158.171875 200.453125 Z M 170.074219 189.789062 C 170.832031 195.601562 171.71875 201.269531 172.699219 206.585938 C 168.902344 207.101562 165.28125 207.84375 161.890625 208.785156 C 159.976562 203.632812 158.21875 198.148438 156.71875 192.519531 C 160.878906 191.347656 165.355469 190.433594 170.074219 189.789062 Z M 169.09375 181.46875 C 169.355469 183.996094 169.652344 186.53125 169.96875 189.03125 C 165.25 189.664062 160.734375 190.578125 156.519531 191.757812 C 155.875 189.328125 155.289062 186.867188 154.761719 184.398438 C 159.21875 183.152344 164.03125 182.152344 169.09375 181.46875 Z M 168.25 172.1875 C 168.382812 173.945312 168.519531 175.5625 168.652344 176.984375 C 168.757812 178.222656 168.882812 179.472656 169.019531 180.710938 C 163.945312 181.382812 159.101562 182.371094 154.585938 183.632812 C 154 180.855469 153.480469 178.078125 153.058594 175.300781 C 157.785156 173.964844 162.886719 172.917969 168.25 172.1875 Z M 168.203125 171.4375 C 162.839844 172.148438 157.71875 173.1875 152.945312 174.53125 C 152.15625 169.34375 151.675781 164.203125 151.589844 159.265625 C 156.539062 157.84375 161.890625 156.71875 167.539062 155.953125 C 167.585938 161.535156 167.875 166.933594 168.203125 171.4375 Z M 185.285156 170.296875 C 179.632812 170.304688 174.109375 170.671875 168.804688 171.351562 C 168.421875 166.039062 168.191406 160.824219 168.152344 155.863281 C 173.621094 155.132812 179.367188 154.761719 185.285156 154.742188 Z M 202.519531 171.382812 C 197.226562 170.691406 191.691406 170.316406 186.035156 170.296875 L 186.035156 154.742188 C 191.921875 154.75 197.679688 155.132812 203.183594 155.855469 C 203.144531 160.824219 202.914062 166.050781 202.519531 171.382812 Z M 203.136719 171.457031 C 203.460938 166.941406 203.742188 161.542969 203.796875 155.933594 C 209.410156 156.691406 214.761719 157.804688 219.746094 159.238281 C 219.652344 164.195312 219.171875 169.375 218.382812 174.589844 C 213.617188 173.234375 208.496094 172.179688 203.136719 171.457031 Z M 202.320312 180.710938 C 202.441406 179.472656 202.566406 178.222656 202.683594 176.984375 C 202.808594 175.570312 202.941406 173.976562 203.078125 172.226562 C 208.371094 172.949219 213.472656 174.015625 218.265625 175.386719 C 217.835938 178.136719 217.324219 180.882812 216.738281 183.632812 C 212.222656 182.371094 207.382812 181.382812 202.320312 180.710938 Z M 201.359375 189.03125 C 201.675781 186.523438 201.972656 183.996094 202.242188 181.449219 C 207.277344 182.132812 212.097656 183.101562 216.585938 184.363281 C 216.046875 186.851562 215.460938 189.320312 214.816406 191.757812 C 210.589844 190.578125 206.085938 189.664062 201.359375 189.03125 Z M 198.628906 206.585938 C 199.609375 201.261719 200.503906 195.59375 201.261719 189.78125 C 205.949219 190.414062 210.4375 191.316406 214.625 192.488281 C 213.117188 198.128906 211.351562 203.632812 209.449219 208.792969 C 206.054688 207.84375 202.425781 207.101562 198.628906 206.585938 Z M 202.683594 224.445312 C 200.292969 223.78125 197.734375 223.242188 195.066406 222.871094 C 196.273438 218.296875 197.4375 213.019531 198.503906 207.324219 C 202.25 207.832031 205.835938 208.5625 209.1875 209.496094 C 207.140625 214.972656 204.921875 220.035156 202.683594 224.445312 Z M 209.820312 227.125 C 207.890625 226.183594 205.765625 225.367188 203.472656 224.675781 C 205.738281 220.21875 207.949219 215.152344 209.984375 209.714844 C 213.414062 210.707031 216.59375 211.917969 219.4375 213.308594 C 216.578125 218.246094 213.347656 222.871094 209.820312 227.125 Z M 210.503906 227.472656 C 214.019531 223.214844 217.25 218.585938 220.113281 213.644531 C 222.726562 214.972656 225.039062 216.480469 227.011719 218.113281 C 226.953125 218.191406 226.894531 218.257812 226.835938 218.335938 C 223.320312 222.8125 219.421875 226.941406 215.316406 230.585938 C 213.933594 229.441406 212.320312 228.394531 210.503906 227.472656 Z M 203.125 225.359375 C 205.363281 226.019531 207.449219 226.800781 209.324219 227.703125 C 205.890625 231.777344 202.175781 235.503906 198.214844 238.800781 C 197.3125 238.367188 196.324219 237.972656 195.265625 237.644531 C 197.832031 234.628906 200.511719 230.402344 203.125 225.359375 Z M 194.871094 223.609375 C 197.484375 223.964844 199.992188 224.484375 202.335938 225.136719 C 199.675781 230.296875 196.984375 234.515625 194.476562 237.414062 C 193.164062 237.050781 191.757812 236.761719 190.300781 236.570312 C 191.808594 233.660156 193.363281 229.171875 194.871094 223.609375 Z M 186.035156 222.996094 C 188.828125 223.003906 191.558594 223.1875 194.179688 223.511719 C 192.652344 229.085938 191.058594 233.574219 189.492188 236.472656 C 188.378906 236.347656 187.214844 236.28125 186.035156 236.273438 Z M 181.835938 236.472656 C 180.269531 233.574219 178.671875 229.085938 177.15625 223.511719 C 179.75 223.175781 182.476562 223.003906 185.285156 222.984375 L 185.285156 236.273438 C 184.113281 236.28125 182.949219 236.347656 181.835938 236.472656 Z M 176.859375 237.414062 C 174.351562 234.515625 171.660156 230.296875 169 225.136719 C 171.332031 224.492188 173.832031 223.972656 176.464844 223.609375 C 177.960938 229.179688 179.519531 233.660156 181.039062 236.570312 C 179.566406 236.753906 178.164062 237.039062 176.859375 237.414062 Z M 173.121094 238.800781 C 169.160156 235.503906 165.445312 231.777344 162.003906 227.710938 C 163.886719 226.816406 165.960938 226.03125 168.210938 225.359375 C 170.824219 230.402344 173.503906 234.628906 176.058594 237.636719 C 175.003906 237.972656 174.015625 238.355469 173.121094 238.800781 Z M 160.824219 227.460938 C 159.015625 228.394531 157.390625 229.441406 156.007812 230.574219 C 151.90625 226.933594 148.003906 222.8125 144.5 218.335938 C 144.433594 218.257812 144.375 218.179688 144.316406 218.105469 C 146.265625 216.488281 148.59375 215 151.222656 213.664062 C 154.085938 218.59375 157.304688 223.214844 160.824219 227.460938 Z M 167.855469 224.675781 C 165.570312 225.359375 163.4375 226.175781 161.515625 227.117188 C 157.988281 222.871094 154.769531 218.257812 151.90625 213.328125 C 154.730469 211.945312 157.910156 210.746094 161.351562 209.746094 C 163.386719 215.164062 165.597656 220.226562 167.855469 224.675781 Z M 176.261719 222.871094 C 173.589844 223.242188 171.046875 223.78125 168.652344 224.445312 C 166.414062 220.035156 164.203125 214.972656 162.15625 209.503906 C 165.492188 208.582031 169.066406 207.851562 172.832031 207.332031 C 173.898438 213.019531 175.0625 218.296875 176.261719 222.871094 Z M 185.285156 206.476562 L 185.285156 222.234375 C 182.421875 222.253906 179.632812 222.445312 176.953125 222.78125 C 175.734375 218.210938 174.550781 212.933594 173.476562 207.246094 C 177.25 206.757812 181.210938 206.496094 185.285156 206.476562 Z M 185.285156 188.753906 L 185.285156 205.730469 C 181.179688 205.738281 177.175781 206.007812 173.339844 206.496094 C 172.34375 201.175781 171.449219 195.496094 170.691406 189.703125 C 175.359375 189.097656 180.25 188.769531 185.285156 188.753906 Z M 185.285156 180.363281 L 185.285156 188.003906 C 180.238281 188.011719 175.320312 188.339844 170.59375 188.945312 C 170.265625 186.445312 169.96875 183.917969 169.699219 181.375 C 174.6875 180.738281 179.902344 180.382812 185.285156 180.363281 Z M 185.285156 179.613281 C 179.914062 179.625 174.65625 179.96875 169.625 180.625 C 169.335938 177.78125 169.074219 174.925781 168.863281 172.113281 C 174.109375 171.429688 179.617188 171.0625 185.285156 171.046875 Z M 186.035156 179.613281 L 186.035156 171.054688 C 191.625 171.074219 197.140625 171.457031 202.460938 172.148438 C 202.261719 174.957031 202 177.789062 201.703125 180.625 C 196.667969 179.96875 191.414062 179.625 186.035156 179.613281 Z M 186.035156 188.003906 L 186.035156 180.363281 C 191.394531 180.382812 196.621094 180.71875 201.636719 181.363281 C 201.367188 183.910156 201.070312 186.445312 200.742188 188.953125 C 196.015625 188.339844 191.085938 188.011719 186.035156 188.003906 Z M 186.035156 205.730469 L 186.035156 188.753906 C 191.046875 188.761719 195.949219 189.089844 200.648438 189.695312 C 199.886719 195.496094 198.984375 201.175781 197.996094 206.507812 C 194.152344 206.007812 190.136719 205.738281 186.035156 205.730469 Z M 186.035156 206.476562 C 190.097656 206.496094 194.054688 206.746094 197.859375 207.238281 C 196.785156 212.933594 195.601562 218.210938 194.371094 222.792969 C 191.691406 222.445312 188.894531 222.253906 186.035156 222.234375 Z M 170.160156 240.644531 C 165.550781 238.136719 160.9375 234.886719 156.566406 231.066406 C 157.910156 229.980469 159.507812 228.96875 161.3125 228.058594 C 164.742188 232.132812 168.449219 235.847656 172.390625 239.171875 C 171.5625 239.617188 170.816406 240.105469 170.160156 240.644531 Z M 198.9375 239.171875 C 202.886719 235.859375 206.59375 232.132812 210.015625 228.058594 C 211.800781 228.96875 213.386719 229.980469 214.742188 231.09375 C 210.371094 234.898438 205.777344 238.144531 201.164062 240.652344 C 200.511719 240.113281 199.773438 239.625 198.9375 239.171875 Z M 193.488281 255.765625 C 192.730469 255.59375 192 255.199219 191.296875 254.605469 C 192.539062 254.402344 193.710938 254.132812 194.816406 253.816406 C 196.257812 254.390625 197.667969 254.746094 199.1875 254.882812 C 197.3125 255.257812 195.402344 255.546875 193.488281 255.765625 Z M 201.109375 249.183594 C 198.246094 252.058594 192.171875 253.910156 185.660156 253.910156 C 179.144531 253.910156 173.082031 252.058594 170.210938 249.183594 C 169.09375 248.070312 168.527344 246.878906 168.527344 245.660156 C 168.527344 241.09375 176.214844 237.386719 185.660156 237.386719 C 192.171875 237.386719 198.246094 239.25 201.109375 242.125 C 202.230469 243.238281 202.796875 244.429688 202.796875 245.660156 C 202.796875 246.878906 202.230469 248.070312 201.109375 249.183594 Z M 126.667969 217.691406 C 126.707031 215.386719 127.292969 213.144531 128.359375 210.984375 C 128.539062 211.3125 128.722656 211.628906 128.925781 211.953125 C 131.625 216.335938 134.785156 220.398438 138.339844 224.117188 C 137.484375 225.808594 136.996094 227.546875 136.871094 229.324219 C 133.191406 226.03125 129.703125 222.175781 126.667969 217.691406 Z M 137.582031 229.960938 C 137.628906 228.144531 138.082031 226.386719 138.898438 224.695312 C 142.808594 228.671875 147.1875 232.257812 151.992188 235.378906 C 151.386719 236.589844 151.050781 237.828125 150.964844 239.097656 C 146.527344 236.753906 141.933594 233.746094 137.582031 229.960938 Z M 155.152344 247.03125 C 154.386719 246.273438 153.761719 245.484375 153.25 244.6875 C 158.371094 246.542969 163.503906 247.6875 168.078125 248.203125 C 168.335938 248.695312 168.664062 249.15625 169.066406 249.617188 C 164.914062 249.800781 160.398438 249.15625 156.027344 247.847656 C 155.730469 247.582031 155.421875 247.3125 155.152344 247.03125 Z M 166.203125 253.402344 C 165.472656 253.152344 164.753906 252.882812 164.058594 252.605469 C 166.472656 252.875 168.960938 252.71875 172.6875 252.289062 C 173.515625 252.71875 174.40625 253.105469 175.378906 253.429688 C 173.332031 254.125 171.285156 254.335938 168.789062 254.105469 C 168.777344 254.105469 168.757812 254.105469 168.757812 254.105469 C 167.902344 253.894531 167.046875 253.652344 166.203125 253.402344 Z M 205.113281 253.402344 C 204.269531 253.652344 203.421875 253.882812 202.566406 254.105469 C 202.558594 254.105469 202.558594 254.105469 202.550781 254.105469 C 200.050781 254.335938 198.023438 254.125 195.988281 253.441406 C 196.957031 253.105469 197.859375 252.71875 198.675781 252.296875 C 202.375 252.71875 204.855469 252.875 207.257812 252.605469 C 206.566406 252.882812 205.84375 253.152344 205.113281 253.402344 Z M 215.289062 247.847656 C 210.917969 249.15625 206.410156 249.800781 202.28125 249.617188 C 202.675781 249.15625 203 248.695312 203.269531 248.203125 C 207.824219 247.6875 212.953125 246.550781 218.074219 244.699219 C 217.554688 245.484375 216.933594 246.273438 216.171875 247.03125 C 215.894531 247.3125 215.585938 247.582031 215.289062 247.847656 Z M 220.351562 239.105469 C 220.273438 237.828125 219.929688 236.597656 219.324219 235.378906 C 224.136719 232.257812 228.519531 228.683594 232.429688 224.695312 C 233.265625 226.40625 233.695312 228.171875 233.734375 229.96875 C 229.382812 233.746094 224.789062 236.761719 220.351562 239.105469 Z M 234.457031 229.335938 C 234.332031 227.558594 233.839844 225.820312 232.976562 224.128906 C 236.550781 220.398438 239.710938 216.335938 242.410156 211.953125 C 242.605469 211.628906 242.785156 211.3125 242.976562 210.984375 C 244.054688 213.164062 244.621094 215.414062 244.648438 217.710938 C 241.613281 222.1875 238.136719 226.039062 234.457031 229.335938 Z M 245.351562 216.625 C 245.167969 214.433594 244.523438 212.300781 243.441406 210.214844 C 244.613281 208.167969 245.6875 206.09375 246.628906 203.980469 C 247.8125 206.355469 248.417969 208.773438 248.445312 211.261719 C 247.484375 213.136719 246.445312 214.921875 245.351562 216.625 Z M 242.824219 186.621094 C 239.980469 184.207031 236.578125 182.015625 232.746094 180.078125 C 233.734375 174.90625 234.285156 169.796875 234.351562 164.886719 C 238.335938 166.914062 241.824219 169.21875 244.726562 171.746094 C 244.726562 176.308594 244.167969 181.007812 243.027344 185.8125 C 242.96875 186.082031 242.890625 186.351562 242.824219 186.621094 Z M 209.410156 125.6875 C 211.457031 127.523438 213.195312 129.78125 214.644531 132.441406 C 210.476562 131.289062 206.015625 130.394531 201.367188 129.769531 C 200.683594 127.320312 199.828125 125.175781 198.773438 123.476562 C 202.492188 123.996094 206.054688 124.734375 209.410156 125.6875 Z M 161.890625 125.714844 C 165.242188 124.765625 168.824219 124.015625 172.554688 123.488281 C 171.496094 125.1875 170.652344 127.328125 169.96875 129.769531 C 165.320312 130.40625 160.859375 131.296875 156.691406 132.441406 C 158.121094 129.808594 159.851562 127.550781 161.890625 125.714844 Z M 128.300781 185.8125 C 127.167969 181.007812 126.609375 176.300781 126.601562 171.738281 C 129.472656 169.25 132.960938 166.953125 136.976562 164.914062 C 137.054688 169.785156 137.589844 174.839844 138.570312 179.96875 C 134.726562 181.902344 131.328125 184.074219 128.472656 186.476562 C 128.414062 186.253906 128.359375 186.03125 128.300781 185.8125 Z M 119.828125 203.558594 C 119.828125 200.914062 120.46875 198.339844 121.691406 195.882812 C 122.410156 198.300781 123.292969 200.703125 124.3125 203.066406 C 123.121094 205.269531 122.421875 207.535156 122.199219 209.839844 C 121.335938 208.035156 120.546875 206.152344 119.84375 204.183594 C 119.835938 203.980469 119.828125 203.769531 119.828125 203.558594 Z M 123.382812 215.328125 C 123.179688 214.558594 123.042969 213.789062 122.96875 213.011719 C 123.890625 214.710938 124.871094 216.34375 125.90625 217.890625 C 125.90625 217.902344 125.90625 217.910156 125.90625 217.921875 C 125.90625 219.027344 126.03125 220.121094 126.273438 221.207031 C 125.207031 219.296875 124.246094 217.335938 123.382812 215.328125 Z M 131.125 228.652344 C 131.078125 228.605469 131.027344 228.566406 130.972656 228.546875 C 129.953125 227.164062 129 225.742188 128.097656 224.292969 C 127.3125 222.570312 126.839844 220.8125 126.707031 219.035156 C 129.742188 223.359375 133.191406 227.085938 136.824219 230.277344 C 136.832031 232.035156 137.214844 233.773438 137.957031 235.464844 C 135.4375 233.464844 133.113281 231.207031 131.125 228.652344 Z M 142.960938 241.105469 C 141.972656 240.164062 141.105469 239.191406 140.386719 238.195312 C 144.085938 240.703125 148.082031 242.710938 152.128906 244.265625 C 152.683594 245.3125 153.433594 246.320312 154.386719 247.3125 C 151.292969 246.246094 148.324219 244.851562 145.640625 243.179688 C 144.738281 242.507812 143.84375 241.824219 142.960938 241.105469 Z M 228.363281 241.105469 C 227.460938 241.835938 226.539062 242.546875 225.609375 243.226562 C 222.9375 244.898438 219.96875 246.273438 216.894531 247.332031 C 217.835938 246.359375 218.59375 245.332031 219.171875 244.273438 C 223.214844 242.726562 227.210938 240.71875 230.910156 238.210938 C 230.199219 239.203125 229.34375 240.171875 228.363281 241.105469 Z M 240.347656 228.546875 C 240.296875 228.566406 240.25 228.605469 240.210938 228.652344 C 238.214844 231.21875 235.878906 233.476562 233.359375 235.484375 C 234.101562 233.785156 234.484375 232.042969 234.496094 230.285156 C 238.125 227.097656 241.574219 223.367188 244.613281 219.066406 C 244.476562 220.84375 243.996094 222.589844 243.21875 224.308594 C 242.316406 225.75 241.363281 227.164062 240.347656 228.546875 Z M 245.042969 221.207031 C 245.285156 220.132812 245.410156 219.027344 245.410156 217.921875 C 246.445312 216.363281 247.425781 214.75 248.347656 213.039062 C 248.273438 213.808594 248.136719 214.566406 247.945312 215.335938 C 247.070312 217.335938 246.109375 219.304688 245.042969 221.207031 Z M 247.601562 160.660156 C 246.339844 159.027344 244.824219 157.460938 243.101562 155.960938 C 242.507812 154.105469 241.804688 152.28125 241 150.503906 C 242.238281 151.695312 243.34375 152.925781 244.285156 154.210938 C 245.515625 156.296875 246.609375 158.457031 247.601562 160.660156 Z M 226.808594 136.871094 C 223.40625 135.265625 219.660156 133.871094 215.644531 132.71875 C 214.335938 130.183594 212.78125 127.992188 210.964844 126.128906 C 213.636719 126.957031 216.164062 127.925781 218.507812 129.011719 C 219.421875 129.519531 220.324219 130.039062 221.21875 130.597656 C 223.332031 132.324219 225.203125 134.429688 226.808594 136.871094 Z M 195.929688 121.316406 C 196.363281 121.660156 196.765625 122.054688 197.160156 122.515625 C 193.554688 122.085938 189.839844 121.851562 186.035156 121.835938 L 186.035156 120.554688 C 189.375 120.566406 192.683594 120.824219 195.929688 121.316406 Z M 185.285156 120.546875 L 185.285156 121.835938 C 181.5 121.851562 177.769531 122.09375 174.167969 122.527344 C 174.550781 122.066406 174.964844 121.660156 175.398438 121.316406 C 178.625 120.824219 181.929688 120.566406 185.285156 120.546875 Z M 127.089844 154.175781 C 128.023438 152.914062 129.097656 151.695312 130.316406 150.53125 C 129.5 152.328125 128.800781 154.175781 128.203125 156.058594 C 126.457031 157.566406 124.945312 159.160156 123.6875 160.792969 C 124.707031 158.515625 125.839844 156.308594 127.089844 154.175781 Z M 117.835938 187.101562 C 117.960938 185.207031 118.402344 183.351562 119.152344 181.546875 C 119.402344 185.996094 120.164062 190.433594 121.382812 194.804688 C 120.132812 197.101562 119.394531 199.464844 119.164062 201.894531 C 118.28125 197.496094 117.816406 192.96875 117.816406 188.386719 C 117.816406 187.953125 117.828125 187.523438 117.835938 187.101562 Z M 116.664062 188.222656 C 116.664062 188.273438 116.675781 188.308594 116.695312 188.359375 C 116.695312 188.367188 116.683594 188.378906 116.683594 188.386719 C 116.683594 206.804688 123.863281 224.128906 136.890625 237.15625 C 149.917969 250.183594 167.230469 257.351562 185.660156 257.351562 C 223.667969 257.351562 254.59375 226.445312 254.632812 188.445312 C 254.660156 188.378906 254.679688 188.300781 254.679688 188.222656 C 254.679688 187.617188 254.640625 187.023438 254.585938 186.425781 C 254.09375 168.738281 246.996094 152.175781 234.425781 139.617188 C 221.398438 126.589844 204.085938 119.414062 185.660156 119.414062 C 167.242188 119.414062 149.917969 126.589844 136.890625 139.617188 C 124.246094 152.261719 117.136719 168.941406 116.734375 186.761719 C 116.683594 187.253906 116.664062 187.734375 116.664062 188.222656 " fill-opacity="1" fill-rule="nonzero"/></g><g clip-path="url(#612623974e)"><path fill="#000000" d="M 258.675781 201.820312 C 257.628906 201.90625 256.957031 202.605469 257.167969 203.375 C 257.378906 204.152344 258.398438 204.710938 259.445312 204.625 C 266.765625 204.007812 272.648438 202.90625 276.691406 201.328125 C 280.988281 199.65625 283.339844 197.429688 283.339844 194.652344 C 283.339844 188.886719 272.347656 182.199219 254.59375 176.058594 C 237.453125 170.132812 213.808594 164.519531 187.722656 160.648438 C 174.542969 158.699219 162.015625 157.375 150.628906 156.644531 C 134.140625 155.585938 120.019531 155.796875 109.824219 157.179688 C 99.007812 158.652344 92.40625 161.542969 91.722656 165.789062 C 91.683594 166.039062 91.664062 166.289062 91.664062 166.53125 C 91.664062 168.921875 93.453125 171.417969 96.757812 173.945312 C 99.9375 176.359375 104.570312 178.847656 110.390625 181.304688 C 111.351562 181.710938 112.515625 181.507812 112.984375 180.835938 C 113.457031 180.171875 113.0625 179.308594 112.101562 178.894531 C 106.636719 176.589844 102.320312 174.28125 99.449219 172.09375 C 96.910156 170.160156 95.539062 168.363281 95.539062 166.777344 C 95.539062 166.625 95.558594 166.480469 95.578125 166.355469 C 96.058594 163.367188 101.621094 161.207031 110.832031 159.957031 C 120.671875 158.613281 134.449219 158.429688 150.628906 159.457031 C 161.890625 160.179688 174.28125 161.496094 187.28125 163.425781 C 213.050781 167.242188 236.359375 172.765625 253.199219 178.585938 C 269.417969 184.199219 279.457031 189.914062 279.457031 194.402344 C 279.457031 196.121094 277.757812 197.601562 274.644531 198.8125 C 270.984375 200.234375 265.539062 201.242188 258.675781 201.820312 " fill-opacity="1" fill-rule="nonzero"/></g><g clip-path="url(#dff69ead7b)"><path fill="#000000" d="M 256.878906 117.835938 L 256.976562 117.835938 C 257.628906 126.4375 264.488281 133.304688 273.089844 133.949219 L 273.089844 134.054688 C 264.488281 134.699219 257.628906 141.570312 256.976562 150.167969 L 256.878906 150.167969 C 256.226562 141.570312 249.367188 134.699219 240.769531 134.054688 L 240.769531 133.949219 C 249.367188 133.304688 256.226562 126.4375 256.878906 117.835938 " fill-opacity="1" fill-rule="evenodd"/></g><path fill="#000000" d="M 273.347656 147.507812 L 273.394531 147.507812 C 273.664062 151.167969 276.585938 154.085938 280.238281 154.355469 L 280.238281 154.40625 C 276.585938 154.671875 273.664062 157.59375 273.394531 161.246094 L 273.347656 161.246094 C 273.078125 157.59375 270.160156 154.671875 266.5 154.40625 L 266.5 154.355469 C 270.160156 154.085938 273.078125 151.167969 273.347656 147.507812 " fill-opacity="1" fill-rule="evenodd"/><path stroke-linecap="butt" transform="matrix(0.75, 0, 0, 0.75, 73.7989, 155.62499)" fill="none" stroke-linejoin="miter" d="M 71.445221 32.989599 L 71.445221 18.401057 L 98.127514 18.401057 L 98.127514 32.989599 L 89.632722 32.322932 L 89.783764 38.078141 L 98.127514 37.411474 L 98.127514 52.000017 L 71.445221 52.000017 L 71.445221 37.411474 L 79.799388 38.078141 L 79.940013 32.322932 Z M 114.783765 38.848975 L 111.387932 38.848975 L 112.67439 52.000017 L 100.440014 52.000017 L 100.440014 18.401057 L 117.809807 18.401057 C 120.565016 18.432307 123.007724 18.770848 125.132724 19.411473 C 127.257724 20.052098 128.919183 21.088557 130.122308 22.526057 C 131.325433 23.963557 131.9296 25.932307 131.9296 28.432307 C 131.9296 30.958349 130.799391 33.010432 128.544183 34.598974 C 126.283766 36.182308 122.867099 36.973974 118.288974 36.973974 L 118.288974 37.552099 L 121.262932 37.552099 C 123.887933 37.552099 126.049391 38.161474 127.747308 39.380225 C 129.440016 40.588558 130.653558 42.276058 131.387933 44.442725 C 132.132725 46.598975 132.341058 49.1146 132.02335 52.000017 L 118.242099 52.000017 C 118.622307 50.39585 118.856682 48.822933 118.934807 47.276058 C 119.018141 45.723975 118.940016 44.3021 118.700432 43.02085 C 118.455641 41.7396 118.012932 40.723975 117.372307 39.973975 C 116.742099 39.223975 115.877515 38.848975 114.783765 38.848975 Z M 117.137932 32.078141 L 111.387932 32.078141 L 111.387932 35.395849 L 117.091057 35.395849 C 118.210849 35.395849 119.106682 35.255224 119.778557 34.984391 C 120.450432 34.708349 120.783766 34.302099 120.783766 33.765641 C 120.783766 33.125016 120.440016 32.682307 119.752516 32.442724 C 119.065016 32.197932 118.195224 32.078141 117.137932 32.078141 Z M 157.367101 52.000017 L 143.783767 52.000017 L 132.309808 18.401057 L 147.195226 18.401057 L 150.216059 37.020849 L 150.976476 37.020849 L 153.861893 18.401057 L 168.788977 18.401057 Z M 169.174394 32.989599 L 169.174394 18.401057 L 195.856687 18.401057 L 195.856687 32.989599 L 187.361895 32.322932 L 187.512937 38.078141 L 195.856687 37.411474 L 195.856687 52.000017 L 169.174394 52.000017 L 169.174394 37.411474 L 177.528561 38.078141 L 177.669186 32.322932 Z M 231.330648 52.000017 L 221.111897 52.000017 L 209.971272 33.286474 L 209.346271 33.473974 L 212.419188 52.000017 L 198.169187 52.000017 L 198.169187 18.401057 L 208.679605 18.401057 L 219.471272 33.286474 L 220.200439 33.083349 L 217.705647 18.401057 L 231.330648 18.401057 Z M 231.330648 52.000017 " stroke="#ffffff" stroke-width="12.6" stroke-opacity="1" stroke-miterlimit="4"/><g fill="#000000" fill-opacity="1"><g transform="translate(126.662178, 194.624987)"><g><path d="M 0.71875 -14.25 L 0.71875 -25.203125 L 20.734375 -25.203125 L 20.734375 -14.25 L 14.359375 -14.765625 L 14.46875 -10.4375 L 20.734375 -10.9375 L 20.734375 0 L 0.71875 0 L 0.71875 -10.9375 L 6.984375 -10.4375 L 7.09375 -14.765625 Z M 0.71875 -14.25 "/></g></g></g><g fill="#000000" fill-opacity="1"><g transform="translate(148.118224, 194.624987)"><g><path d="M 11.765625 -9.859375 L 9.21875 -9.859375 L 10.1875 0 L 1.015625 0 L 1.015625 -25.203125 L 14.046875 -25.203125 C 16.109375 -25.171875 17.9375 -24.914062 19.53125 -24.4375 C 21.125 -23.957031 22.367188 -23.175781 23.265625 -22.09375 C 24.171875 -21.019531 24.625 -19.546875 24.625 -17.671875 C 24.625 -15.773438 23.773438 -14.234375 22.078125 -13.046875 C 20.390625 -11.859375 17.832031 -11.265625 14.40625 -11.265625 L 14.40625 -10.84375 L 16.625 -10.84375 C 18.59375 -10.84375 20.210938 -10.382812 21.484375 -9.46875 C 22.765625 -8.550781 23.679688 -7.28125 24.234375 -5.65625 C 24.785156 -4.039062 24.941406 -2.15625 24.703125 0 L 14.359375 0 C 14.648438 -1.195312 14.820312 -2.378906 14.875 -3.546875 C 14.9375 -4.710938 14.878906 -5.773438 14.703125 -6.734375 C 14.523438 -7.691406 14.195312 -8.453125 13.71875 -9.015625 C 13.238281 -9.578125 12.585938 -9.859375 11.765625 -9.859375 Z M 13.53125 -14.9375 L 9.21875 -14.9375 L 9.21875 -12.453125 L 13.5 -12.453125 C 14.34375 -12.453125 15.015625 -12.550781 15.515625 -12.75 C 16.015625 -12.957031 16.265625 -13.269531 16.265625 -13.6875 C 16.265625 -14.164062 16.003906 -14.492188 15.484375 -14.671875 C 14.972656 -14.847656 14.320312 -14.9375 13.53125 -14.9375 Z M 13.53125 -14.9375 "/></g></g></g><g fill="#000000" fill-opacity="1"><g transform="translate(173.462273, 194.624987)"><g><path d="M 18.359375 0 L 8.171875 0 L -0.4375 -25.203125 L 10.734375 -25.203125 L 13 -11.234375 L 13.578125 -11.234375 L 15.734375 -25.203125 L 26.921875 -25.203125 Z M 18.359375 0 "/></g></g></g><g fill="#000000" fill-opacity="1"><g transform="translate(199.958331, 194.624987)"><g><path d="M 0.71875 -14.25 L 0.71875 -25.203125 L 20.734375 -25.203125 L 20.734375 -14.25 L 14.359375 -14.765625 L 14.46875 -10.4375 L 20.734375 -10.9375 L 20.734375 0 L 0.71875 0 L 0.71875 -10.9375 L 6.984375 -10.4375 L 7.09375 -14.765625 Z M 0.71875 -14.25 "/></g></g></g><g fill="#000000" fill-opacity="1"><g transform="translate(221.414377, 194.624987)"><g><path d="M 25.890625 0 L 18.21875 0 L 9.859375 -14.046875 L 9.390625 -13.890625 L 11.703125 0 L 1.015625 0 L 1.015625 -25.203125 L 8.890625 -25.203125 L 16.984375 -14.046875 L 17.53125 -14.1875 L 15.65625 -25.203125 L 25.890625 -25.203125 Z M 25.890625 0 "/></g></g></g><path stroke-linecap="butt" transform="matrix(0.75, 0, 0, 0.75, 97.442218, 199.724226)" fill="none" stroke-linejoin="miter" d="M 31.629128 15.263533 C 30.134336 15.263533 28.920794 15.08645 27.978086 14.732283 C 27.045794 14.378116 26.353086 13.904158 25.905169 13.315616 C 25.457253 12.727074 25.212461 12.096866 25.176003 11.414574 L 27.889544 11.414574 C 27.915586 11.773949 28.045794 12.096866 28.269753 12.383324 C 28.498919 12.674991 28.879128 12.898949 29.415586 13.070824 C 29.952044 13.242699 30.68642 13.326033 31.629128 13.326033 C 32.785378 13.326033 33.62392 13.206241 34.139545 12.977074 C 34.649961 12.742699 34.910378 12.398949 34.910378 11.956241 C 34.910378 11.758324 34.868711 11.591658 34.790586 11.445824 C 34.712461 11.299991 34.556211 11.169783 34.31142 11.060408 C 34.071836 10.945824 33.702045 10.846866 33.207253 10.758324 C 32.712461 10.669783 32.045795 10.586449 31.212461 10.497908 C 30.035378 10.378116 29.077044 10.216658 28.337461 10.003116 C 27.597878 9.789574 27.035378 9.534366 26.644753 9.237491 C 26.259336 8.940616 25.993711 8.612491 25.847878 8.247907 C 25.702044 7.883324 25.629128 7.492699 25.629128 7.076032 C 25.629128 6.664574 25.728086 6.273949 25.926003 5.898949 C 26.129128 5.523949 26.446836 5.190616 26.889544 4.898949 C 27.327044 4.602074 27.910378 4.367699 28.634336 4.195824 C 29.358294 4.023949 30.254128 3.940615 31.31142 3.940615 C 32.696836 3.940615 33.827045 4.107282 34.696836 4.440616 C 35.566628 4.768741 36.222878 5.216657 36.665587 5.789574 C 37.108295 6.352074 37.363503 7.008324 37.431212 7.742699 L 34.832253 7.742699 C 34.785378 7.414574 34.65517 7.107282 34.43642 6.826032 C 34.21767 6.544782 33.868711 6.315616 33.394753 6.143741 C 32.915586 5.966657 32.259336 5.878116 31.426003 5.878116 C 30.681211 5.878116 30.087461 5.935407 29.649961 6.044782 C 29.212461 6.159366 28.899961 6.310407 28.717669 6.497907 C 28.530169 6.690616 28.436419 6.898949 28.436419 7.133324 C 28.436419 7.289574 28.467669 7.435407 28.524961 7.570824 C 28.582253 7.706241 28.712461 7.831241 28.910378 7.956241 C 29.113503 8.076032 29.415586 8.185407 29.821836 8.279157 C 30.228086 8.367699 30.78017 8.451032 31.46767 8.513532 C 32.587461 8.622907 33.519753 8.758324 34.264545 8.930199 C 35.014545 9.102074 35.618712 9.294782 36.071837 9.508324 C 36.53017 9.721866 36.879128 9.956241 37.113503 10.206241 C 37.353087 10.461449 37.514545 10.727074 37.587462 11.008324 C 37.665587 11.289574 37.707253 11.581241 37.707253 11.878116 C 37.707253 13.029158 37.181212 13.878116 36.139545 14.435408 C 35.097878 14.987491 33.59267 15.263533 31.629128 15.263533 Z M 42.68642 14.997908 L 42.68642 4.17499 L 54.051004 4.17499 L 54.051004 6.201032 L 45.467671 6.201032 L 45.467671 8.503116 L 53.436421 8.503116 L 53.436421 10.362491 L 45.467671 10.362491 L 45.467671 12.977074 L 54.165588 12.977074 L 54.165588 14.997908 Z M 65.769755 15.263533 C 64.25413 15.263533 62.931213 15.049991 61.790588 14.6177 C 60.655172 14.180199 59.769755 13.549991 59.139546 12.711449 C 58.509338 11.878116 58.196838 10.862491 58.196838 9.669783 L 58.196838 9.591658 C 58.196838 8.378116 58.509338 7.352074 59.134338 6.513532 C 59.759338 5.674991 60.639547 5.034366 61.774963 4.596866 C 62.915588 4.159365 64.248922 3.940615 65.769755 3.940615 C 66.733297 3.940615 67.634339 4.04999 68.478089 4.263532 C 69.327047 4.471866 70.077047 4.773949 70.738506 5.159366 C 71.399964 5.539574 71.926006 5.997907 72.321839 6.518741 C 72.712464 7.044782 72.931214 7.612491 72.967672 8.221866 L 72.967672 8.268741 L 70.228089 8.268741 L 70.228089 8.221866 C 70.139547 7.789574 69.87913 7.393741 69.452047 7.039574 C 69.019755 6.685407 68.478089 6.404157 67.832255 6.201032 C 67.186422 5.997907 66.493714 5.893741 65.759339 5.893741 C 64.821838 5.893741 63.998922 6.034366 63.28538 6.315616 C 62.571838 6.596866 62.014547 7.013532 61.608297 7.555199 C 61.207255 8.096866 61.00413 8.773949 61.00413 9.581241 L 61.00413 9.654158 C 61.00413 10.419783 61.207255 11.070824 61.608297 11.612491 C 62.014547 12.154158 62.571838 12.560408 63.290588 12.846866 C 64.009338 13.128116 64.837463 13.268741 65.769755 13.268741 C 66.44163 13.268741 67.092672 13.180199 67.733297 13.013533 C 68.37913 12.841658 68.936422 12.581241 69.41038 12.232283 C 69.889547 11.883324 70.202047 11.451033 70.358297 10.935408 L 70.373922 10.904158 L 65.056213 10.904158 L 65.056213 9.258324 L 72.967672 9.258324 L 72.967672 9.549991 C 72.967672 10.503116 72.785381 11.336449 72.420797 12.049991 C 72.056214 12.763533 71.551006 13.362491 70.899964 13.836449 C 70.248922 14.310408 69.483297 14.669783 68.608297 14.909366 C 67.738505 15.143741 66.790589 15.263533 65.769755 15.263533 Z M 84.207256 15.263533 C 82.623923 15.263533 81.342673 15.065616 80.368714 14.664575 C 79.394756 14.268741 78.681214 13.674991 78.233298 12.888533 C 77.785381 12.102074 77.566631 11.122908 77.566631 9.961449 L 77.566631 4.17499 L 80.358298 4.17499 L 80.358298 9.930199 C 80.358298 12.164574 81.649965 13.284366 84.222881 13.284366 C 86.785382 13.284366 88.066632 12.169783 88.066632 9.945824 L 88.066632 4.17499 L 90.868715 4.17499 L 90.868715 9.971866 C 90.868715 11.117699 90.644757 12.086449 90.202048 12.872908 C 89.764548 13.659366 89.056215 14.253116 88.082257 14.659366 C 87.113507 15.060408 85.82184 15.263533 84.207256 15.263533 Z M 96.327049 14.997908 L 96.327049 4.17499 L 103.795799 4.17499 C 105.040591 4.17499 106.040591 4.315616 106.790591 4.591657 C 107.5458 4.867699 108.092675 5.242699 108.431216 5.721866 C 108.769758 6.195824 108.941633 6.742699 108.941633 7.367699 C 108.941633 8.148949 108.691633 8.789574 108.186425 9.279157 C 107.681216 9.768741 106.993716 10.096866 106.129133 10.263533 L 106.129133 10.279158 C 106.535383 10.367699 106.873925 10.487491 107.149966 10.638533 C 107.4208 10.789574 107.644758 11.008324 107.82705 11.299991 C 108.004133 11.591658 108.155175 12.003116 108.274966 12.539574 L 108.446841 13.268741 C 108.556216 13.706241 108.649966 14.044783 108.728091 14.289574 C 108.811425 14.529158 108.910383 14.768741 109.024966 14.997908 L 106.144758 14.997908 C 106.077049 14.862491 106.004133 14.690616 105.931216 14.477075 C 105.858299 14.263533 105.769758 13.914574 105.660383 13.440616 L 105.472883 12.638533 C 105.415591 12.357283 105.290591 12.128116 105.108299 11.945824 C 104.926008 11.768741 104.644758 11.638533 104.269758 11.555199 C 103.894758 11.471866 103.384341 11.430199 102.733299 11.430199 L 99.108299 11.430199 L 99.108299 14.997908 Z M 99.108299 9.492699 L 103.582258 9.492699 C 104.389549 9.492699 105.014549 9.352074 105.467674 9.065616 C 105.915591 8.773949 106.144758 8.336449 106.144758 7.742699 C 106.144758 7.268741 105.957258 6.888532 105.582258 6.617699 C 105.207258 6.336449 104.592674 6.201032 103.743716 6.201032 L 99.108299 6.201032 Z M 112.754133 14.997908 L 118.405175 4.17499 L 122.103092 4.17499 L 127.801009 14.997908 L 124.696842 14.997908 L 123.551009 12.607283 L 116.993717 12.607283 L 115.82705 14.997908 Z M 117.884342 10.758324 L 122.660384 10.758324 L 120.399967 6.096866 L 120.285384 5.852074 L 120.254134 5.852074 L 120.155175 6.096866 Z M 148.483302 15.263533 C 146.915594 15.263533 145.566635 15.044783 144.42601 14.607283 C 143.285385 14.169783 142.405177 13.529158 141.790594 12.685408 C 141.170802 11.836449 140.86351 10.805199 140.86351 9.591658 C 140.86351 8.378116 141.170802 7.352074 141.790594 6.513532 C 142.405177 5.674991 143.285385 5.034366 144.42601 4.596866 C 145.566635 4.159365 146.915594 3.940615 148.483302 3.940615 C 150.045802 3.940615 151.394761 4.159365 152.530178 4.596866 C 153.670803 5.034366 154.545803 5.674991 155.165594 6.513532 C 155.780178 7.352074 156.087469 8.378116 156.087469 9.591658 C 156.087469 10.805199 155.780178 11.836449 155.165594 12.685408 C 154.545803 13.529158 153.670803 14.169783 152.530178 14.607283 C 151.394761 15.044783 150.045802 15.263533 148.483302 15.263533 Z M 143.67601 9.591658 C 143.67601 10.378116 143.873927 11.049991 144.280177 11.596866 C 144.681219 12.148949 145.243719 12.565616 145.967677 12.852074 C 146.691635 13.138533 147.530177 13.284366 148.483302 13.284366 C 149.431219 13.284366 150.269761 13.138533 150.988511 12.846866 C 151.707261 12.555199 152.269761 12.128116 152.670803 11.576033 C 153.077053 11.023949 153.280178 10.362491 153.280178 9.591658 C 153.280178 8.815616 153.077053 8.154157 152.670803 7.607282 C 152.269761 7.060407 151.707261 6.638532 150.988511 6.346866 C 150.269761 6.055199 149.431219 5.909366 148.483302 5.909366 C 147.530177 5.909366 146.691635 6.049991 145.967677 6.331241 C 145.243719 6.612491 144.681219 7.029157 144.280177 7.581241 C 143.873927 8.128116 143.67601 8.799991 143.67601 9.591658 Z M 161.051011 14.997908 L 161.051011 4.17499 L 168.52497 4.17499 C 169.764554 4.17499 170.764554 4.315616 171.514554 4.591657 C 172.269762 4.867699 172.816637 5.242699 173.155179 5.721866 C 173.493721 6.195824 173.665596 6.742699 173.665596 7.367699 C 173.665596 8.148949 173.415596 8.789574 172.910387 9.279157 C 172.405179 9.768741 171.717679 10.096866 170.853095 10.263533 L 170.853095 10.279158 C 171.259345 10.367699 171.603095 10.487491 171.873929 10.638533 C 172.144762 10.789574 172.373929 11.008324 172.551012 11.299991 C 172.728096 11.591658 172.879137 12.003116 172.998929 12.539574 L 173.170804 13.268741 C 173.280179 13.706241 173.373929 14.044783 173.452054 14.289574 C 173.535387 14.529158 173.634346 14.768741 173.754137 14.997908 L 170.86872 14.997908 C 170.801012 14.862491 170.733304 14.690616 170.655179 14.477075 C 170.582262 14.263533 170.49372 13.914574 170.389554 13.440616 L 170.196845 12.638533 C 170.139554 12.357283 170.019762 12.128116 169.832262 11.945824 C 169.64997 11.768741 169.36872 11.638533 168.998929 11.555199 C 168.623929 11.471866 168.108304 11.430199 167.457262 11.430199 L 163.832262 11.430199 L 163.832262 14.997908 Z M 163.832262 9.492699 L 168.30622 9.492699 C 169.113512 9.492699 169.738512 9.352074 170.191637 9.065616 C 170.639554 8.773949 170.86872 8.336449 170.86872 7.742699 C 170.86872 7.268741 170.68122 6.888532 170.30622 6.617699 C 169.93122 6.336449 169.321845 6.201032 168.467679 6.201032 L 163.832262 6.201032 Z M 182.545805 14.997908 L 182.545805 6.201032 L 177.462471 6.201032 L 177.462471 4.17499 L 190.415597 4.17499 L 190.415597 6.201032 L 185.332263 6.201032 L 185.332263 14.997908 Z M 194.910389 14.997908 L 194.910389 4.17499 L 197.691639 4.17499 L 197.691639 14.997908 Z M 202.545806 14.997908 L 202.545806 13.091658 L 210.87914 6.315616 L 203.009348 6.315616 L 203.009348 4.17499 L 214.769765 4.17499 L 214.769765 6.065616 L 206.446848 12.857283 L 215.077057 12.857283 L 215.077057 14.997908 Z M 202.545806 14.997908 " stroke="#ffffff" stroke-width="3.825544" stroke-opacity="1" stroke-miterlimit="4"/><g fill="#000000" fill-opacity="1"><g transform="translate(115.887529, 210.974225)"><g><path d="M 5.28125 0.203125 C 4.15625 0.203125 3.238281 0.0703125 2.53125 -0.1875 C 1.832031 -0.457031 1.316406 -0.8125 0.984375 -1.25 C 0.648438 -1.695312 0.46875 -2.175781 0.4375 -2.6875 L 2.46875 -2.6875 C 2.488281 -2.414062 2.582031 -2.171875 2.75 -1.953125 C 2.925781 -1.742188 3.210938 -1.570312 3.609375 -1.4375 C 4.015625 -1.3125 4.570312 -1.25 5.28125 -1.25 C 6.144531 -1.25 6.769531 -1.335938 7.15625 -1.515625 C 7.539062 -1.691406 7.734375 -1.945312 7.734375 -2.28125 C 7.734375 -2.425781 7.703125 -2.550781 7.640625 -2.65625 C 7.585938 -2.769531 7.46875 -2.867188 7.28125 -2.953125 C 7.101562 -3.035156 6.828125 -3.109375 6.453125 -3.171875 C 6.078125 -3.242188 5.578125 -3.3125 4.953125 -3.375 C 4.078125 -3.457031 3.363281 -3.578125 2.8125 -3.734375 C 2.257812 -3.898438 1.835938 -4.09375 1.546875 -4.3125 C 1.253906 -4.539062 1.050781 -4.789062 0.9375 -5.0625 C 0.832031 -5.332031 0.78125 -5.625 0.78125 -5.9375 C 0.78125 -6.25 0.851562 -6.539062 1 -6.8125 C 1.144531 -7.09375 1.382812 -7.34375 1.71875 -7.5625 C 2.050781 -7.789062 2.488281 -7.96875 3.03125 -8.09375 C 3.570312 -8.226562 4.238281 -8.296875 5.03125 -8.296875 C 6.070312 -8.296875 6.914062 -8.171875 7.5625 -7.921875 C 8.21875 -7.671875 8.710938 -7.332031 9.046875 -6.90625 C 9.378906 -6.476562 9.570312 -5.988281 9.625 -5.4375 L 7.671875 -5.4375 C 7.640625 -5.6875 7.539062 -5.914062 7.375 -6.125 C 7.207031 -6.332031 6.945312 -6.503906 6.59375 -6.640625 C 6.238281 -6.773438 5.75 -6.84375 5.125 -6.84375 C 4.5625 -6.84375 4.113281 -6.800781 3.78125 -6.71875 C 3.457031 -6.632812 3.226562 -6.519531 3.09375 -6.375 C 2.957031 -6.226562 2.890625 -6.066406 2.890625 -5.890625 C 2.890625 -5.773438 2.910156 -5.664062 2.953125 -5.5625 C 2.992188 -5.46875 3.085938 -5.375 3.234375 -5.28125 C 3.390625 -5.1875 3.617188 -5.101562 3.921875 -5.03125 C 4.222656 -4.96875 4.632812 -4.910156 5.15625 -4.859375 C 5.988281 -4.773438 6.6875 -4.671875 7.25 -4.546875 C 7.8125 -4.421875 8.265625 -4.273438 8.609375 -4.109375 C 8.953125 -3.953125 9.210938 -3.78125 9.390625 -3.59375 C 9.566406 -3.40625 9.679688 -3.203125 9.734375 -2.984375 C 9.796875 -2.773438 9.828125 -2.5625 9.828125 -2.34375 C 9.828125 -1.476562 9.4375 -0.835938 8.65625 -0.421875 C 7.875 -0.00390625 6.75 0.203125 5.28125 0.203125 Z M 5.28125 0.203125 "/></g></g></g><g fill="#000000" fill-opacity="1"><g transform="translate(128.340197, 210.974225)"><g><path d="M 1.109375 0 L 1.109375 -8.109375 L 9.640625 -8.109375 L 9.640625 -6.59375 L 3.203125 -6.59375 L 3.203125 -4.875 L 9.171875 -4.875 L 9.171875 -3.46875 L 3.203125 -3.46875 L 3.203125 -1.515625 L 9.71875 -1.515625 L 9.71875 0 Z M 1.109375 0 "/></g></g></g><g fill="#000000" fill-opacity="1"><g transform="translate(140.661795, 210.974225)"><g><path d="M 6.109375 0.203125 C 4.972656 0.203125 3.976562 0.0390625 3.125 -0.28125 C 2.269531 -0.613281 1.601562 -1.09375 1.125 -1.71875 C 0.65625 -2.34375 0.421875 -3.101562 0.421875 -4 L 0.421875 -4.046875 C 0.421875 -4.960938 0.65625 -5.734375 1.125 -6.359375 C 1.59375 -6.992188 2.253906 -7.472656 3.109375 -7.796875 C 3.960938 -8.128906 4.960938 -8.296875 6.109375 -8.296875 C 6.828125 -8.296875 7.503906 -8.210938 8.140625 -8.046875 C 8.773438 -7.890625 9.335938 -7.664062 9.828125 -7.375 C 10.328125 -7.09375 10.722656 -6.753906 11.015625 -6.359375 C 11.304688 -5.960938 11.46875 -5.535156 11.5 -5.078125 L 11.5 -5.046875 L 9.453125 -5.046875 L 9.453125 -5.078125 C 9.378906 -5.398438 9.179688 -5.695312 8.859375 -5.96875 C 8.535156 -6.238281 8.128906 -6.445312 7.640625 -6.59375 C 7.160156 -6.75 6.644531 -6.828125 6.09375 -6.828125 C 5.394531 -6.828125 4.773438 -6.71875 4.234375 -6.5 C 3.703125 -6.289062 3.285156 -5.984375 2.984375 -5.578125 C 2.679688 -5.171875 2.53125 -4.664062 2.53125 -4.0625 L 2.53125 -4.015625 C 2.53125 -3.429688 2.679688 -2.9375 2.984375 -2.53125 C 3.285156 -2.132812 3.707031 -1.828125 4.25 -1.609375 C 4.789062 -1.398438 5.410156 -1.296875 6.109375 -1.296875 C 6.609375 -1.296875 7.097656 -1.359375 7.578125 -1.484375 C 8.054688 -1.617188 8.472656 -1.816406 8.828125 -2.078125 C 9.191406 -2.335938 9.429688 -2.660156 9.546875 -3.046875 L 9.5625 -3.0625 L 5.5625 -3.0625 L 5.5625 -4.296875 L 11.5 -4.296875 L 11.5 -4.078125 C 11.5 -3.367188 11.363281 -2.742188 11.09375 -2.203125 C 10.820312 -1.671875 10.441406 -1.226562 9.953125 -0.875 C 9.460938 -0.519531 8.890625 -0.25 8.234375 -0.0625 C 7.578125 0.113281 6.867188 0.203125 6.109375 0.203125 Z M 6.109375 0.203125 "/></g></g></g><g fill="#000000" fill-opacity="1"><g transform="translate(154.818282, 210.974225)"><g><path d="M 5.78125 0.203125 C 4.59375 0.203125 3.628906 0.0507812 2.890625 -0.25 C 2.160156 -0.550781 1.628906 -0.992188 1.296875 -1.578125 C 0.960938 -2.171875 0.796875 -2.90625 0.796875 -3.78125 L 0.796875 -8.109375 L 2.890625 -8.109375 L 2.890625 -3.796875 C 2.890625 -2.117188 3.851562 -1.28125 5.78125 -1.28125 C 7.707031 -1.28125 8.671875 -2.117188 8.671875 -3.796875 L 8.671875 -8.109375 L 10.765625 -8.109375 L 10.765625 -3.765625 C 10.765625 -2.910156 10.597656 -2.1875 10.265625 -1.59375 C 9.941406 -1 9.414062 -0.550781 8.6875 -0.25 C 7.957031 0.0507812 6.988281 0.203125 5.78125 0.203125 Z M 5.78125 0.203125 "/></g></g></g><g fill="#000000" fill-opacity="1"><g transform="translate(168.570654, 210.974225)"><g><path d="M 1.109375 0 L 1.109375 -8.109375 L 6.71875 -8.109375 C 7.644531 -8.109375 8.390625 -8.003906 8.953125 -7.796875 C 9.523438 -7.597656 9.9375 -7.316406 10.1875 -6.953125 C 10.445312 -6.597656 10.578125 -6.1875 10.578125 -5.71875 C 10.578125 -5.132812 10.382812 -4.65625 10 -4.28125 C 9.625 -3.914062 9.113281 -3.671875 8.46875 -3.546875 L 8.46875 -3.53125 C 8.769531 -3.46875 9.019531 -3.378906 9.21875 -3.265625 C 9.425781 -3.160156 9.597656 -3 9.734375 -2.78125 C 9.867188 -2.5625 9.976562 -2.25 10.0625 -1.84375 L 10.203125 -1.296875 C 10.285156 -0.972656 10.351562 -0.71875 10.40625 -0.53125 C 10.46875 -0.351562 10.546875 -0.175781 10.640625 0 L 8.46875 0 C 8.425781 -0.101562 8.375 -0.234375 8.3125 -0.390625 C 8.257812 -0.554688 8.191406 -0.816406 8.109375 -1.171875 L 7.96875 -1.765625 C 7.925781 -1.984375 7.835938 -2.15625 7.703125 -2.28125 C 7.566406 -2.414062 7.359375 -2.515625 7.078125 -2.578125 C 6.796875 -2.640625 6.410156 -2.671875 5.921875 -2.671875 L 3.203125 -2.671875 L 3.203125 0 Z M 3.203125 -4.125 L 6.546875 -4.125 C 7.148438 -4.125 7.617188 -4.226562 7.953125 -4.4375 C 8.296875 -4.65625 8.46875 -4.988281 8.46875 -5.4375 C 8.46875 -5.789062 8.328125 -6.070312 8.046875 -6.28125 C 7.773438 -6.488281 7.316406 -6.59375 6.671875 -6.59375 L 3.203125 -6.59375 Z M 3.203125 -4.125 "/></g></g></g><g fill="#000000" fill-opacity="1"><g transform="translate(181.918917, 210.974225)"><g><path d="M 0.09375 0 L 4.328125 -8.109375 L 7.09375 -8.109375 L 11.375 0 L 9.046875 0 L 8.1875 -1.796875 L 3.265625 -1.796875 L 2.390625 0 Z M 3.9375 -3.171875 L 7.515625 -3.171875 L 5.828125 -6.671875 L 5.734375 -6.859375 L 5.71875 -6.859375 L 5.640625 -6.671875 Z M 3.9375 -3.171875 "/></g></g></g><g fill="#000000" fill-opacity="1"><g transform="translate(195.551152, 210.974225)"><g/></g></g><g fill="#000000" fill-opacity="1"><g transform="translate(202.662979, 210.974225)"><g><path d="M 6.140625 0.203125 C 4.960938 0.203125 3.945312 0.0390625 3.09375 -0.28125 C 2.238281 -0.613281 1.578125 -1.097656 1.109375 -1.734375 C 0.648438 -2.367188 0.421875 -3.140625 0.421875 -4.046875 C 0.421875 -4.960938 0.648438 -5.734375 1.109375 -6.359375 C 1.578125 -6.992188 2.238281 -7.472656 3.09375 -7.796875 C 3.945312 -8.128906 4.960938 -8.296875 6.140625 -8.296875 C 7.304688 -8.296875 8.316406 -8.128906 9.171875 -7.796875 C 10.023438 -7.472656 10.679688 -6.992188 11.140625 -6.359375 C 11.609375 -5.734375 11.84375 -4.960938 11.84375 -4.046875 C 11.84375 -3.140625 11.609375 -2.367188 11.140625 -1.734375 C 10.679688 -1.097656 10.023438 -0.613281 9.171875 -0.28125 C 8.316406 0.0390625 7.304688 0.203125 6.140625 0.203125 Z M 2.53125 -4.046875 C 2.53125 -3.460938 2.679688 -2.960938 2.984375 -2.546875 C 3.285156 -2.140625 3.707031 -1.828125 4.25 -1.609375 C 4.789062 -1.390625 5.421875 -1.28125 6.140625 -1.28125 C 6.847656 -1.28125 7.472656 -1.390625 8.015625 -1.609375 C 8.554688 -1.828125 8.976562 -2.144531 9.28125 -2.5625 C 9.582031 -2.976562 9.734375 -3.472656 9.734375 -4.046875 C 9.734375 -4.628906 9.582031 -5.125 9.28125 -5.53125 C 8.976562 -5.945312 8.554688 -6.265625 8.015625 -6.484375 C 7.472656 -6.703125 6.847656 -6.8125 6.140625 -6.8125 C 5.421875 -6.8125 4.789062 -6.707031 4.25 -6.5 C 3.707031 -6.289062 3.285156 -5.976562 2.984375 -5.5625 C 2.679688 -5.15625 2.53125 -4.648438 2.53125 -4.046875 Z M 2.53125 -4.046875 "/></g></g></g><g fill="#000000" fill-opacity="1"><g transform="translate(217.11436, 210.974225)"><g><path d="M 1.109375 0 L 1.109375 -8.109375 L 6.71875 -8.109375 C 7.644531 -8.109375 8.390625 -8.003906 8.953125 -7.796875 C 9.523438 -7.597656 9.9375 -7.316406 10.1875 -6.953125 C 10.445312 -6.597656 10.578125 -6.1875 10.578125 -5.71875 C 10.578125 -5.132812 10.382812 -4.65625 10 -4.28125 C 9.625 -3.914062 9.113281 -3.671875 8.46875 -3.546875 L 8.46875 -3.53125 C 8.769531 -3.46875 9.019531 -3.378906 9.21875 -3.265625 C 9.425781 -3.160156 9.597656 -3 9.734375 -2.78125 C 9.867188 -2.5625 9.976562 -2.25 10.0625 -1.84375 L 10.203125 -1.296875 C 10.285156 -0.972656 10.351562 -0.71875 10.40625 -0.53125 C 10.46875 -0.351562 10.546875 -0.175781 10.640625 0 L 8.46875 0 C 8.425781 -0.101562 8.375 -0.234375 8.3125 -0.390625 C 8.257812 -0.554688 8.191406 -0.816406 8.109375 -1.171875 L 7.96875 -1.765625 C 7.925781 -1.984375 7.835938 -2.15625 7.703125 -2.28125 C 7.566406 -2.414062 7.359375 -2.515625 7.078125 -2.578125 C 6.796875 -2.640625 6.410156 -2.671875 5.921875 -2.671875 L 3.203125 -2.671875 L 3.203125 0 Z M 3.203125 -4.125 L 6.546875 -4.125 C 7.148438 -4.125 7.617188 -4.226562 7.953125 -4.4375 C 8.296875 -4.65625 8.46875 -4.988281 8.46875 -5.4375 C 8.46875 -5.789062 8.328125 -6.070312 8.046875 -6.28125 C 7.773438 -6.488281 7.316406 -6.59375 6.671875 -6.59375 L 3.203125 -6.59375 Z M 3.203125 -4.125 "/></g></g></g><g fill="#000000" fill-opacity="1"><g transform="translate(230.462622, 210.974225)"><g><path d="M 3.890625 0 L 3.890625 -6.59375 L 0.078125 -6.59375 L 0.078125 -8.109375 L 9.78125 -8.109375 L 9.78125 -6.59375 L 5.96875 -6.59375 L 5.96875 0 Z M 3.890625 0 "/></g></g></g><g fill="#000000" fill-opacity="1"><g transform="translate(242.511179, 210.974225)"><g><path d="M 1.109375 0 L 1.109375 -8.109375 L 3.203125 -8.109375 L 3.203125 0 Z M 1.109375 0 "/></g></g></g><g fill="#000000" fill-opacity="1"><g transform="translate(249.000459, 210.974225)"><g><path d="M 0.34375 0 L 0.34375 -1.4375 L 6.59375 -6.515625 L 0.703125 -6.515625 L 0.703125 -8.109375 L 9.515625 -8.109375 L 9.515625 -6.6875 L 3.28125 -1.609375 L 9.75 -1.609375 L 9.75 0 Z M 0.34375 0 "/></g></g></g></svg>