<svg xmlns="http://www.w3.org/2000/svg" xmlns:xlink="http://www.w3.org/1999/xlink" width="500" zoomAndPan="magnify" viewBox="0 0 375 374.999991" height="500" preserveAspectRatio="xMidYMid meet" version="1.0"><defs><g/><clipPath id="3b35c82250"><path d="M 49 119 L 188 119 L 188 257.726562 L 49 257.726562 Z M 49 119 " clip-rule="nonzero"/></clipPath><clipPath id="bdc534ff3f"><path d="M 24.859375 155 L 216.109375 155 L 216.109375 205 L 24.859375 205 Z M 24.859375 155 " clip-rule="nonzero"/></clipPath><clipPath id="c75ac571f8"><path d="M 173 117.476562 L 207 117.476562 L 207 151 L 173 151 Z M 173 117.476562 " clip-rule="nonzero"/></clipPath></defs><g clip-path="url(#3b35c82250)"><path fill="#000000" d="M 52.285156 175.089844 C 52.226562 176.425781 52.191406 177.769531 52.207031 179.117188 C 51.921875 179.664062 51.652344 180.21875 51.410156 180.777344 C 51.621094 178.855469 51.921875 176.953125 52.285156 175.089844 Z M 79.734375 132.96875 C 78.515625 134.332031 77.410156 135.851562 76.402344 137.503906 C 74.105469 138.65625 71.992188 139.90625 70.070312 141.25 C 73.019531 138.207031 76.257812 135.417969 79.734375 132.96875 Z M 167.578125 141.242188 C 165.65625 139.898438 163.535156 138.636719 161.238281 137.496094 C 160.230469 135.824219 159.105469 134.296875 157.875 132.921875 C 161.027344 135.140625 164.015625 137.640625 166.789062 140.414062 C 167.058594 140.675781 167.320312 140.964844 167.578125 141.242188 Z M 185.441406 179.105469 C 185.46875 177.742188 185.429688 176.398438 185.363281 175.050781 C 185.726562 176.914062 186.007812 178.789062 186.21875 180.691406 C 185.988281 180.164062 185.726562 179.625 185.441406 179.105469 Z M 185.171875 202.566406 C 185.027344 200.003906 184.304688 197.503906 183.039062 195.074219 C 184.304688 190.605469 185.085938 186.0625 185.34375 181.515625 C 186.027344 183.152344 186.4375 184.8125 186.621094 186.496094 C 186.632812 187.117188 186.660156 187.753906 186.660156 188.386719 C 186.660156 193.210938 186.152344 197.957031 185.171875 202.566406 Z M 165.261719 237.808594 C 165.425781 237.570312 165.570312 237.320312 165.714844 237.070312 C 166.253906 236.664062 166.773438 236.242188 167.300781 235.820312 C 167.128906 235.992188 166.964844 236.1875 166.789062 236.359375 C 166.292969 236.859375 165.773438 237.328125 165.261719 237.808594 Z M 70.308594 235.78125 C 70.839844 236.214844 71.367188 236.648438 71.90625 237.050781 C 72.050781 237.300781 72.203125 237.550781 72.367188 237.800781 C 71.855469 237.320312 71.347656 236.847656 70.847656 236.359375 C 70.664062 236.167969 70.492188 235.972656 70.308594 235.78125 Z M 59.019531 172.398438 C 59.078125 176.820312 59.636719 181.355469 60.730469 185.984375 C 60.816406 186.332031 60.902344 186.675781 60.992188 187.023438 C 60.375 187.5625 59.789062 188.109375 59.230469 188.664062 C 57.542969 190.355469 56.148438 192.105469 55.070312 193.882812 C 53.851562 189.320312 53.160156 184.6875 53.007812 180.046875 C 54.378906 177.355469 56.40625 174.792969 59.019531 172.398438 Z M 55.273438 164.636719 C 56.589844 162.101562 58.503906 159.699219 60.933594 157.46875 C 59.710938 161.773438 59.070312 166.28125 59.011719 170.921875 C 58.347656 171.496094 57.714844 172.082031 57.117188 172.667969 C 55.445312 174.351562 54.074219 176.058594 52.96875 177.820312 C 52.976562 175.167969 53.167969 172.523438 53.535156 169.902344 C 54.042969 168.113281 54.628906 166.355469 55.273438 164.636719 Z M 65.621094 146.34375 C 65.160156 147.140625 64.71875 147.957031 64.304688 148.785156 C 63.785156 149.234375 63.285156 149.675781 62.816406 150.148438 C 63.710938 148.839844 64.640625 147.5625 65.621094 146.34375 Z M 73.863281 142.527344 C 70.820312 144.074219 68.109375 145.765625 65.773438 147.582031 C 66.515625 146.226562 67.332031 144.902344 68.207031 143.605469 C 70.378906 141.828125 72.894531 140.183594 75.691406 138.714844 C 75.027344 139.925781 74.414062 141.195312 73.863281 142.527344 Z M 88.402344 133.640625 C 87.824219 134.84375 87.304688 136.128906 86.84375 137.484375 C 84.902344 138.050781 83.019531 138.675781 81.195312 139.347656 C 78.964844 140.183594 76.882812 141.070312 74.921875 142.019531 C 75.527344 140.628906 76.199219 139.3125 76.9375 138.070312 C 80.386719 136.359375 84.242188 134.871094 88.402344 133.640625 Z M 83.125 130.710938 C 84.117188 130.097656 85.117188 129.511719 86.132812 128.953125 C 88.410156 127.90625 90.878906 126.972656 93.492188 126.175781 C 91.6875 128.023438 90.140625 130.203125 88.84375 132.730469 C 84.828125 133.890625 81.070312 135.285156 77.679688 136.878906 C 79.246094 134.496094 81.070312 132.429688 83.125 130.710938 Z M 94.675781 125.042969 C 94.503906 125.082031 94.328125 125.128906 94.15625 125.1875 C 94.367188 125.101562 94.578125 125.023438 94.789062 124.945312 C 94.753906 124.976562 94.714844 125.003906 94.675781 125.042969 Z M 106.289062 122.660156 C 102.8125 123.113281 99.460938 123.765625 96.28125 124.601562 C 96.300781 124.535156 96.308594 124.457031 96.300781 124.390625 C 99.816406 123.152344 103.457031 122.191406 107.214844 121.546875 C 106.886719 121.882812 106.578125 122.257812 106.289062 122.660156 Z M 141.367188 124.582031 C 138.1875 123.746094 134.835938 123.09375 131.347656 122.640625 C 131.070312 122.246094 130.773438 121.882812 130.453125 121.546875 C 134.171875 122.191406 137.824219 123.121094 141.359375 124.359375 C 141.339844 124.4375 141.339844 124.503906 141.367188 124.582031 Z M 142.933594 125.003906 C 142.90625 124.976562 142.867188 124.945312 142.828125 124.910156 C 143.039062 124.996094 143.261719 125.070312 143.472656 125.160156 C 143.300781 125.109375 143.117188 125.054688 142.933594 125.003906 Z M 162.726562 142 C 160.765625 141.058594 158.683594 140.164062 156.460938 139.339844 C 154.628906 138.667969 152.746094 138.042969 150.8125 137.476562 C 150.351562 136.121094 149.824219 134.84375 149.246094 133.621094 C 153.40625 134.863281 157.261719 136.34375 160.699219 138.0625 C 161.449219 139.300781 162.121094 140.617188 162.726562 142 Z M 169.421875 143.578125 C 170.308594 144.875 171.125 146.199219 171.863281 147.554688 C 169.527344 145.746094 166.828125 144.058594 163.785156 142.519531 C 163.234375 141.183594 162.621094 139.90625 161.949219 138.695312 C 164.746094 140.175781 167.253906 141.800781 169.421875 143.578125 Z M 173.324219 148.753906 C 172.910156 147.910156 172.460938 147.082031 171.988281 146.257812 C 172.996094 147.535156 173.96875 148.832031 174.878906 150.15625 C 174.382812 149.6875 173.863281 149.207031 173.324219 148.753906 Z M 180.550781 172.667969 C 179.945312 172.074219 179.308594 171.496094 178.648438 170.910156 C 178.578125 166.222656 177.925781 161.675781 176.6875 157.335938 C 179.117188 159.582031 181.03125 162.003906 182.363281 164.570312 C 183.027344 166.335938 183.613281 168.132812 184.125 169.960938 C 184.488281 172.5625 184.671875 175.175781 184.679688 177.808594 C 183.585938 176.050781 182.210938 174.339844 180.550781 172.667969 Z M 178.203125 188.664062 C 177.707031 188.15625 177.167969 187.667969 176.621094 187.1875 C 176.726562 186.78125 176.832031 186.378906 176.917969 185.984375 C 178.023438 181.355469 178.578125 176.820312 178.628906 172.410156 C 179.011719 172.753906 179.386719 173.109375 179.742188 173.476562 C 181.867188 175.589844 183.5 177.789062 184.652344 180.039062 C 184.496094 184.753906 183.777344 189.480469 182.507812 194.132812 C 181.414062 192.257812 179.972656 190.433594 178.203125 188.664062 Z M 179.714844 202.261719 C 178.675781 200.511719 177.320312 198.820312 175.679688 197.167969 C 175.121094 196.621094 174.542969 196.09375 173.9375 195.554688 C 174.898438 193.046875 175.734375 190.53125 176.417969 188.003906 C 176.839844 188.398438 177.261719 188.789062 177.675781 189.195312 C 179.609375 191.125 181.125 193.125 182.230469 195.160156 C 181.539062 197.554688 180.695312 199.925781 179.714844 202.261719 Z M 184.390625 204.894531 C 183.75 206.621094 183.046875 208.273438 182.289062 209.871094 C 182.066406 207.554688 181.367188 205.285156 180.175781 203.078125 C 181.164062 200.789062 182.019531 198.484375 182.730469 196.140625 C 183.875 198.550781 184.449219 201.03125 184.449219 203.558594 C 184.449219 204 184.429688 204.453125 184.390625 204.894531 Z M 182.355469 211.4375 C 182.703125 210.761719 183.027344 210.070312 183.355469 209.371094 C 183.027344 210.359375 182.691406 211.332031 182.328125 212.308594 C 182.347656 212.011719 182.355469 211.734375 182.355469 211.4375 Z M 152.800781 243.296875 C 153.261719 242.199219 153.503906 241.085938 153.542969 239.933594 C 157.953125 237.636719 162.535156 234.6875 166.886719 230.96875 C 166.761719 232.863281 166.167969 234.734375 165.148438 236.550781 C 161.324219 239.367188 157.097656 241.59375 152.800781 243.296875 Z M 146.222656 250.460938 C 146.164062 250.480469 146.105469 250.511719 146.046875 250.519531 C 147.039062 249.886719 147.949219 249.234375 148.765625 248.53125 C 150.160156 248.117188 151.542969 247.617188 152.886719 247.070312 C 150.726562 248.320312 148.507812 249.453125 146.222656 250.460938 Z M 88.804688 248.503906 C 89.59375 249.195312 90.476562 249.847656 91.4375 250.460938 C 91.417969 250.460938 91.398438 250.453125 91.378906 250.445312 C 89.113281 249.445312 86.882812 248.3125 84.730469 247.050781 C 86.058594 247.601562 87.421875 248.089844 88.804688 248.503906 Z M 70.761719 230.96875 C 75.113281 234.675781 79.695312 237.625 84.105469 239.921875 C 84.136719 241.066406 84.375 242.191406 84.828125 243.285156 C 80.542969 241.574219 76.316406 239.355469 72.492188 236.542969 C 71.472656 234.726562 70.875 232.851562 70.761719 230.96875 Z M 55.285156 211.40625 C 55.285156 211.703125 55.300781 211.992188 55.3125 212.300781 C 54.9375 211.300781 54.589844 210.300781 54.265625 209.292969 C 54.589844 210.015625 54.929688 210.726562 55.285156 211.40625 Z M 63.710938 195.542969 C 63.105469 196.082031 62.519531 196.609375 61.96875 197.167969 C 60.316406 198.8125 58.984375 200.511719 57.945312 202.242188 C 56.925781 199.828125 56.0625 197.378906 55.351562 194.902344 C 56.742188 192.414062 58.722656 190.050781 61.203125 187.839844 C 61.882812 190.414062 62.730469 192.988281 63.710938 195.542969 Z M 71.894531 180.769531 C 72.433594 183.46875 73.085938 186.1875 73.855469 188.894531 C 70.234375 190.710938 67.023438 192.769531 64.324219 195.027344 C 63.34375 192.449219 62.507812 189.867188 61.835938 187.292969 C 64.632812 184.898438 68.015625 182.71875 71.894531 180.769531 Z M 71.492188 150.300781 C 70.703125 153.933594 70.234375 157.855469 70.148438 162.050781 C 70.128906 162.582031 70.136719 163.109375 70.136719 163.636719 C 66.207031 165.597656 62.71875 167.816406 59.789062 170.257812 C 59.914062 165.492188 60.652344 160.890625 62.019531 156.5 C 64.679688 154.242188 67.871094 152.164062 71.492188 150.300781 Z M 71.710938 149.285156 C 68.1875 151.070312 65.074219 153.039062 62.441406 155.152344 C 63.144531 153.125 63.96875 151.148438 64.929688 149.214844 C 67.351562 147.140625 70.234375 145.238281 73.488281 143.527344 C 72.796875 145.34375 72.191406 147.265625 71.710938 149.285156 Z M 85.125 144.074219 C 82.367188 144.882812 79.714844 145.796875 77.21875 146.796875 C 75.613281 147.449219 74.078125 148.128906 72.605469 148.839844 C 73.125 146.796875 73.75 144.835938 74.488281 143.007812 C 78.101562 141.195312 82.164062 139.617188 86.558594 138.3125 C 85.988281 140.109375 85.5 142.03125 85.125 144.074219 Z M 101.988281 135.015625 C 101.6875 136.824219 101.4375 138.714844 101.257812 140.664062 C 95.90625 141.40625 90.753906 142.460938 85.933594 143.835938 C 86.335938 141.769531 86.835938 139.847656 87.441406 138.050781 C 91.976562 136.746094 96.855469 135.726562 101.988281 135.015625 Z M 102.910156 130.558594 C 102.609375 131.730469 102.351562 132.960938 102.113281 134.257812 C 97.105469 134.9375 92.273438 135.929688 87.730469 137.214844 C 88.21875 135.851562 88.757812 134.566406 89.363281 133.355469 C 93.597656 132.152344 98.152344 131.210938 102.910156 130.558594 Z M 118.445312 128.742188 C 113.457031 128.75 108.566406 129.070312 103.890625 129.664062 C 104.628906 127.117188 105.5625 124.976562 106.675781 123.371094 C 110.488281 122.871094 114.429688 122.613281 118.445312 122.59375 Z M 133.769531 129.664062 C 129.082031 129.070312 124.191406 128.75 119.195312 128.742188 L 119.195312 122.59375 C 123.230469 122.601562 127.167969 122.863281 130.953125 123.34375 C 132.085938 124.957031 133.011719 127.097656 133.769531 129.664062 Z M 135.535156 134.246094 C 135.304688 132.960938 135.046875 131.71875 134.738281 130.546875 C 139.503906 131.203125 144.050781 132.144531 148.285156 133.34375 C 148.890625 134.554688 149.4375 135.851562 149.929688 137.214844 C 145.375 135.917969 140.550781 134.929688 135.535156 134.246094 Z M 151.714844 143.808594 C 146.933594 142.453125 141.792969 141.386719 136.402344 140.644531 C 136.210938 138.695312 135.96875 136.8125 135.660156 135.015625 C 140.800781 135.71875 145.683594 136.746094 150.21875 138.042969 C 150.8125 139.839844 151.3125 141.75 151.714844 143.808594 Z M 165.042969 148.792969 C 161.265625 146.96875 157.066406 145.375 152.523438 144.046875 C 152.140625 142 151.667969 140.097656 151.09375 138.300781 C 155.492188 139.617188 159.546875 141.183594 163.160156 142.992188 C 163.898438 144.816406 164.523438 146.757812 165.042969 148.792969 Z M 165.9375 149.226562 C 165.445312 147.21875 164.851562 145.316406 164.160156 143.519531 C 167.414062 145.21875 170.289062 147.121094 172.710938 149.195312 C 173.660156 151.097656 174.496094 153.070312 175.1875 155.078125 C 172.535156 152.953125 169.421875 150.984375 165.9375 149.226562 Z M 167.519531 163.628906 C 167.519531 163.109375 167.519531 162.582031 167.511719 162.050781 C 167.414062 157.804688 166.945312 153.828125 166.136719 150.15625 C 169.75 152.011719 172.941406 154.097656 175.589844 156.363281 C 176.976562 160.804688 177.742188 165.445312 177.867188 170.246094 C 174.929688 167.816406 171.449219 165.597656 167.519531 163.628906 Z M 163.792969 188.894531 C 164.5625 186.214844 165.207031 183.535156 165.734375 180.875 C 169.625 182.84375 172.996094 185.042969 175.773438 187.445312 C 175.109375 189.972656 174.292969 192.519531 173.332031 195.035156 C 170.625 192.769531 167.414062 190.722656 163.792969 188.894531 Z M 170.066406 202.492188 C 167.550781 200.386719 164.570312 198.476562 161.207031 196.785156 C 162.09375 194.410156 162.878906 192.027344 163.582031 189.625 C 167.195312 191.453125 170.375 193.507812 173.046875 195.777344 C 172.160156 198.035156 171.171875 200.273438 170.066406 202.492188 Z M 176.167969 209.457031 C 175.179688 207.765625 173.882812 206.113281 172.277344 204.5 C 171.769531 203.988281 171.210938 203.492188 170.652344 203 C 171.769531 200.789062 172.757812 198.550781 173.652344 196.304688 C 174.160156 196.765625 174.667969 197.226562 175.140625 197.695312 C 176.898438 199.464844 178.292969 201.269531 179.339844 203.136719 C 178.398438 205.269531 177.351562 207.382812 176.167969 209.457031 Z M 137.054688 245.160156 C 136.996094 244.59375 136.84375 244.027344 136.59375 243.46875 C 142.050781 241.363281 147.152344 238.800781 151.851562 235.800781 C 152.445312 236.992188 152.753906 238.222656 152.78125 239.480469 C 146.882812 242.507812 141.3125 244.332031 137.054688 245.160156 Z M 136.777344 247.398438 C 136.949219 246.925781 137.046875 246.425781 137.074219 245.929688 C 141.3125 245.101562 146.855469 243.316406 152.761719 240.328125 C 152.675781 241.460938 152.359375 242.585938 151.820312 243.671875 C 146.644531 245.621094 141.4375 246.839844 136.777344 247.398438 Z M 132.953125 251.664062 C 133.617188 251.25 134.210938 250.800781 134.730469 250.328125 C 138.613281 250.585938 142.820312 250.117188 146.96875 249.039062 C 145.835938 249.867188 144.550781 250.644531 143.15625 251.347656 C 139.945312 252.125 137.363281 252.144531 132.953125 251.664062 Z M 109.691406 253.804688 C 112.410156 254.59375 115.542969 255.046875 118.820312 255.046875 C 120.441406 255.046875 122.007812 254.941406 123.5 254.746094 C 124 255.238281 124.515625 255.640625 125.046875 255.9375 C 122.988281 256.121094 120.914062 256.226562 118.820312 256.226562 C 114.226562 256.226562 109.703125 255.765625 105.292969 254.882812 C 106.828125 254.746094 108.25 254.390625 109.691406 253.804688 Z M 102.949219 250.328125 C 103.464844 250.800781 104.0625 251.25 104.726562 251.664062 C 100.285156 252.144531 97.703125 252.125 94.472656 251.335938 C 93.082031 250.636719 91.800781 249.867188 90.667969 249.03125 C 94.828125 250.117188 99.054688 250.585938 102.949219 250.328125 Z M 100.574219 245.929688 C 100.601562 246.417969 100.699219 246.917969 100.871094 247.398438 C 96.210938 246.832031 90.996094 245.621094 85.816406 243.660156 C 85.277344 242.574219 84.960938 241.460938 84.886719 240.328125 C 90.785156 243.304688 96.328125 245.101562 100.574219 245.929688 Z M 85.789062 235.78125 C 90.496094 238.800781 95.597656 241.363281 101.054688 243.457031 C 100.796875 244.015625 100.640625 244.582031 100.582031 245.160156 C 96.328125 244.324219 90.765625 242.496094 84.855469 239.472656 C 84.886719 238.203125 85.210938 236.972656 85.789062 235.78125 Z M 61.058594 210.207031 C 59.953125 212.28125 59.308594 214.414062 59.136719 216.605469 C 58.03125 214.894531 56.992188 213.128906 56.042969 211.242188 C 56.070312 208.746094 56.695312 206.316406 57.859375 203.980469 C 58.808594 206.09375 59.875 208.167969 61.058594 210.207031 Z M 67.003906 202.992188 C 66.429688 203.492188 65.878906 203.988281 65.363281 204.5 C 63.765625 206.105469 62.46875 207.757812 61.480469 209.445312 C 60.308594 207.371094 59.25 205.269531 58.320312 203.136719 C 59.664062 200.722656 61.585938 198.4375 63.996094 196.304688 C 64.890625 198.542969 65.890625 200.78125 67.003906 202.992188 Z M 76.449219 196.773438 C 73.078125 198.464844 70.097656 200.378906 67.582031 202.480469 C 66.476562 200.273438 65.488281 198.023438 64.601562 195.777344 C 67.246094 193.546875 70.433594 191.492188 74.078125 189.65625 C 74.777344 192.039062 75.566406 194.421875 76.449219 196.773438 Z M 87.152344 184.609375 C 87.671875 187.042969 88.257812 189.5 88.910156 191.972656 C 84.625 193.210938 80.675781 194.707031 77.121094 196.4375 C 76.246094 194.074219 75.460938 191.703125 74.757812 189.320312 C 78.46875 187.511719 82.636719 185.925781 87.152344 184.609375 Z M 85.460938 175.523438 C 85.882812 178.25 86.382812 181.027344 86.980469 183.84375 C 82.472656 185.148438 78.292969 186.726562 74.546875 188.558594 C 73.777344 185.839844 73.125 183.121094 72.585938 180.421875 C 76.449219 178.539062 80.773438 176.886719 85.460938 175.523438 Z M 84.011719 159.488281 C 84.105469 164.289062 84.558594 169.410156 85.347656 174.742188 C 80.667969 176.097656 76.335938 177.730469 72.433594 179.632812 C 71.453125 174.484375 70.933594 169.410156 70.875 164.539062 C 74.804688 162.601562 79.214844 160.910156 84.011719 159.488281 Z M 84.269531 150.40625 C 84.050781 152.914062 83.960938 155.558594 83.980469 158.296875 C 79.253906 159.679688 74.855469 161.351562 70.886719 163.261719 C 70.886719 162.867188 70.886719 162.464844 70.894531 162.070312 C 70.992188 157.699219 71.492188 153.605469 72.355469 149.859375 C 76.152344 147.988281 80.378906 146.332031 84.972656 144.949219 C 84.671875 146.6875 84.433594 148.496094 84.269531 150.40625 Z M 100.691406 154.796875 C 95.078125 155.558594 89.726562 156.664062 84.730469 158.074219 C 84.710938 155.472656 84.808594 152.925781 85.019531 150.464844 C 85.191406 148.457031 85.453125 146.535156 85.769531 144.730469 C 90.582031 143.316406 95.761719 142.210938 101.179688 141.453125 C 100.804688 145.757812 100.660156 150.332031 100.691406 154.796875 Z M 118.445312 140.222656 L 118.445312 153.605469 C 112.566406 153.625 106.820312 154.011719 101.304688 154.722656 C 101.296875 149.957031 101.46875 145.449219 101.84375 141.355469 C 107.183594 140.644531 112.746094 140.253906 118.445312 140.222656 Z M 118.445312 133.890625 L 118.445312 139.472656 C 112.84375 139.492188 107.289062 139.867188 101.917969 140.570312 C 102.121094 138.589844 102.371094 136.6875 102.6875 134.929688 C 107.730469 134.265625 113.015625 133.910156 118.445312 133.890625 Z M 118.445312 133.132812 C 113.101562 133.152344 107.875 133.496094 102.824219 134.152344 C 103.074219 132.855469 103.351562 131.613281 103.660156 130.460938 C 108.414062 129.835938 113.371094 129.511719 118.445312 129.492188 Z M 119.195312 133.132812 L 119.195312 129.492188 C 124.277344 129.511719 129.234375 129.835938 133.988281 130.453125 C 134.308594 131.605469 134.578125 132.84375 134.824219 134.152344 C 129.773438 133.496094 124.535156 133.152344 119.195312 133.132812 Z M 119.195312 139.472656 L 119.195312 133.890625 C 124.632812 133.902344 129.917969 134.257812 134.96875 134.921875 C 135.277344 136.6875 135.527344 138.570312 135.730469 140.550781 C 130.433594 139.859375 124.882812 139.492188 119.195312 139.472656 Z M 136.34375 154.722656 C 130.839844 154 125.082031 153.617188 119.195312 153.605469 L 119.195312 140.222656 C 124.921875 140.242188 130.484375 140.628906 135.804688 141.320312 C 136.191406 145.421875 136.363281 149.945312 136.34375 154.722656 Z M 152.640625 150.464844 C 152.851562 152.925781 152.9375 155.472656 152.917969 158.074219 C 147.929688 156.664062 142.578125 155.558594 136.96875 154.796875 C 136.988281 150.3125 136.851562 145.730469 136.46875 141.40625 C 141.90625 142.15625 147.066406 143.242188 151.859375 144.613281 C 152.195312 146.46875 152.457031 148.417969 152.640625 150.464844 Z M 153.667969 158.296875 C 153.695312 155.558594 153.597656 152.914062 153.386719 150.40625 C 153.214844 148.46875 152.976562 146.621094 152.667969 144.84375 C 157.261719 146.210938 161.488281 147.84375 165.273438 149.714844 C 166.148438 153.511719 166.65625 157.640625 166.761719 162.070312 C 166.773438 162.464844 166.761719 162.867188 166.773438 163.261719 C 162.804688 161.339844 158.402344 159.679688 153.667969 158.296875 Z M 152.292969 174.8125 C 153.101562 169.441406 153.550781 164.289062 153.648438 159.449219 C 158.414062 160.859375 162.824219 162.5625 166.773438 164.519531 C 166.722656 169.421875 166.1875 174.542969 165.207031 179.730469 C 161.316406 177.820312 156.972656 176.175781 152.292969 174.8125 Z M 150.667969 183.851562 C 151.265625 181.054688 151.753906 178.308594 152.175781 175.609375 C 152.746094 175.773438 153.320312 175.925781 153.886719 176.097656 C 157.941406 177.375 161.671875 178.855469 165.042969 180.519531 C 164.515625 183.1875 163.871094 185.878906 163.109375 188.558594 C 159.355469 186.734375 155.183594 185.148438 150.667969 183.851562 Z M 148.746094 191.972656 C 149.402344 189.492188 149.988281 187.023438 150.503906 184.582031 C 155.011719 185.878906 159.171875 187.464844 162.898438 189.289062 C 162.199219 191.683594 161.410156 194.074219 160.535156 196.449219 C 156.980469 194.71875 153.023438 193.210938 148.746094 191.972656 Z M 157.980469 202.75 C 156.460938 206.171875 154.789062 209.476562 152.964844 212.65625 C 150.082031 211.242188 146.875 210.023438 143.40625 209.015625 C 144.433594 206.238281 145.414062 203.375 146.328125 200.453125 C 147.132812 197.851562 147.882812 195.265625 148.566406 192.710938 C 152.8125 193.929688 156.742188 195.421875 160.277344 197.148438 C 159.554688 199.03125 158.808594 200.90625 157.980469 202.75 Z M 160.632812 217.519531 C 158.632812 215.855469 156.28125 214.335938 153.636719 212.992188 C 155.464844 209.804688 157.144531 206.488281 158.671875 203.058594 C 159.488281 201.214844 160.25 199.359375 160.949219 197.484375 C 164.285156 199.175781 167.234375 201.078125 169.710938 203.171875 C 167.203125 208.101562 164.160156 212.914062 160.632812 217.519531 Z M 162.507812 219.21875 C 162.09375 218.804688 161.652344 218.402344 161.199219 218.007812 C 164.726562 213.414062 167.78125 208.613281 170.296875 203.683594 C 170.796875 204.132812 171.289062 204.574219 171.738281 205.039062 C 173.421875 206.71875 174.746094 208.4375 175.726562 210.207031 C 175.464844 210.65625 175.207031 211.109375 174.9375 211.550781 C 172.296875 215.828125 169.222656 219.792969 165.773438 223.425781 C 164.945312 221.976562 163.859375 220.582031 162.507812 219.21875 Z M 149.863281 231.824219 C 149.601562 231.574219 149.324219 231.324219 149.046875 231.082031 C 153.167969 227.421875 157.066406 223.28125 160.59375 218.804688 C 160.640625 218.738281 160.691406 218.660156 160.738281 218.601562 C 161.171875 218.976562 161.582031 219.363281 161.96875 219.746094 C 163.339844 221.121094 164.417969 222.542969 165.226562 223.992188 C 161.332031 228 156.941406 231.582031 152.128906 234.714844 C 151.554688 233.726562 150.792969 232.765625 149.863281 231.824219 Z M 135.074219 241.324219 C 135.019531 241.269531 134.96875 241.230469 134.914062 241.183594 C 139.535156 238.65625 144.117188 235.386719 148.480469 231.582031 C 148.777344 231.832031 149.066406 232.09375 149.332031 232.363281 C 150.226562 233.265625 150.949219 234.1875 151.503906 235.128906 C 146.796875 238.136719 141.695312 240.703125 136.238281 242.796875 C 135.929688 242.285156 135.546875 241.796875 135.074219 241.324219 Z M 89.152344 231.5625 C 93.523438 235.378906 98.113281 238.644531 102.734375 241.171875 C 102.679688 241.230469 102.621094 241.269531 102.574219 241.324219 C 102.101562 241.796875 101.71875 242.285156 101.402344 242.796875 C 95.945312 240.703125 90.851562 238.125 86.144531 235.128906 C 86.875 233.871094 87.890625 232.679688 89.152344 231.5625 Z M 76.902344 218.59375 C 76.957031 218.660156 77.007812 218.738281 77.0625 218.804688 C 80.582031 223.28125 84.480469 227.421875 88.601562 231.074219 C 88.324219 231.324219 88.046875 231.574219 87.777344 231.824219 C 86.84375 232.753906 86.085938 233.726562 85.507812 234.714844 C 80.707031 231.582031 76.316406 227.988281 72.421875 223.992188 C 73.472656 222.089844 74.988281 220.273438 76.902344 218.59375 Z M 76.449219 218 C 75.996094 218.390625 75.554688 218.804688 75.144531 219.21875 C 73.777344 220.574219 72.703125 221.976562 71.875 223.40625 C 68.417969 219.785156 65.351562 215.828125 62.71875 211.550781 C 62.441406 211.109375 62.191406 210.65625 61.921875 210.207031 C 63.199219 207.902344 65.035156 205.71875 67.351562 203.683594 C 69.878906 208.601562 72.921875 213.40625 76.449219 218 Z M 78.984375 203.058594 C 80.503906 206.476562 82.183594 209.792969 84.011719 212.984375 C 81.367188 214.335938 79.015625 215.855469 77.027344 217.507812 C 73.5 212.914062 70.445312 208.101562 67.9375 203.171875 C 70.394531 201.109375 73.347656 199.207031 76.707031 197.515625 C 77.417969 199.378906 78.179688 201.222656 78.984375 203.058594 Z M 91.332031 200.453125 C 92.246094 203.375 93.222656 206.238281 94.242188 209.015625 C 90.773438 210.015625 87.566406 211.242188 84.683594 212.65625 C 82.867188 209.476562 81.1875 206.171875 79.667969 202.75 C 78.851562 200.914062 78.101562 199.050781 77.390625 197.167969 C 80.898438 195.46875 84.828125 193.96875 89.101562 192.738281 C 89.785156 195.285156 90.515625 197.871094 91.332031 200.453125 Z M 103.234375 189.789062 C 103.996094 195.601562 104.878906 201.269531 105.859375 206.585938 C 102.0625 207.101562 98.441406 207.84375 95.050781 208.785156 C 93.136719 203.632812 91.378906 198.148438 89.882812 192.519531 C 94.042969 191.347656 98.519531 190.433594 103.234375 189.789062 Z M 102.253906 181.46875 C 102.515625 183.996094 102.8125 186.53125 103.128906 189.03125 C 98.414062 189.664062 93.898438 190.578125 89.679688 191.757812 C 89.035156 189.328125 88.449219 186.867188 87.921875 184.398438 C 92.378906 183.152344 97.191406 182.152344 102.253906 181.46875 Z M 101.410156 172.1875 C 101.542969 173.945312 101.679688 175.5625 101.8125 176.984375 C 101.917969 178.222656 102.042969 179.472656 102.179688 180.710938 C 97.105469 181.382812 92.261719 182.371094 87.746094 183.632812 C 87.160156 180.855469 86.644531 178.078125 86.21875 175.300781 C 90.949219 173.964844 96.050781 172.917969 101.410156 172.1875 Z M 101.363281 171.4375 C 96 172.148438 90.878906 173.1875 86.105469 174.53125 C 85.316406 169.34375 84.835938 164.203125 84.75 159.265625 C 89.699219 157.84375 95.050781 156.71875 100.699219 155.953125 C 100.746094 161.535156 101.035156 166.933594 101.363281 171.4375 Z M 118.445312 170.296875 C 112.796875 170.304688 107.269531 170.671875 101.96875 171.351562 C 101.582031 166.039062 101.351562 160.824219 101.3125 155.863281 C 106.78125 155.132812 112.527344 154.761719 118.445312 154.742188 Z M 135.679688 171.382812 C 130.386719 170.691406 124.851562 170.316406 119.195312 170.296875 L 119.195312 154.742188 C 125.082031 154.75 130.839844 155.132812 136.34375 155.855469 C 136.304688 160.824219 136.074219 166.050781 135.679688 171.382812 Z M 136.296875 171.457031 C 136.621094 166.941406 136.902344 161.542969 136.957031 155.933594 C 142.570312 156.691406 147.921875 157.804688 152.90625 159.238281 C 152.8125 164.195312 152.332031 169.375 151.542969 174.589844 C 146.777344 173.234375 141.65625 172.179688 136.296875 171.457031 Z M 135.480469 180.710938 C 135.605469 179.472656 135.730469 178.222656 135.84375 176.984375 C 135.96875 175.570312 136.105469 173.976562 136.238281 172.226562 C 141.53125 172.949219 146.632812 174.015625 151.429688 175.386719 C 150.996094 178.136719 150.488281 180.882812 149.902344 183.632812 C 145.386719 182.371094 140.542969 181.382812 135.480469 180.710938 Z M 134.519531 189.03125 C 134.835938 186.523438 135.132812 183.996094 135.402344 181.449219 C 140.4375 182.132812 145.261719 183.101562 149.746094 184.363281 C 149.207031 186.851562 148.621094 189.320312 147.980469 191.757812 C 143.75 190.578125 139.246094 189.664062 134.519531 189.03125 Z M 131.789062 206.585938 C 132.769531 201.261719 133.664062 195.59375 134.421875 189.78125 C 139.109375 190.414062 143.597656 191.316406 147.785156 192.488281 C 146.277344 198.128906 144.511719 203.632812 142.609375 208.792969 C 139.214844 207.84375 135.585938 207.101562 131.789062 206.585938 Z M 135.84375 224.445312 C 133.453125 223.78125 130.894531 223.242188 128.226562 222.871094 C 129.4375 218.296875 130.597656 213.019531 131.664062 207.324219 C 135.410156 207.832031 138.996094 208.5625 142.347656 209.496094 C 140.300781 214.972656 138.082031 220.035156 135.84375 224.445312 Z M 142.984375 227.125 C 141.050781 226.183594 138.929688 225.367188 136.632812 224.675781 C 138.898438 220.21875 141.109375 215.152344 143.144531 209.714844 C 146.578125 210.707031 149.757812 211.917969 152.601562 213.308594 C 149.738281 218.246094 146.507812 222.871094 142.984375 227.125 Z M 143.664062 227.472656 C 147.179688 223.214844 150.410156 218.585938 153.273438 213.644531 C 155.886719 214.972656 158.203125 216.480469 160.171875 218.113281 C 160.113281 218.191406 160.054688 218.257812 160 218.335938 C 156.480469 222.8125 152.582031 226.941406 148.480469 230.585938 C 147.09375 229.441406 145.480469 228.394531 143.664062 227.472656 Z M 136.285156 225.359375 C 138.523438 226.019531 140.609375 226.800781 142.484375 227.703125 C 139.054688 231.777344 135.335938 235.503906 131.375 238.800781 C 130.472656 238.367188 129.484375 237.972656 128.425781 237.644531 C 130.992188 234.628906 133.671875 230.402344 136.285156 225.359375 Z M 128.035156 223.609375 C 130.648438 223.964844 133.152344 224.484375 135.5 225.136719 C 132.835938 230.296875 130.148438 234.515625 127.640625 237.414062 C 126.324219 237.050781 124.921875 236.761719 123.460938 236.570312 C 124.96875 233.660156 126.523438 229.171875 128.035156 223.609375 Z M 119.195312 222.996094 C 121.988281 223.003906 124.71875 223.1875 127.339844 223.511719 C 125.8125 229.085938 124.21875 233.574219 122.652344 236.472656 C 121.539062 236.347656 120.375 236.28125 119.195312 236.273438 Z M 114.996094 236.472656 C 113.429688 233.574219 111.835938 229.085938 110.316406 223.511719 C 112.910156 223.175781 115.640625 223.003906 118.445312 222.984375 L 118.445312 236.273438 C 117.273438 236.28125 116.109375 236.347656 114.996094 236.472656 Z M 110.019531 237.414062 C 107.511719 234.515625 104.820312 230.296875 102.160156 225.136719 C 104.496094 224.492188 106.992188 223.972656 109.625 223.609375 C 111.125 229.179688 112.679688 233.660156 114.199219 236.570312 C 112.726562 236.753906 111.324219 237.039062 110.019531 237.414062 Z M 106.28125 238.800781 C 102.324219 235.503906 98.605469 231.777344 95.164062 227.710938 C 97.046875 226.816406 99.125 226.03125 101.371094 225.359375 C 103.984375 230.402344 106.664062 234.628906 109.222656 237.636719 C 108.164062 237.972656 107.175781 238.355469 106.28125 238.800781 Z M 93.984375 227.460938 C 92.175781 228.394531 90.554688 229.441406 89.171875 230.574219 C 85.066406 226.933594 81.167969 222.8125 77.660156 218.335938 C 77.59375 218.257812 77.535156 218.179688 77.476562 218.105469 C 79.425781 216.488281 81.753906 215 84.386719 213.664062 C 87.25 218.59375 90.46875 223.214844 93.984375 227.460938 Z M 101.015625 224.675781 C 98.730469 225.359375 96.597656 226.175781 94.675781 227.117188 C 91.148438 222.871094 87.929688 218.257812 85.066406 213.328125 C 87.890625 211.945312 91.074219 210.746094 94.511719 209.746094 C 96.546875 215.164062 98.757812 220.226562 101.015625 224.675781 Z M 109.421875 222.871094 C 106.753906 223.242188 104.207031 223.78125 101.8125 224.445312 C 99.574219 220.035156 97.367188 214.972656 95.320312 209.503906 C 98.652344 208.582031 102.226562 207.851562 105.992188 207.332031 C 107.058594 213.019531 108.222656 218.296875 109.421875 222.871094 Z M 118.445312 206.476562 L 118.445312 222.234375 C 115.582031 222.253906 112.796875 222.445312 110.113281 222.78125 C 108.894531 218.210938 107.714844 212.933594 106.636719 207.246094 C 110.414062 206.757812 114.371094 206.496094 118.445312 206.476562 Z M 118.445312 188.753906 L 118.445312 205.730469 C 114.34375 205.738281 110.335938 206.007812 106.503906 206.496094 C 105.503906 201.175781 104.609375 195.496094 103.851562 189.703125 C 108.519531 189.097656 113.410156 188.769531 118.445312 188.753906 Z M 118.445312 180.363281 L 118.445312 188.003906 C 113.402344 188.011719 108.480469 188.339844 103.753906 188.945312 C 103.429688 186.445312 103.128906 183.917969 102.859375 181.375 C 107.847656 180.738281 113.0625 180.382812 118.445312 180.363281 Z M 118.445312 179.613281 C 113.074219 179.625 107.820312 179.96875 102.785156 180.625 C 102.496094 177.78125 102.238281 174.925781 102.023438 172.113281 C 107.269531 171.429688 112.777344 171.0625 118.445312 171.046875 Z M 119.195312 179.613281 L 119.195312 171.054688 C 124.785156 171.074219 130.300781 171.457031 135.625 172.148438 C 135.421875 174.957031 135.164062 177.789062 134.863281 180.625 C 129.828125 179.96875 124.574219 179.625 119.195312 179.613281 Z M 119.195312 188.003906 L 119.195312 180.363281 C 124.554688 180.382812 129.78125 180.71875 134.796875 181.363281 C 134.527344 183.910156 134.230469 186.445312 133.902344 188.953125 C 129.175781 188.339844 124.246094 188.011719 119.195312 188.003906 Z M 119.195312 205.730469 L 119.195312 188.753906 C 124.210938 188.761719 129.109375 189.089844 133.808594 189.695312 C 133.046875 195.496094 132.144531 201.175781 131.15625 206.507812 C 127.3125 206.007812 123.296875 205.738281 119.195312 205.730469 Z M 119.195312 206.476562 C 123.257812 206.496094 127.214844 206.746094 131.019531 207.238281 C 129.945312 212.933594 128.761719 218.210938 127.535156 222.792969 C 124.851562 222.445312 122.058594 222.253906 119.195312 222.234375 Z M 103.320312 240.644531 C 98.710938 238.136719 94.097656 234.886719 89.726562 231.066406 C 91.074219 229.980469 92.667969 228.96875 94.472656 228.058594 C 97.902344 232.132812 101.613281 235.847656 105.550781 239.171875 C 104.726562 239.617188 103.976562 240.105469 103.320312 240.644531 Z M 132.097656 239.171875 C 136.046875 235.859375 139.753906 232.132812 143.175781 228.058594 C 144.960938 228.96875 146.546875 229.980469 147.902344 231.09375 C 143.53125 234.898438 138.9375 238.144531 134.328125 240.652344 C 133.671875 240.113281 132.933594 239.625 132.097656 239.171875 Z M 126.648438 255.765625 C 125.890625 255.59375 125.160156 255.199219 124.460938 254.605469 C 125.699219 254.402344 126.871094 254.132812 127.976562 253.816406 C 129.417969 254.390625 130.828125 254.746094 132.347656 254.882812 C 130.472656 255.257812 128.5625 255.546875 126.648438 255.765625 Z M 134.269531 249.183594 C 131.40625 252.058594 125.332031 253.910156 118.820312 253.910156 C 112.304688 253.910156 106.242188 252.058594 103.371094 249.183594 C 102.253906 248.070312 101.6875 246.878906 101.6875 245.660156 C 101.6875 241.09375 109.375 237.386719 118.820312 237.386719 C 125.332031 237.386719 131.40625 239.25 134.269531 242.125 C 135.394531 243.238281 135.960938 244.429688 135.960938 245.660156 C 135.960938 246.878906 135.394531 248.070312 134.269531 249.183594 Z M 59.828125 217.691406 C 59.867188 215.386719 60.453125 213.144531 61.519531 210.984375 C 61.703125 211.3125 61.882812 211.628906 62.085938 211.953125 C 64.785156 216.335938 67.945312 220.398438 71.5 224.117188 C 70.644531 225.808594 70.15625 227.546875 70.03125 229.324219 C 66.351562 226.03125 62.863281 222.175781 59.828125 217.691406 Z M 70.742188 229.960938 C 70.789062 228.144531 71.242188 226.386719 72.058594 224.695312 C 75.96875 228.671875 80.351562 232.257812 85.152344 235.378906 C 84.546875 236.589844 84.210938 237.828125 84.125 239.097656 C 79.6875 236.753906 75.09375 233.746094 70.742188 229.960938 Z M 88.316406 247.03125 C 87.546875 246.273438 86.921875 245.484375 86.414062 244.6875 C 91.535156 246.542969 96.664062 247.6875 101.238281 248.203125 C 101.496094 248.695312 101.824219 249.15625 102.226562 249.617188 C 98.078125 249.800781 93.5625 249.15625 89.1875 247.847656 C 88.890625 247.582031 88.582031 247.3125 88.316406 247.03125 Z M 99.363281 253.402344 C 98.632812 253.152344 97.914062 252.882812 97.222656 252.605469 C 99.632812 252.875 102.121094 252.71875 105.847656 252.289062 C 106.675781 252.71875 107.570312 253.105469 108.539062 253.429688 C 106.492188 254.125 104.445312 254.335938 101.949219 254.105469 C 101.9375 254.105469 101.917969 254.105469 101.917969 254.105469 C 101.0625 253.894531 100.210938 253.652344 99.363281 253.402344 Z M 138.273438 253.402344 C 137.429688 253.652344 136.585938 253.882812 135.730469 254.105469 C 135.71875 254.105469 135.71875 254.105469 135.710938 254.105469 C 133.210938 254.335938 131.183594 254.125 129.148438 253.441406 C 130.117188 253.105469 131.019531 252.71875 131.839844 252.296875 C 135.535156 252.71875 138.015625 252.875 140.417969 252.605469 C 139.726562 252.882812 139.003906 253.152344 138.273438 253.402344 Z M 148.449219 247.847656 C 144.078125 249.15625 139.570312 249.800781 135.441406 249.617188 C 135.835938 249.15625 136.160156 248.695312 136.429688 248.203125 C 140.984375 247.6875 146.113281 246.550781 151.234375 244.699219 C 150.71875 245.484375 150.09375 246.273438 149.332031 247.03125 C 149.054688 247.3125 148.746094 247.582031 148.449219 247.847656 Z M 153.511719 239.105469 C 153.4375 237.828125 153.089844 236.597656 152.484375 235.378906 C 157.296875 232.257812 161.679688 228.683594 165.589844 224.695312 C 166.425781 226.40625 166.859375 228.171875 166.898438 229.96875 C 162.542969 233.746094 157.953125 236.761719 153.511719 239.105469 Z M 167.617188 229.335938 C 167.492188 227.558594 167.003906 225.820312 166.136719 224.128906 C 169.710938 220.398438 172.871094 216.335938 175.574219 211.953125 C 175.765625 211.628906 175.945312 211.3125 176.140625 210.984375 C 177.214844 213.164062 177.78125 215.414062 177.8125 217.710938 C 174.773438 222.1875 171.296875 226.039062 167.617188 229.335938 Z M 178.511719 216.625 C 178.328125 214.433594 177.6875 212.300781 176.601562 210.214844 C 177.773438 208.167969 178.847656 206.09375 179.789062 203.980469 C 180.972656 206.355469 181.578125 208.773438 181.605469 211.261719 C 180.644531 213.136719 179.609375 214.921875 178.511719 216.625 Z M 175.984375 186.621094 C 173.140625 184.207031 169.742188 182.015625 165.90625 180.078125 C 166.898438 174.90625 167.445312 169.796875 167.511719 164.886719 C 171.5 166.914062 174.988281 169.21875 177.886719 171.746094 C 177.886719 176.308594 177.332031 181.007812 176.1875 185.8125 C 176.128906 186.082031 176.054688 186.351562 175.984375 186.621094 Z M 142.570312 125.6875 C 144.617188 127.523438 146.355469 129.78125 147.804688 132.441406 C 143.636719 131.289062 139.179688 130.394531 134.527344 129.769531 C 133.847656 127.320312 132.992188 125.175781 131.933594 123.476562 C 135.652344 123.996094 139.214844 124.734375 142.570312 125.6875 Z M 95.050781 125.714844 C 98.402344 124.765625 101.988281 124.015625 105.714844 123.488281 C 104.65625 125.1875 103.8125 127.328125 103.128906 129.769531 C 98.480469 130.40625 94.023438 131.296875 89.851562 132.441406 C 91.285156 129.808594 93.011719 127.550781 95.050781 125.714844 Z M 61.460938 185.8125 C 60.328125 181.007812 59.769531 176.300781 59.761719 171.738281 C 62.632812 169.25 66.121094 166.953125 70.136719 164.914062 C 70.214844 169.785156 70.75 174.839844 71.730469 179.96875 C 67.890625 181.902344 64.488281 184.074219 61.632812 186.476562 C 61.578125 186.253906 61.519531 186.03125 61.460938 185.8125 Z M 52.988281 203.558594 C 52.988281 200.914062 53.632812 198.339844 54.851562 195.882812 C 55.570312 198.300781 56.457031 200.703125 57.472656 203.066406 C 56.28125 205.269531 55.582031 207.535156 55.359375 209.839844 C 54.496094 208.035156 53.707031 206.152344 53.007812 204.183594 C 52.996094 203.980469 52.988281 203.769531 52.988281 203.558594 Z M 56.542969 215.328125 C 56.339844 214.558594 56.207031 213.789062 56.128906 213.011719 C 57.050781 214.710938 58.03125 216.34375 59.070312 217.890625 C 59.070312 217.902344 59.070312 217.910156 59.070312 217.921875 C 59.070312 219.027344 59.195312 220.121094 59.433594 221.207031 C 58.367188 219.296875 57.40625 217.335938 56.542969 215.328125 Z M 64.285156 228.652344 C 64.238281 228.605469 64.191406 228.566406 64.132812 228.546875 C 63.113281 227.164062 62.164062 225.742188 61.257812 224.292969 C 60.472656 222.570312 60 220.8125 59.867188 219.035156 C 62.902344 223.359375 66.351562 227.085938 69.984375 230.277344 C 69.992188 232.035156 70.378906 233.773438 71.117188 235.464844 C 68.601562 233.464844 66.273438 231.207031 64.285156 228.652344 Z M 76.121094 241.105469 C 75.132812 240.164062 74.269531 239.191406 73.546875 238.195312 C 77.246094 240.703125 81.242188 242.710938 85.289062 244.265625 C 85.84375 245.3125 86.59375 246.320312 87.546875 247.3125 C 84.453125 246.246094 81.484375 244.851562 78.804688 243.179688 C 77.898438 242.507812 77.007812 241.824219 76.121094 241.105469 Z M 161.527344 241.105469 C 160.621094 241.835938 159.699219 242.546875 158.769531 243.226562 C 156.097656 244.898438 153.128906 246.273438 150.054688 247.332031 C 150.996094 246.359375 151.753906 245.332031 152.332031 244.273438 C 156.375 242.726562 160.371094 240.71875 164.070312 238.210938 C 163.359375 239.203125 162.507812 240.171875 161.527344 241.105469 Z M 173.507812 228.546875 C 173.457031 228.566406 173.410156 228.605469 173.371094 228.652344 C 171.375 231.21875 169.039062 233.476562 166.523438 235.484375 C 167.261719 233.785156 167.644531 232.042969 167.65625 230.285156 C 171.289062 227.097656 174.738281 223.367188 177.773438 219.066406 C 177.636719 220.84375 177.15625 222.589844 176.378906 224.308594 C 175.476562 225.75 174.523438 227.164062 173.507812 228.546875 Z M 178.203125 221.207031 C 178.445312 220.132812 178.570312 219.027344 178.570312 217.921875 C 179.609375 216.363281 180.585938 214.75 181.511719 213.039062 C 181.433594 213.808594 181.296875 214.566406 181.105469 215.335938 C 180.230469 217.335938 179.269531 219.304688 178.203125 221.207031 Z M 180.761719 160.660156 C 179.503906 159.027344 177.984375 157.460938 176.265625 155.960938 C 175.667969 154.105469 174.96875 152.28125 174.160156 150.503906 C 175.398438 151.695312 176.503906 152.925781 177.445312 154.210938 C 178.675781 156.296875 179.769531 158.457031 180.761719 160.660156 Z M 159.96875 136.871094 C 156.566406 135.265625 152.820312 133.871094 148.804688 132.71875 C 147.5 130.183594 145.941406 127.992188 144.125 126.128906 C 146.796875 126.957031 149.324219 127.925781 151.667969 129.011719 C 152.582031 129.519531 153.484375 130.039062 154.378906 130.597656 C 156.492188 132.324219 158.363281 134.429688 159.96875 136.871094 Z M 129.089844 121.316406 C 129.523438 121.660156 129.925781 122.054688 130.320312 122.515625 C 126.71875 122.085938 123 121.851562 119.195312 121.835938 L 119.195312 120.554688 C 122.539062 120.566406 125.84375 120.824219 129.089844 121.316406 Z M 118.445312 120.546875 L 118.445312 121.835938 C 114.660156 121.851562 110.929688 122.09375 107.328125 122.527344 C 107.714844 122.066406 108.125 121.660156 108.558594 121.316406 C 111.785156 120.824219 115.089844 120.566406 118.445312 120.546875 Z M 60.25 154.175781 C 61.183594 152.914062 62.257812 151.695312 63.480469 150.53125 C 62.664062 152.328125 61.960938 154.175781 61.363281 156.058594 C 59.617188 157.566406 58.109375 159.160156 56.847656 160.792969 C 57.867188 158.515625 59 156.308594 60.25 154.175781 Z M 51 187.101562 C 51.125 185.207031 51.566406 183.351562 52.316406 181.546875 C 52.566406 185.996094 53.324219 190.433594 54.542969 194.804688 C 53.292969 197.101562 52.554688 199.464844 52.324219 201.894531 C 51.441406 197.496094 50.980469 192.96875 50.980469 188.386719 C 50.980469 187.953125 50.988281 187.523438 51 187.101562 Z M 49.828125 188.222656 C 49.828125 188.273438 49.835938 188.308594 49.855469 188.359375 C 49.855469 188.367188 49.84375 188.378906 49.84375 188.386719 C 49.84375 206.804688 57.023438 224.128906 70.050781 237.15625 C 83.078125 250.183594 100.390625 257.351562 118.820312 257.351562 C 156.828125 257.351562 187.753906 226.445312 187.792969 188.445312 C 187.824219 188.378906 187.839844 188.300781 187.839844 188.222656 C 187.839844 187.617188 187.804688 187.023438 187.746094 186.425781 C 187.253906 168.738281 180.15625 152.175781 167.589844 139.617188 C 154.558594 126.589844 137.246094 119.414062 118.820312 119.414062 C 100.402344 119.414062 83.078125 126.589844 70.050781 139.617188 C 57.40625 152.261719 50.296875 168.941406 49.894531 186.761719 C 49.84375 187.253906 49.828125 187.734375 49.828125 188.222656 " fill-opacity="1" fill-rule="nonzero"/></g><g clip-path="url(#bdc534ff3f)"><path fill="#000000" d="M 191.839844 201.820312 C 190.792969 201.90625 190.117188 202.605469 190.328125 203.375 C 190.542969 204.152344 191.558594 204.710938 192.605469 204.625 C 199.929688 204.007812 205.808594 202.90625 209.851562 201.328125 C 214.148438 199.65625 216.5 197.429688 216.5 194.652344 C 216.5 188.886719 205.511719 182.199219 187.753906 176.058594 C 170.613281 170.132812 146.96875 164.519531 120.886719 160.648438 C 107.703125 158.699219 95.175781 157.375 83.789062 156.644531 C 67.304688 155.585938 53.179688 155.796875 42.984375 157.179688 C 32.167969 158.652344 25.566406 161.542969 24.882812 165.789062 C 24.847656 166.039062 24.828125 166.289062 24.828125 166.53125 C 24.828125 168.921875 26.613281 171.417969 29.917969 173.945312 C 33.097656 176.359375 37.730469 178.847656 43.550781 181.304688 C 44.511719 181.710938 45.675781 181.507812 46.144531 180.835938 C 46.617188 180.171875 46.222656 179.308594 45.261719 178.894531 C 39.796875 176.589844 35.480469 174.28125 32.609375 172.09375 C 30.074219 170.160156 28.699219 168.363281 28.699219 166.777344 C 28.699219 166.625 28.71875 166.480469 28.738281 166.355469 C 29.21875 163.367188 34.78125 161.207031 43.996094 159.957031 C 53.832031 158.613281 67.609375 158.429688 83.789062 159.457031 C 95.050781 160.179688 107.445312 161.496094 120.441406 163.425781 C 146.210938 167.242188 169.519531 172.765625 186.363281 178.585938 C 202.578125 184.199219 212.621094 189.914062 212.621094 194.402344 C 212.621094 196.121094 210.917969 197.601562 207.804688 198.8125 C 204.144531 200.234375 198.699219 201.242188 191.839844 201.820312 " fill-opacity="1" fill-rule="nonzero"/></g><g clip-path="url(#c75ac571f8)"><path fill="#000000" d="M 190.042969 117.835938 L 190.136719 117.835938 C 190.792969 126.4375 197.652344 133.304688 206.25 133.949219 L 206.25 134.054688 C 197.652344 134.699219 190.792969 141.570312 190.136719 150.167969 L 190.042969 150.167969 C 189.386719 141.570312 182.527344 134.699219 173.929688 134.054688 L 173.929688 133.949219 C 182.527344 133.304688 189.386719 126.4375 190.042969 117.835938 " fill-opacity="1" fill-rule="evenodd"/></g><path fill="#000000" d="M 206.507812 147.507812 L 206.558594 147.507812 C 206.828125 151.167969 209.746094 154.085938 213.398438 154.355469 L 213.398438 154.40625 C 209.746094 154.671875 206.828125 157.59375 206.558594 161.246094 L 206.507812 161.246094 C 206.242188 157.59375 203.320312 154.671875 199.660156 154.40625 L 199.660156 154.355469 C 203.320312 154.085938 206.242188 151.167969 206.507812 147.507812 " fill-opacity="1" fill-rule="evenodd"/><path stroke-linecap="butt" transform="matrix(0.75, 0, 0, 0.75, 6.959857, 162.031981)" fill="none" stroke-linejoin="miter" d="M 71.444153 32.993819 L 71.444153 18.400068 L 98.126447 18.400068 L 98.126447 32.993819 L 89.631655 32.321944 L 89.782696 38.077152 L 98.126447 37.410486 L 98.126447 51.999028 L 71.444153 51.999028 L 71.444153 37.410486 L 79.798321 38.077152 L 79.938946 32.321944 Z M 114.782698 38.853194 L 111.386864 38.853194 L 112.673323 51.999028 L 100.438947 51.999028 L 100.438947 18.400068 L 117.80874 18.400068 C 120.563948 18.431318 123.006657 18.769859 125.131657 19.410484 C 127.256657 20.05111 128.918116 21.087568 130.121241 22.525068 C 131.324366 23.962568 131.928532 25.931318 131.928532 28.431318 C 131.928532 30.95736 130.798324 33.009444 128.543116 34.597985 C 126.282699 36.181319 122.866032 36.978194 118.287907 36.978194 L 118.287907 37.551111 L 121.261865 37.551111 C 123.886865 37.551111 126.048324 38.160486 127.746241 39.379236 C 129.438949 40.587569 130.652491 42.275069 131.386866 44.441736 C 132.131657 46.597986 132.339991 49.11882 132.022282 51.999028 L 118.241032 51.999028 C 118.62124 50.40007 118.855615 48.821945 118.93374 47.27507 C 119.017073 45.722986 118.938948 44.306319 118.699365 43.025069 C 118.454573 41.743819 118.011865 40.728194 117.37124 39.978194 C 116.741031 39.228194 115.876448 38.853194 114.782698 38.853194 Z M 117.136865 32.077152 L 111.386864 32.077152 L 111.386864 35.394861 L 117.08999 35.394861 C 118.209782 35.394861 119.105615 35.259444 119.77749 34.983402 C 120.449365 34.712569 120.782698 34.306319 120.782698 33.764652 C 120.782698 33.124027 120.438948 32.681319 119.751448 32.441735 C 119.063948 32.196944 118.194157 32.077152 117.136865 32.077152 Z M 157.366034 51.999028 L 143.7827 51.999028 L 132.308741 18.400068 L 147.194158 18.400068 L 150.214992 37.025069 L 150.980617 37.025069 L 153.860826 18.400068 L 168.793118 18.400068 Z M 169.173327 32.993819 L 169.173327 18.400068 L 195.85562 18.400068 L 195.85562 32.993819 L 187.360828 32.321944 L 187.511869 38.077152 L 195.85562 37.410486 L 195.85562 51.999028 L 169.173327 51.999028 L 169.173327 37.410486 L 177.527494 38.077152 L 177.668119 32.321944 Z M 231.334789 51.999028 L 221.116038 51.999028 L 209.970204 33.285485 L 209.350413 33.472985 L 212.418121 51.999028 L 198.16812 51.999028 L 198.16812 18.400068 L 208.678537 18.400068 L 219.475413 33.285485 L 220.199372 33.087569 L 217.70458 18.400068 L 231.334789 18.400068 Z M 231.334789 51.999028 " stroke="#ffffff" stroke-width="12.6" stroke-opacity="1" stroke-miterlimit="4"/><g fill="#000000" fill-opacity="1"><g transform="translate(59.823135, 201.031979)"><g><path d="M 0.71875 -14.25 L 0.71875 -25.203125 L 20.734375 -25.203125 L 20.734375 -14.25 L 14.359375 -14.765625 L 14.46875 -10.4375 L 20.734375 -10.9375 L 20.734375 0 L 0.71875 0 L 0.71875 -10.9375 L 6.984375 -10.4375 L 7.09375 -14.765625 Z M 0.71875 -14.25 "/></g></g></g><g fill="#000000" fill-opacity="1"><g transform="translate(81.279181, 201.031979)"><g><path d="M 11.765625 -9.859375 L 9.21875 -9.859375 L 10.1875 0 L 1.015625 0 L 1.015625 -25.203125 L 14.046875 -25.203125 C 16.109375 -25.171875 17.9375 -24.914062 19.53125 -24.4375 C 21.125 -23.957031 22.367188 -23.175781 23.265625 -22.09375 C 24.171875 -21.019531 24.625 -19.546875 24.625 -17.671875 C 24.625 -15.773438 23.773438 -14.234375 22.078125 -13.046875 C 20.390625 -11.859375 17.832031 -11.265625 14.40625 -11.265625 L 14.40625 -10.84375 L 16.625 -10.84375 C 18.59375 -10.84375 20.210938 -10.382812 21.484375 -9.46875 C 22.765625 -8.550781 23.679688 -7.28125 24.234375 -5.65625 C 24.785156 -4.039062 24.941406 -2.15625 24.703125 0 L 14.359375 0 C 14.648438 -1.195312 14.820312 -2.378906 14.875 -3.546875 C 14.9375 -4.710938 14.878906 -5.773438 14.703125 -6.734375 C 14.523438 -7.691406 14.195312 -8.453125 13.71875 -9.015625 C 13.238281 -9.578125 12.585938 -9.859375 11.765625 -9.859375 Z M 13.53125 -14.9375 L 9.21875 -14.9375 L 9.21875 -12.453125 L 13.5 -12.453125 C 14.34375 -12.453125 15.015625 -12.550781 15.515625 -12.75 C 16.015625 -12.957031 16.265625 -13.269531 16.265625 -13.6875 C 16.265625 -14.164062 16.003906 -14.492188 15.484375 -14.671875 C 14.972656 -14.847656 14.320312 -14.9375 13.53125 -14.9375 Z M 13.53125 -14.9375 "/></g></g></g><g fill="#000000" fill-opacity="1"><g transform="translate(106.62323, 201.031979)"><g><path d="M 18.359375 0 L 8.171875 0 L -0.4375 -25.203125 L 10.734375 -25.203125 L 13 -11.234375 L 13.578125 -11.234375 L 15.734375 -25.203125 L 26.921875 -25.203125 Z M 18.359375 0 "/></g></g></g><g fill="#000000" fill-opacity="1"><g transform="translate(133.119288, 201.031979)"><g><path d="M 0.71875 -14.25 L 0.71875 -25.203125 L 20.734375 -25.203125 L 20.734375 -14.25 L 14.359375 -14.765625 L 14.46875 -10.4375 L 20.734375 -10.9375 L 20.734375 0 L 0.71875 0 L 0.71875 -10.9375 L 6.984375 -10.4375 L 7.09375 -14.765625 Z M 0.71875 -14.25 "/></g></g></g><g fill="#000000" fill-opacity="1"><g transform="translate(154.575333, 201.031979)"><g><path d="M 25.890625 0 L 18.21875 0 L 9.859375 -14.046875 L 9.390625 -13.890625 L 11.703125 0 L 1.015625 0 L 1.015625 -25.203125 L 8.890625 -25.203125 L 16.984375 -14.046875 L 17.53125 -14.1875 L 15.65625 -25.203125 L 25.890625 -25.203125 Z M 25.890625 0 "/></g></g></g><path stroke-linecap="butt" transform="matrix(0.75, 0, 0, 0.75, 206.246417, 175.27496)" fill="none" stroke-linejoin="miter" d="M 25.463112 35.997973 L 25.463112 10.315679 L 32.067279 10.315679 L 32.067279 35.997973 Z M 45.999572 35.997973 L 45.999572 10.315679 L 52.978739 10.315679 L 72.650615 28.675056 L 72.85374 28.909431 L 72.85374 10.315679 L 79.150615 10.315679 L 79.150615 35.997973 L 72.161032 35.997973 L 52.426655 17.643805 L 52.249572 17.47193 L 52.249572 35.997973 Z M 93.072491 35.997973 L 93.072491 10.315679 L 99.67145 10.315679 L 99.67145 35.997973 Z M 129.093327 36.622973 C 125.541243 36.622973 122.442285 36.102139 119.791243 35.055264 C 117.140201 34.003181 115.088118 32.477139 113.624576 30.471931 C 112.161034 28.461514 111.426659 26.029222 111.426659 23.169847 C 111.426659 20.289638 112.161034 17.852138 113.624576 15.862555 C 115.088118 13.872971 117.140201 12.357346 119.791243 11.320888 C 122.442285 10.279221 125.541243 9.758388 129.093327 9.758388 C 132.317286 9.758388 135.197494 10.216721 137.728744 11.128179 C 140.265203 12.039638 142.30687 13.331305 143.848536 15.00318 C 145.395411 16.675055 146.280828 18.649013 146.515203 20.925055 L 140.046453 20.925055 C 139.817286 19.56568 139.192286 18.393805 138.166244 17.414638 C 137.140203 16.435471 135.843327 15.685471 134.275619 15.169846 C 132.713119 14.654221 131.02041 14.393805 129.192285 14.393805 C 127.05166 14.393805 125.14541 14.727138 123.473535 15.399013 C 121.80166 16.06568 120.48916 17.050055 119.530826 18.352138 C 118.572493 19.654222 118.098535 21.258388 118.098535 23.169847 C 118.098535 25.039639 118.572493 26.62818 119.530826 27.930264 C 120.48916 29.232347 121.80166 30.221931 123.473535 30.904222 C 125.14541 31.581306 127.05166 31.925056 129.192285 31.925056 C 131.08291 31.925056 132.822494 31.669847 134.411036 31.164639 C 136.004786 30.654222 137.312078 29.899014 138.332911 28.909431 C 139.364161 27.919847 139.973536 26.721931 140.155828 25.31568 L 146.582911 25.31568 C 146.40062 27.622972 145.530828 29.622972 143.973536 31.315681 C 142.421453 33.008389 140.364161 34.315681 137.801661 35.242764 C 135.244369 36.164639 132.338119 36.622973 129.093327 36.622973 Z M 158.369371 35.997973 L 158.369371 10.315679 L 164.968329 10.315679 L 164.968329 35.997973 Z M 194.801665 36.622973 C 191.088123 36.622973 187.874581 36.107348 185.171456 35.070889 C 182.463122 34.029223 180.379789 32.508389 178.916247 30.503181 C 177.452705 28.497972 176.723538 26.050055 176.723538 23.169847 C 176.723538 20.289638 177.452705 17.852138 178.916247 15.862555 C 180.379789 13.872971 182.463122 12.357346 185.171456 11.320888 C 187.874581 10.279221 191.088123 9.758388 194.801665 9.758388 C 198.509998 9.758388 201.707915 10.279221 204.405832 11.320888 C 207.103749 12.357346 209.187082 13.872971 210.650624 15.862555 C 212.114166 17.852138 212.843333 20.289638 212.843333 23.169847 C 212.843333 26.050055 212.114166 28.497972 210.650624 30.503181 C 209.187082 32.508389 207.103749 34.029223 204.405832 35.070889 C 201.707915 36.107348 198.509998 36.622973 194.801665 36.622973 Z M 183.390206 23.169847 C 183.390206 25.039639 183.869372 26.62818 184.822497 27.930264 C 185.780831 29.232347 187.119372 30.221931 188.832914 30.904222 C 190.556873 31.581306 192.541248 31.925056 194.801665 31.925056 C 197.056873 31.925056 199.03604 31.576097 200.739165 30.883389 C 202.452707 30.195889 203.78604 29.190681 204.744374 27.878181 C 205.697499 26.56568 206.176665 24.992764 206.176665 23.169847 C 206.176665 21.331305 205.697499 19.763597 204.744374 18.461513 C 203.78604 17.154222 202.452707 16.15943 200.739165 15.466721 C 199.03604 14.774013 197.056873 14.425055 194.801665 14.425055 C 192.541248 14.425055 190.556873 14.763596 188.832914 15.430263 C 187.119372 16.102138 185.780831 17.086513 184.822497 18.393805 C 183.869372 19.695888 183.390206 21.28443 183.390206 23.169847 Z M 183.390206 23.169847 " stroke="#ffffff" stroke-width="9.075413" stroke-opacity="1" stroke-miterlimit="4"/><g fill="#000000" fill-opacity="1"><g transform="translate(222.699541, 202.274958)"><g><path d="M 2.640625 0 L 2.640625 -19.265625 L 7.59375 -19.265625 L 7.59375 0 Z M 2.640625 0 "/></g></g></g><g fill="#000000" fill-opacity="1"><g transform="translate(238.098736, 202.274958)"><g><path d="M 2.640625 0 L 2.640625 -19.265625 L 7.875 -19.265625 L 22.625 -5.5 L 22.78125 -5.3125 L 22.78125 -19.265625 L 27.5 -19.265625 L 27.5 0 L 22.265625 0 L 7.46875 -13.765625 L 7.328125 -13.890625 L 7.328125 0 Z M 2.640625 0 "/></g></g></g><g fill="#000000" fill-opacity="1"><g transform="translate(273.40598, 202.274958)"><g><path d="M 2.640625 0 L 2.640625 -19.265625 L 7.59375 -19.265625 L 7.59375 0 Z M 2.640625 0 "/></g></g></g><g fill="#000000" fill-opacity="1"><g transform="translate(288.805177, 202.274958)"><g><path d="M 14.25 0.46875 C 11.59375 0.46875 9.269531 0.078125 7.28125 -0.703125 C 5.289062 -1.492188 3.75 -2.640625 2.65625 -4.140625 C 1.5625 -5.648438 1.015625 -7.472656 1.015625 -9.609375 C 1.015625 -11.773438 1.5625 -13.601562 2.65625 -15.09375 C 3.75 -16.59375 5.289062 -17.726562 7.28125 -18.5 C 9.269531 -19.28125 11.59375 -19.671875 14.25 -19.671875 C 16.675781 -19.671875 18.835938 -19.328125 20.734375 -18.640625 C 22.640625 -17.960938 24.171875 -17 25.328125 -15.75 C 26.484375 -14.5 27.148438 -13.015625 27.328125 -11.296875 L 22.46875 -11.296875 C 22.300781 -12.316406 21.832031 -13.191406 21.0625 -13.921875 C 20.289062 -14.660156 19.316406 -15.222656 18.140625 -15.609375 C 16.960938 -16.003906 15.691406 -16.203125 14.328125 -16.203125 C 12.722656 -16.203125 11.296875 -15.953125 10.046875 -15.453125 C 8.796875 -14.953125 7.8125 -14.210938 7.09375 -13.234375 C 6.375 -12.253906 6.015625 -11.046875 6.015625 -9.609375 C 6.015625 -8.210938 6.375 -7.023438 7.09375 -6.046875 C 7.8125 -5.078125 8.796875 -4.335938 10.046875 -3.828125 C 11.296875 -3.316406 12.722656 -3.0625 14.328125 -3.0625 C 15.742188 -3.0625 17.046875 -3.25 18.234375 -3.625 C 19.429688 -4.007812 20.414062 -4.570312 21.1875 -5.3125 C 21.957031 -6.050781 22.410156 -6.953125 22.546875 -8.015625 L 27.375 -8.015625 C 27.238281 -6.285156 26.585938 -4.785156 25.421875 -3.515625 C 24.253906 -2.242188 22.707031 -1.257812 20.78125 -0.5625 C 18.863281 0.125 16.6875 0.46875 14.25 0.46875 Z M 14.25 0.46875 "/></g></g></g><g fill="#000000" fill-opacity="1"><g transform="translate(322.375651, 202.274958)"><g><path d="M 2.640625 0 L 2.640625 -19.265625 L 7.59375 -19.265625 L 7.59375 0 Z M 2.640625 0 "/></g></g></g><g fill="#000000" fill-opacity="1"><g transform="translate(337.774843, 202.274958)"><g><path d="M 14.5625 0.46875 C 11.78125 0.46875 9.375 0.0820312 7.34375 -0.6875 C 5.3125 -1.46875 3.75 -2.609375 2.65625 -4.109375 C 1.5625 -5.617188 1.015625 -7.453125 1.015625 -9.609375 C 1.015625 -11.773438 1.5625 -13.601562 2.65625 -15.09375 C 3.75 -16.59375 5.3125 -17.726562 7.34375 -18.5 C 9.375 -19.28125 11.78125 -19.671875 14.5625 -19.671875 C 17.34375 -19.671875 19.742188 -19.28125 21.765625 -18.5 C 23.796875 -17.726562 25.359375 -16.59375 26.453125 -15.09375 C 27.546875 -13.601562 28.09375 -11.773438 28.09375 -9.609375 C 28.09375 -7.453125 27.546875 -5.617188 26.453125 -4.109375 C 25.359375 -2.609375 23.796875 -1.46875 21.765625 -0.6875 C 19.742188 0.0820312 17.34375 0.46875 14.5625 0.46875 Z M 6.015625 -9.609375 C 6.015625 -8.210938 6.375 -7.023438 7.09375 -6.046875 C 7.8125 -5.078125 8.8125 -4.335938 10.09375 -3.828125 C 11.382812 -3.316406 12.875 -3.0625 14.5625 -3.0625 C 16.257812 -3.0625 17.742188 -3.316406 19.015625 -3.828125 C 20.296875 -4.347656 21.296875 -5.097656 22.015625 -6.078125 C 22.734375 -7.066406 23.09375 -8.242188 23.09375 -9.609375 C 23.09375 -10.992188 22.734375 -12.175781 22.015625 -13.15625 C 21.296875 -14.132812 20.296875 -14.878906 19.015625 -15.390625 C 17.742188 -15.910156 16.257812 -16.171875 14.5625 -16.171875 C 12.875 -16.171875 11.382812 -15.921875 10.09375 -15.421875 C 8.8125 -14.921875 7.8125 -14.179688 7.09375 -13.203125 C 6.375 -12.234375 6.015625 -11.035156 6.015625 -9.609375 Z M 6.015625 -9.609375 "/></g></g></g></svg>