<svg xmlns="http://www.w3.org/2000/svg" xmlns:xlink="http://www.w3.org/1999/xlink" width="500" zoomAndPan="magnify" viewBox="0 0 375 374.999991" height="500" preserveAspectRatio="xMidYMid meet" version="1.0"><defs><g/><clipPath id="bda942e4e0"><path d="M 62 119 L 201 119 L 201 257.726562 L 62 257.726562 Z M 62 119 " clip-rule="nonzero"/></clipPath><clipPath id="cbd394b97c"><path d="M 37.5 155 L 228.75 155 L 228.75 205 L 37.5 205 Z M 37.5 155 " clip-rule="nonzero"/></clipPath><clipPath id="91ec649c62"><path d="M 186 117.476562 L 219 117.476562 L 219 151 L 186 151 Z M 186 117.476562 " clip-rule="nonzero"/></clipPath></defs><g clip-path="url(#bda942e4e0)"><path fill="#000000" d="M 64.925781 175.089844 C 64.867188 176.425781 64.832031 177.769531 64.847656 179.117188 C 64.5625 179.664062 64.292969 180.21875 64.050781 180.777344 C 64.261719 178.855469 64.5625 176.953125 64.925781 175.089844 Z M 92.375 132.96875 C 91.15625 134.332031 90.050781 135.851562 89.042969 137.503906 C 86.746094 138.65625 84.632812 139.90625 82.710938 141.25 C 85.660156 138.207031 88.898438 135.417969 92.375 132.96875 Z M 180.21875 141.242188 C 178.296875 139.898438 176.175781 138.636719 173.878906 137.496094 C 172.871094 135.824219 171.746094 134.296875 170.515625 132.921875 C 173.667969 135.140625 176.65625 137.640625 179.429688 140.414062 C 179.699219 140.675781 179.960938 140.964844 180.21875 141.242188 Z M 198.078125 179.105469 C 198.109375 177.742188 198.070312 176.398438 198.003906 175.050781 C 198.367188 176.914062 198.648438 178.789062 198.859375 180.691406 C 198.628906 180.164062 198.367188 179.625 198.078125 179.105469 Z M 197.8125 202.566406 C 197.667969 200.003906 196.945312 197.503906 195.679688 195.074219 C 196.945312 190.605469 197.722656 186.0625 197.984375 181.515625 C 198.667969 183.152344 199.078125 184.8125 199.261719 186.496094 C 199.269531 187.117188 199.300781 187.753906 199.300781 188.386719 C 199.300781 193.210938 198.792969 197.957031 197.8125 202.566406 Z M 177.902344 237.808594 C 178.066406 237.570312 178.210938 237.320312 178.355469 237.070312 C 178.894531 236.664062 179.414062 236.242188 179.941406 235.820312 C 179.769531 235.992188 179.605469 236.1875 179.429688 236.359375 C 178.933594 236.859375 178.414062 237.328125 177.902344 237.808594 Z M 82.949219 235.78125 C 83.480469 236.214844 84.007812 236.648438 84.546875 237.050781 C 84.6875 237.300781 84.84375 237.550781 85.007812 237.800781 C 84.496094 237.320312 83.988281 236.847656 83.488281 236.359375 C 83.304688 236.167969 83.132812 235.972656 82.949219 235.78125 Z M 71.660156 172.398438 C 71.71875 176.820312 72.277344 181.355469 73.371094 185.984375 C 73.457031 186.332031 73.542969 186.675781 73.632812 187.023438 C 73.015625 187.5625 72.429688 188.109375 71.871094 188.664062 C 70.183594 190.355469 68.789062 192.105469 67.710938 193.882812 C 66.492188 189.320312 65.800781 184.6875 65.648438 180.046875 C 67.019531 177.355469 69.046875 174.792969 71.660156 172.398438 Z M 67.914062 164.636719 C 69.230469 162.101562 71.140625 159.699219 73.574219 157.46875 C 72.351562 161.773438 71.710938 166.28125 71.652344 170.921875 C 70.988281 171.496094 70.355469 172.082031 69.757812 172.667969 C 68.085938 174.351562 66.714844 176.058594 65.609375 177.820312 C 65.617188 175.167969 65.808594 172.523438 66.175781 169.902344 C 66.683594 168.113281 67.269531 166.355469 67.914062 164.636719 Z M 78.261719 146.34375 C 77.800781 147.140625 77.359375 147.957031 76.945312 148.785156 C 76.425781 149.234375 75.925781 149.675781 75.457031 150.148438 C 76.351562 148.839844 77.28125 147.5625 78.261719 146.34375 Z M 86.503906 142.527344 C 83.460938 144.074219 80.75 145.765625 78.414062 147.582031 C 79.15625 146.226562 79.972656 144.902344 80.847656 143.605469 C 83.019531 141.828125 85.535156 140.183594 88.332031 138.714844 C 87.667969 139.925781 87.054688 141.195312 86.503906 142.527344 Z M 101.042969 133.640625 C 100.464844 134.84375 99.945312 136.128906 99.484375 137.484375 C 97.542969 138.050781 95.660156 138.675781 93.835938 139.347656 C 91.605469 140.183594 89.523438 141.070312 87.5625 142.019531 C 88.167969 140.628906 88.839844 139.3125 89.578125 138.070312 C 93.027344 136.359375 96.882812 134.871094 101.042969 133.640625 Z M 95.765625 130.710938 C 96.757812 130.097656 97.757812 129.511719 98.773438 128.953125 C 101.050781 127.90625 103.519531 126.972656 106.132812 126.175781 C 104.328125 128.023438 102.78125 130.203125 101.484375 132.730469 C 97.46875 133.890625 93.710938 135.285156 90.320312 136.878906 C 91.886719 134.496094 93.710938 132.429688 95.765625 130.710938 Z M 107.316406 125.042969 C 107.144531 125.082031 106.96875 125.128906 106.796875 125.1875 C 107.007812 125.101562 107.21875 125.023438 107.429688 124.945312 C 107.390625 124.976562 107.355469 125.003906 107.316406 125.042969 Z M 118.929688 122.660156 C 115.453125 123.113281 112.101562 123.765625 108.921875 124.601562 C 108.9375 124.535156 108.949219 124.457031 108.9375 124.390625 C 112.457031 123.152344 116.097656 122.191406 119.855469 121.546875 C 119.527344 121.882812 119.21875 122.257812 118.929688 122.660156 Z M 154.007812 124.582031 C 150.828125 123.746094 147.476562 123.09375 143.988281 122.640625 C 143.710938 122.246094 143.410156 121.882812 143.09375 121.546875 C 146.8125 122.191406 150.464844 123.121094 154 124.359375 C 153.980469 124.4375 153.980469 124.503906 154.007812 124.582031 Z M 155.574219 125.003906 C 155.546875 124.976562 155.507812 124.945312 155.46875 124.910156 C 155.679688 124.996094 155.902344 125.070312 156.113281 125.160156 C 155.941406 125.109375 155.757812 125.054688 155.574219 125.003906 Z M 175.367188 142 C 173.40625 141.058594 171.324219 140.164062 169.101562 139.339844 C 167.269531 138.667969 165.386719 138.042969 163.453125 137.476562 C 162.992188 136.121094 162.464844 134.84375 161.886719 133.621094 C 166.046875 134.863281 169.902344 136.34375 173.339844 138.0625 C 174.089844 139.300781 174.761719 140.617188 175.367188 142 Z M 182.0625 143.578125 C 182.949219 144.875 183.765625 146.199219 184.503906 147.554688 C 182.167969 145.746094 179.46875 144.058594 176.425781 142.519531 C 175.875 141.183594 175.261719 139.90625 174.589844 138.695312 C 177.386719 140.175781 179.894531 141.800781 182.0625 143.578125 Z M 185.964844 148.753906 C 185.550781 147.910156 185.101562 147.082031 184.628906 146.257812 C 185.636719 147.535156 186.609375 148.832031 187.519531 150.15625 C 187.023438 149.6875 186.503906 149.207031 185.964844 148.753906 Z M 193.191406 172.667969 C 192.585938 172.074219 191.949219 171.496094 191.289062 170.910156 C 191.21875 166.222656 190.566406 161.675781 189.328125 157.335938 C 191.757812 159.582031 193.671875 162.003906 195.003906 164.570312 C 195.667969 166.335938 196.253906 168.132812 196.765625 169.960938 C 197.128906 172.5625 197.3125 175.175781 197.320312 177.808594 C 196.226562 176.050781 194.851562 174.339844 193.191406 172.667969 Z M 190.84375 188.664062 C 190.347656 188.15625 189.808594 187.667969 189.261719 187.1875 C 189.367188 186.78125 189.472656 186.378906 189.558594 185.984375 C 190.664062 181.355469 191.21875 176.820312 191.269531 172.410156 C 191.652344 172.753906 192.027344 173.109375 192.382812 173.476562 C 194.507812 175.589844 196.140625 177.789062 197.292969 180.039062 C 197.136719 184.753906 196.417969 189.480469 195.148438 194.132812 C 194.054688 192.257812 192.613281 190.433594 190.84375 188.664062 Z M 192.355469 202.261719 C 191.316406 200.511719 189.960938 198.820312 188.320312 197.167969 C 187.761719 196.621094 187.183594 196.09375 186.578125 195.554688 C 187.539062 193.046875 188.375 190.53125 189.058594 188.003906 C 189.480469 188.398438 189.902344 188.789062 190.316406 189.195312 C 192.25 191.125 193.765625 193.125 194.871094 195.160156 C 194.179688 197.554688 193.332031 199.925781 192.355469 202.261719 Z M 197.03125 204.894531 C 196.390625 206.621094 195.6875 208.273438 194.929688 209.871094 C 194.707031 207.554688 194.007812 205.285156 192.816406 203.078125 C 193.804688 200.789062 194.660156 198.484375 195.371094 196.140625 C 196.515625 198.550781 197.089844 201.03125 197.089844 203.558594 C 197.089844 204 197.070312 204.453125 197.03125 204.894531 Z M 194.996094 211.4375 C 195.34375 210.761719 195.667969 210.070312 195.996094 209.371094 C 195.667969 210.359375 195.332031 211.332031 194.96875 212.308594 C 194.988281 212.011719 194.996094 211.734375 194.996094 211.4375 Z M 165.441406 243.296875 C 165.902344 242.199219 166.144531 241.085938 166.183594 239.933594 C 170.59375 237.636719 175.175781 234.6875 179.527344 230.96875 C 179.402344 232.863281 178.808594 234.734375 177.789062 236.550781 C 173.964844 239.367188 169.738281 241.59375 165.441406 243.296875 Z M 158.859375 250.460938 C 158.804688 250.480469 158.746094 250.511719 158.6875 250.519531 C 159.679688 249.886719 160.589844 249.234375 161.40625 248.53125 C 162.800781 248.117188 164.183594 247.617188 165.527344 247.070312 C 163.367188 248.320312 161.148438 249.453125 158.859375 250.460938 Z M 101.445312 248.503906 C 102.234375 249.195312 103.117188 249.847656 104.078125 250.460938 C 104.058594 250.460938 104.039062 250.453125 104.019531 250.445312 C 101.753906 249.445312 99.523438 248.3125 97.371094 247.050781 C 98.699219 247.601562 100.0625 248.089844 101.445312 248.503906 Z M 83.402344 230.96875 C 87.753906 234.675781 92.335938 237.625 96.746094 239.921875 C 96.777344 241.066406 97.015625 242.191406 97.46875 243.285156 C 93.183594 241.574219 88.957031 239.355469 85.132812 236.542969 C 84.113281 234.726562 83.515625 232.851562 83.402344 230.96875 Z M 67.925781 211.40625 C 67.925781 211.703125 67.941406 211.992188 67.953125 212.300781 C 67.578125 211.300781 67.230469 210.300781 66.90625 209.292969 C 67.230469 210.015625 67.570312 210.726562 67.925781 211.40625 Z M 76.351562 195.542969 C 75.746094 196.082031 75.160156 196.609375 74.609375 197.167969 C 72.957031 198.8125 71.621094 200.511719 70.585938 202.242188 C 69.566406 199.828125 68.703125 197.378906 67.992188 194.902344 C 69.382812 192.414062 71.363281 190.050781 73.84375 187.839844 C 74.523438 190.414062 75.371094 192.988281 76.351562 195.542969 Z M 84.535156 180.769531 C 85.074219 183.46875 85.726562 186.1875 86.496094 188.894531 C 82.875 190.710938 79.664062 192.769531 76.964844 195.027344 C 75.984375 192.449219 75.148438 189.867188 74.476562 187.292969 C 77.273438 184.898438 80.652344 182.71875 84.535156 180.769531 Z M 84.132812 150.300781 C 83.34375 153.933594 82.875 157.855469 82.785156 162.050781 C 82.769531 162.582031 82.777344 163.109375 82.777344 163.636719 C 78.847656 165.597656 75.359375 167.816406 72.429688 170.257812 C 72.554688 165.492188 73.292969 160.890625 74.660156 156.5 C 77.320312 154.242188 80.511719 152.164062 84.132812 150.300781 Z M 84.351562 149.285156 C 80.828125 151.070312 77.714844 153.039062 75.082031 155.152344 C 75.78125 153.125 76.609375 151.148438 77.570312 149.214844 C 79.992188 147.140625 82.875 145.238281 86.128906 143.527344 C 85.4375 145.34375 84.832031 147.265625 84.351562 149.285156 Z M 97.765625 144.074219 C 95.007812 144.882812 92.355469 145.796875 89.859375 146.796875 C 88.253906 147.449219 86.714844 148.128906 85.246094 148.839844 C 85.765625 146.796875 86.390625 144.835938 87.128906 143.007812 C 90.742188 141.195312 94.804688 139.617188 99.195312 138.3125 C 98.628906 140.109375 98.140625 142.03125 97.765625 144.074219 Z M 114.628906 135.015625 C 114.328125 136.824219 114.078125 138.714844 113.898438 140.664062 C 108.546875 141.40625 103.394531 142.460938 98.574219 143.835938 C 98.976562 141.769531 99.476562 139.847656 100.082031 138.050781 C 104.617188 136.746094 109.496094 135.726562 114.628906 135.015625 Z M 115.550781 130.558594 C 115.25 131.730469 114.992188 132.960938 114.753906 134.257812 C 109.746094 134.9375 104.914062 135.929688 100.371094 137.214844 C 100.859375 135.851562 101.398438 134.566406 102.003906 133.355469 C 106.238281 132.152344 110.792969 131.210938 115.550781 130.558594 Z M 131.085938 128.742188 C 126.097656 128.75 121.207031 129.070312 116.53125 129.664062 C 117.269531 127.117188 118.203125 124.976562 119.316406 123.371094 C 123.128906 122.871094 127.070312 122.613281 131.085938 122.59375 Z M 146.410156 129.664062 C 141.722656 129.070312 136.832031 128.75 131.835938 128.742188 L 131.835938 122.59375 C 135.871094 122.601562 139.808594 122.863281 143.59375 123.34375 C 144.726562 124.957031 145.652344 127.097656 146.410156 129.664062 Z M 148.175781 134.246094 C 147.945312 132.960938 147.6875 131.71875 147.378906 130.546875 C 152.144531 131.203125 156.691406 132.144531 160.925781 133.34375 C 161.53125 134.554688 162.078125 135.851562 162.570312 137.214844 C 158.015625 135.917969 153.191406 134.929688 148.175781 134.246094 Z M 164.355469 143.808594 C 159.570312 142.453125 154.433594 141.386719 149.042969 140.644531 C 148.851562 138.695312 148.609375 136.8125 148.300781 135.015625 C 153.441406 135.71875 158.324219 136.746094 162.859375 138.042969 C 163.453125 139.839844 163.953125 141.75 164.355469 143.808594 Z M 177.683594 148.792969 C 173.90625 146.96875 169.707031 145.375 165.164062 144.046875 C 164.78125 142 164.308594 140.097656 163.730469 138.300781 C 168.132812 139.617188 172.1875 141.183594 175.800781 142.992188 C 176.539062 144.816406 177.164062 146.757812 177.683594 148.792969 Z M 178.578125 149.226562 C 178.085938 147.21875 177.492188 145.316406 176.800781 143.519531 C 180.054688 145.21875 182.929688 147.121094 185.351562 149.195312 C 186.300781 151.097656 187.136719 153.070312 187.828125 155.078125 C 185.175781 152.953125 182.0625 150.984375 178.578125 149.226562 Z M 180.160156 163.628906 C 180.160156 163.109375 180.160156 162.582031 180.152344 162.050781 C 180.054688 157.804688 179.585938 153.828125 178.777344 150.15625 C 182.390625 152.011719 185.582031 154.097656 188.230469 156.363281 C 189.617188 160.804688 190.382812 165.445312 190.507812 170.246094 C 187.570312 167.816406 184.089844 165.597656 180.160156 163.628906 Z M 176.433594 188.894531 C 177.203125 186.214844 177.847656 183.535156 178.375 180.875 C 182.265625 182.84375 185.636719 185.042969 188.414062 187.445312 C 187.75 189.972656 186.933594 192.519531 185.972656 195.035156 C 183.265625 192.769531 180.054688 190.722656 176.433594 188.894531 Z M 182.707031 202.492188 C 180.191406 200.386719 177.210938 198.476562 173.847656 196.785156 C 174.734375 194.410156 175.519531 192.027344 176.222656 189.625 C 179.835938 191.453125 183.015625 193.507812 185.6875 195.777344 C 184.800781 198.035156 183.8125 200.273438 182.707031 202.492188 Z M 188.808594 209.457031 C 187.820312 207.765625 186.523438 206.113281 184.917969 204.5 C 184.410156 203.988281 183.851562 203.492188 183.292969 203 C 184.410156 200.789062 185.398438 198.550781 186.292969 196.304688 C 186.800781 196.765625 187.308594 197.226562 187.78125 197.695312 C 189.539062 199.464844 190.933594 201.269531 191.980469 203.136719 C 191.039062 205.269531 189.992188 207.382812 188.808594 209.457031 Z M 149.695312 245.160156 C 149.636719 244.59375 149.484375 244.027344 149.234375 243.46875 C 154.691406 241.363281 159.792969 238.800781 164.492188 235.800781 C 165.085938 236.992188 165.394531 238.222656 165.421875 239.480469 C 159.523438 242.507812 153.953125 244.332031 149.695312 245.160156 Z M 149.417969 247.398438 C 149.589844 246.925781 149.6875 246.425781 149.714844 245.929688 C 153.953125 245.101562 159.496094 243.316406 165.402344 240.328125 C 165.316406 241.460938 165 242.585938 164.460938 243.671875 C 159.285156 245.621094 154.078125 246.839844 149.417969 247.398438 Z M 145.59375 251.664062 C 146.253906 251.25 146.851562 250.800781 147.371094 250.328125 C 151.25 250.585938 155.460938 250.117188 159.609375 249.039062 C 158.476562 249.867188 157.191406 250.644531 155.796875 251.347656 C 152.585938 252.125 150.003906 252.144531 145.59375 251.664062 Z M 122.332031 253.804688 C 125.050781 254.59375 128.183594 255.046875 131.460938 255.046875 C 133.082031 255.046875 134.648438 254.941406 136.140625 254.746094 C 136.636719 255.238281 137.15625 255.640625 137.6875 255.9375 C 135.628906 256.121094 133.554688 256.226562 131.460938 256.226562 C 126.867188 256.226562 122.34375 255.765625 117.933594 254.882812 C 119.46875 254.746094 120.890625 254.390625 122.332031 253.804688 Z M 115.589844 250.328125 C 116.105469 250.800781 116.703125 251.25 117.367188 251.664062 C 112.925781 252.144531 110.34375 252.125 107.113281 251.335938 C 105.722656 250.636719 104.441406 249.867188 103.308594 249.03125 C 107.46875 250.117188 111.695312 250.585938 115.589844 250.328125 Z M 113.214844 245.929688 C 113.242188 246.417969 113.339844 246.917969 113.511719 247.398438 C 108.851562 246.832031 103.636719 245.621094 98.457031 243.660156 C 97.917969 242.574219 97.601562 241.460938 97.523438 240.328125 C 103.425781 243.304688 108.96875 245.101562 113.214844 245.929688 Z M 98.429688 235.78125 C 103.136719 238.800781 108.238281 241.363281 113.695312 243.457031 C 113.4375 244.015625 113.28125 244.582031 113.222656 245.160156 C 108.96875 244.324219 103.40625 242.496094 97.496094 239.472656 C 97.523438 238.203125 97.851562 236.972656 98.429688 235.78125 Z M 73.699219 210.207031 C 72.59375 212.28125 71.949219 214.414062 71.777344 216.605469 C 70.671875 214.894531 69.632812 213.128906 68.683594 211.242188 C 68.710938 208.746094 69.335938 206.316406 70.5 203.980469 C 71.449219 206.09375 72.515625 208.167969 73.699219 210.207031 Z M 79.644531 202.992188 C 79.070312 203.492188 78.519531 203.988281 78.003906 204.5 C 76.40625 206.105469 75.109375 207.757812 74.121094 209.445312 C 72.949219 207.371094 71.890625 205.269531 70.960938 203.136719 C 72.304688 200.722656 74.226562 198.4375 76.636719 196.304688 C 77.53125 198.542969 78.53125 200.78125 79.644531 202.992188 Z M 89.089844 196.773438 C 85.71875 198.464844 82.738281 200.378906 80.222656 202.480469 C 79.117188 200.273438 78.128906 198.023438 77.242188 195.777344 C 79.886719 193.546875 83.074219 191.492188 86.714844 189.65625 C 87.417969 192.039062 88.207031 194.421875 89.089844 196.773438 Z M 99.792969 184.609375 C 100.3125 187.042969 100.898438 189.5 101.550781 191.972656 C 97.265625 193.210938 93.316406 194.707031 89.761719 196.4375 C 88.886719 194.074219 88.101562 191.703125 87.398438 189.320312 C 91.105469 187.511719 95.277344 185.925781 99.792969 184.609375 Z M 98.101562 175.523438 C 98.523438 178.25 99.023438 181.027344 99.621094 183.84375 C 95.113281 185.148438 90.933594 186.726562 87.1875 188.558594 C 86.417969 185.839844 85.765625 183.121094 85.226562 180.421875 C 89.089844 178.539062 93.414062 176.886719 98.101562 175.523438 Z M 96.652344 159.488281 C 96.746094 164.289062 97.199219 169.410156 97.988281 174.742188 C 93.308594 176.097656 88.972656 177.730469 85.074219 179.632812 C 84.09375 174.484375 83.574219 169.410156 83.515625 164.539062 C 87.445312 162.601562 91.855469 160.910156 96.652344 159.488281 Z M 96.910156 150.40625 C 96.691406 152.914062 96.601562 155.558594 96.621094 158.296875 C 91.894531 159.679688 87.496094 161.351562 83.527344 163.261719 C 83.527344 162.867188 83.527344 162.464844 83.535156 162.070312 C 83.632812 157.699219 84.132812 153.605469 84.996094 149.859375 C 88.792969 147.988281 93.019531 146.332031 97.613281 144.949219 C 97.3125 146.6875 97.074219 148.496094 96.910156 150.40625 Z M 113.332031 154.796875 C 107.71875 155.558594 102.367188 156.664062 97.371094 158.074219 C 97.351562 155.472656 97.449219 152.925781 97.660156 150.464844 C 97.832031 148.457031 98.09375 146.535156 98.410156 144.730469 C 103.222656 143.316406 108.402344 142.210938 113.820312 141.453125 C 113.445312 145.757812 113.300781 150.332031 113.332031 154.796875 Z M 131.085938 140.222656 L 131.085938 153.605469 C 125.207031 153.625 119.460938 154.011719 113.945312 154.722656 C 113.933594 149.957031 114.109375 145.449219 114.484375 141.355469 C 119.824219 140.644531 125.386719 140.253906 131.085938 140.222656 Z M 131.085938 133.890625 L 131.085938 139.472656 C 125.484375 139.492188 119.929688 139.867188 114.558594 140.570312 C 114.761719 138.589844 115.011719 136.6875 115.328125 134.929688 C 120.371094 134.265625 125.65625 133.910156 131.085938 133.890625 Z M 131.085938 133.132812 C 125.742188 133.152344 120.515625 133.496094 115.464844 134.152344 C 115.710938 132.855469 115.992188 131.613281 116.300781 130.460938 C 121.054688 129.835938 126.011719 129.511719 131.085938 129.492188 Z M 131.835938 133.132812 L 131.835938 129.492188 C 136.917969 129.511719 141.875 129.835938 146.628906 130.453125 C 146.949219 131.605469 147.214844 132.84375 147.464844 134.152344 C 142.414062 133.496094 137.175781 133.152344 131.835938 133.132812 Z M 131.835938 139.472656 L 131.835938 133.890625 C 137.273438 133.902344 142.558594 134.257812 147.609375 134.921875 C 147.917969 136.6875 148.167969 138.570312 148.371094 140.550781 C 143.074219 139.859375 137.523438 139.492188 131.835938 139.472656 Z M 148.984375 154.722656 C 143.480469 154 137.722656 153.617188 131.835938 153.605469 L 131.835938 140.222656 C 137.5625 140.242188 143.125 140.628906 148.445312 141.320312 C 148.832031 145.421875 149.003906 149.945312 148.984375 154.722656 Z M 165.277344 150.464844 C 165.492188 152.925781 165.578125 155.472656 165.558594 158.074219 C 160.570312 156.664062 155.21875 155.558594 149.609375 154.796875 C 149.628906 150.3125 149.492188 145.730469 149.109375 141.40625 C 154.546875 142.15625 159.707031 143.242188 164.5 144.613281 C 164.835938 146.46875 165.097656 148.417969 165.277344 150.464844 Z M 166.308594 158.296875 C 166.335938 155.558594 166.238281 152.914062 166.027344 150.40625 C 165.855469 148.46875 165.617188 146.621094 165.308594 144.84375 C 169.902344 146.210938 174.128906 147.84375 177.914062 149.714844 C 178.789062 153.511719 179.296875 157.640625 179.402344 162.070312 C 179.414062 162.464844 179.402344 162.867188 179.414062 163.261719 C 175.445312 161.339844 171.042969 159.679688 166.308594 158.296875 Z M 164.933594 174.8125 C 165.742188 169.441406 166.191406 164.289062 166.289062 159.449219 C 171.054688 160.859375 175.464844 162.5625 179.414062 164.519531 C 179.363281 169.421875 178.824219 174.542969 177.847656 179.730469 C 173.953125 177.820312 169.613281 176.175781 164.933594 174.8125 Z M 163.308594 183.851562 C 163.90625 181.054688 164.394531 178.308594 164.816406 175.609375 C 165.386719 175.773438 165.960938 175.925781 166.527344 176.097656 C 170.582031 177.375 174.308594 178.855469 177.683594 180.519531 C 177.15625 183.1875 176.511719 185.878906 175.75 188.558594 C 171.996094 186.734375 167.824219 185.148438 163.308594 183.851562 Z M 161.386719 191.972656 C 162.042969 189.492188 162.628906 187.023438 163.144531 184.582031 C 167.652344 185.878906 171.8125 187.464844 175.539062 189.289062 C 174.839844 191.683594 174.050781 194.074219 173.175781 196.449219 C 169.621094 194.71875 165.664062 193.210938 161.386719 191.972656 Z M 170.621094 202.75 C 169.101562 206.171875 167.429688 209.476562 165.605469 212.65625 C 162.722656 211.242188 159.515625 210.023438 156.046875 209.015625 C 157.074219 206.238281 158.054688 203.375 158.96875 200.453125 C 159.773438 197.851562 160.523438 195.265625 161.207031 192.710938 C 165.453125 193.929688 169.382812 195.421875 172.917969 197.148438 C 172.195312 199.03125 171.449219 200.90625 170.621094 202.75 Z M 173.273438 217.519531 C 171.273438 215.855469 168.921875 214.335938 166.277344 212.992188 C 168.105469 209.804688 169.785156 206.488281 171.3125 203.058594 C 172.128906 201.214844 172.886719 199.359375 173.589844 197.484375 C 176.921875 199.175781 179.875 201.078125 182.351562 203.171875 C 179.84375 208.101562 176.800781 212.914062 173.273438 217.519531 Z M 175.144531 219.21875 C 174.734375 218.804688 174.292969 218.402344 173.839844 218.007812 C 177.367188 213.414062 180.421875 208.613281 182.9375 203.683594 C 183.4375 204.132812 183.929688 204.574219 184.378906 205.039062 C 186.0625 206.71875 187.386719 208.4375 188.367188 210.207031 C 188.105469 210.65625 187.847656 211.109375 187.578125 211.550781 C 184.9375 215.828125 181.863281 219.792969 178.414062 223.425781 C 177.585938 221.976562 176.5 220.582031 175.144531 219.21875 Z M 162.503906 231.824219 C 162.242188 231.574219 161.964844 231.324219 161.6875 231.082031 C 165.808594 227.421875 169.707031 223.28125 173.234375 218.804688 C 173.28125 218.738281 173.332031 218.660156 173.378906 218.601562 C 173.8125 218.976562 174.222656 219.363281 174.609375 219.746094 C 175.980469 221.121094 177.058594 222.542969 177.867188 223.992188 C 173.972656 228 169.582031 231.582031 164.769531 234.714844 C 164.195312 233.726562 163.433594 232.765625 162.503906 231.824219 Z M 147.714844 241.324219 C 147.660156 241.269531 147.609375 241.230469 147.554688 241.183594 C 152.175781 238.65625 156.757812 235.386719 161.117188 231.582031 C 161.417969 231.832031 161.707031 232.09375 161.972656 232.363281 C 162.867188 233.265625 163.589844 234.1875 164.144531 235.128906 C 159.4375 238.136719 154.335938 240.703125 148.878906 242.796875 C 148.570312 242.285156 148.1875 241.796875 147.714844 241.324219 Z M 101.792969 231.5625 C 106.164062 235.378906 110.753906 238.644531 115.375 241.171875 C 115.320312 241.230469 115.261719 241.269531 115.214844 241.324219 C 114.742188 241.796875 114.359375 242.285156 114.042969 242.796875 C 108.582031 240.703125 103.492188 238.125 98.785156 235.128906 C 99.515625 233.871094 100.53125 232.679688 101.792969 231.5625 Z M 89.542969 218.59375 C 89.597656 218.660156 89.648438 218.738281 89.703125 218.804688 C 93.222656 223.28125 97.121094 227.421875 101.242188 231.074219 C 100.964844 231.324219 100.6875 231.574219 100.417969 231.824219 C 99.484375 232.753906 98.726562 233.726562 98.148438 234.714844 C 93.347656 231.582031 88.957031 227.988281 85.0625 223.992188 C 86.113281 222.089844 87.628906 220.273438 89.542969 218.59375 Z M 89.089844 218 C 88.636719 218.390625 88.195312 218.804688 87.78125 219.21875 C 86.417969 220.574219 85.34375 221.976562 84.515625 223.40625 C 81.058594 219.785156 77.992188 215.828125 75.359375 211.550781 C 75.082031 211.109375 74.832031 210.65625 74.5625 210.207031 C 75.839844 207.902344 77.675781 205.71875 79.992188 203.683594 C 82.519531 208.601562 85.5625 213.40625 89.089844 218 Z M 91.625 203.058594 C 93.144531 206.476562 94.824219 209.792969 96.652344 212.984375 C 94.007812 214.335938 91.65625 215.855469 89.667969 217.507812 C 86.140625 212.914062 83.085938 208.101562 80.578125 203.171875 C 83.035156 201.109375 85.988281 199.207031 89.347656 197.515625 C 90.058594 199.378906 90.820312 201.222656 91.625 203.058594 Z M 103.972656 200.453125 C 104.886719 203.375 105.863281 206.238281 106.882812 209.015625 C 103.414062 210.015625 100.207031 211.242188 97.324219 212.65625 C 95.507812 209.476562 93.828125 206.171875 92.308594 202.75 C 91.492188 200.914062 90.742188 199.050781 90.03125 197.167969 C 93.539062 195.46875 97.46875 193.96875 101.742188 192.738281 C 102.425781 195.285156 103.15625 197.871094 103.972656 200.453125 Z M 115.875 189.789062 C 116.636719 195.601562 117.519531 201.269531 118.5 206.585938 C 114.703125 207.101562 111.082031 207.84375 107.691406 208.785156 C 105.777344 203.632812 104.019531 198.148438 102.519531 192.519531 C 106.679688 191.347656 111.160156 190.433594 115.875 189.789062 Z M 114.894531 181.46875 C 115.15625 183.996094 115.453125 186.53125 115.769531 189.03125 C 111.054688 189.664062 106.539062 190.578125 102.320312 191.757812 C 101.675781 189.328125 101.089844 186.867188 100.5625 184.398438 C 105.019531 183.152344 109.832031 182.152344 114.894531 181.46875 Z M 114.050781 172.1875 C 114.183594 173.945312 114.320312 175.5625 114.453125 176.984375 C 114.558594 178.222656 114.683594 179.472656 114.820312 180.710938 C 109.746094 181.382812 104.902344 182.371094 100.386719 183.632812 C 99.800781 180.855469 99.285156 178.078125 98.859375 175.300781 C 103.585938 173.964844 108.691406 172.917969 114.050781 172.1875 Z M 114.003906 171.4375 C 108.640625 172.148438 103.519531 173.1875 98.746094 174.53125 C 97.957031 169.34375 97.476562 164.203125 97.390625 159.265625 C 102.339844 157.84375 107.691406 156.71875 113.339844 155.953125 C 113.386719 161.535156 113.675781 166.933594 114.003906 171.4375 Z M 131.085938 170.296875 C 125.4375 170.304688 119.910156 170.671875 114.609375 171.351562 C 114.222656 166.039062 113.992188 160.824219 113.953125 155.863281 C 119.421875 155.132812 125.167969 154.761719 131.085938 154.742188 Z M 148.320312 171.382812 C 143.027344 170.691406 137.492188 170.316406 131.835938 170.296875 L 131.835938 154.742188 C 137.722656 154.75 143.480469 155.132812 148.984375 155.855469 C 148.945312 160.824219 148.714844 166.050781 148.320312 171.382812 Z M 148.9375 171.457031 C 149.261719 166.941406 149.542969 161.542969 149.597656 155.933594 C 155.210938 156.691406 160.5625 157.804688 165.546875 159.238281 C 165.453125 164.195312 164.972656 169.375 164.183594 174.589844 C 159.417969 173.234375 154.296875 172.179688 148.9375 171.457031 Z M 148.121094 180.710938 C 148.246094 179.472656 148.371094 178.222656 148.484375 176.984375 C 148.609375 175.570312 148.746094 173.976562 148.878906 172.226562 C 154.171875 172.949219 159.273438 174.015625 164.070312 175.386719 C 163.636719 178.136719 163.128906 180.882812 162.539062 183.632812 C 158.023438 182.371094 153.183594 181.382812 148.121094 180.710938 Z M 147.160156 189.03125 C 147.476562 186.523438 147.773438 183.996094 148.042969 181.449219 C 153.078125 182.132812 157.902344 183.101562 162.386719 184.363281 C 161.847656 186.851562 161.261719 189.320312 160.621094 191.757812 C 156.390625 190.578125 151.886719 189.664062 147.160156 189.03125 Z M 144.429688 206.585938 C 145.410156 201.261719 146.304688 195.59375 147.0625 189.78125 C 151.75 190.414062 156.238281 191.316406 160.425781 192.488281 C 158.917969 198.128906 157.152344 203.632812 155.25 208.792969 C 151.855469 207.84375 148.226562 207.101562 144.429688 206.585938 Z M 148.484375 224.445312 C 146.09375 223.78125 143.535156 223.242188 140.867188 222.871094 C 142.078125 218.296875 143.238281 213.019531 144.304688 207.324219 C 148.050781 207.832031 151.636719 208.5625 154.988281 209.496094 C 152.941406 214.972656 150.722656 220.035156 148.484375 224.445312 Z M 155.625 227.125 C 153.691406 226.183594 151.570312 225.367188 149.273438 224.675781 C 151.539062 220.21875 153.75 215.152344 155.785156 209.714844 C 159.214844 210.707031 162.398438 211.917969 165.242188 213.308594 C 162.378906 218.246094 159.148438 222.871094 155.625 227.125 Z M 156.304688 227.472656 C 159.820312 223.214844 163.050781 218.585938 165.914062 213.644531 C 168.527344 214.972656 170.84375 216.480469 172.8125 218.113281 C 172.753906 218.191406 172.695312 218.257812 172.640625 218.335938 C 169.121094 222.8125 165.222656 226.941406 161.117188 230.585938 C 159.734375 229.441406 158.121094 228.394531 156.304688 227.472656 Z M 148.925781 225.359375 C 151.164062 226.019531 153.25 226.800781 155.125 227.703125 C 151.695312 231.777344 147.976562 235.503906 144.015625 238.800781 C 143.113281 238.367188 142.125 237.972656 141.066406 237.644531 C 143.632812 234.628906 146.3125 230.402344 148.925781 225.359375 Z M 140.671875 223.609375 C 143.285156 223.964844 145.792969 224.484375 148.140625 225.136719 C 145.476562 230.296875 142.789062 234.515625 140.28125 237.414062 C 138.964844 237.050781 137.5625 236.761719 136.101562 236.570312 C 137.609375 233.660156 139.164062 229.171875 140.671875 223.609375 Z M 131.835938 222.996094 C 134.628906 223.003906 137.359375 223.1875 139.980469 223.511719 C 138.453125 229.085938 136.859375 233.574219 135.292969 236.472656 C 134.179688 236.347656 133.015625 236.28125 131.835938 236.273438 Z M 127.636719 236.472656 C 126.070312 233.574219 124.476562 229.085938 122.957031 223.511719 C 125.550781 223.175781 128.28125 223.003906 131.085938 222.984375 L 131.085938 236.273438 C 129.914062 236.28125 128.75 236.347656 127.636719 236.472656 Z M 122.660156 237.414062 C 120.152344 234.515625 117.460938 230.296875 114.800781 225.136719 C 117.136719 224.492188 119.632812 223.972656 122.265625 223.609375 C 123.765625 229.179688 125.320312 233.660156 126.839844 236.570312 C 125.367188 236.753906 123.964844 237.039062 122.660156 237.414062 Z M 118.921875 238.800781 C 114.964844 235.503906 111.246094 231.777344 107.804688 227.710938 C 109.6875 226.816406 111.765625 226.03125 114.011719 225.359375 C 116.625 230.402344 119.304688 234.628906 121.863281 237.636719 C 120.804688 237.972656 119.816406 238.355469 118.921875 238.800781 Z M 106.625 227.460938 C 104.816406 228.394531 103.195312 229.441406 101.808594 230.574219 C 97.707031 226.933594 93.808594 222.8125 90.300781 218.335938 C 90.234375 218.257812 90.175781 218.179688 90.117188 218.105469 C 92.066406 216.488281 94.394531 215 97.027344 213.664062 C 99.890625 218.59375 103.109375 223.214844 106.625 227.460938 Z M 113.65625 224.675781 C 111.371094 225.359375 109.238281 226.175781 107.316406 227.117188 C 103.789062 222.871094 100.570312 218.257812 97.707031 213.328125 C 100.53125 211.945312 103.710938 210.746094 107.152344 209.746094 C 109.1875 215.164062 111.398438 220.226562 113.65625 224.675781 Z M 122.0625 222.871094 C 119.394531 223.242188 116.847656 223.78125 114.453125 224.445312 C 112.214844 220.035156 110.003906 214.972656 107.960938 209.503906 C 111.292969 208.582031 114.867188 207.851562 118.632812 207.332031 C 119.699219 213.019531 120.863281 218.296875 122.0625 222.871094 Z M 131.085938 206.476562 L 131.085938 222.234375 C 128.222656 222.253906 125.4375 222.445312 122.753906 222.78125 C 121.535156 218.210938 120.351562 212.933594 119.277344 207.246094 C 123.054688 206.757812 127.011719 206.496094 131.085938 206.476562 Z M 131.085938 188.753906 L 131.085938 205.730469 C 126.984375 205.738281 122.976562 206.007812 119.144531 206.496094 C 118.144531 201.175781 117.25 195.496094 116.492188 189.703125 C 121.160156 189.097656 126.050781 188.769531 131.085938 188.753906 Z M 131.085938 180.363281 L 131.085938 188.003906 C 126.042969 188.011719 121.121094 188.339844 116.394531 188.945312 C 116.066406 186.445312 115.769531 183.917969 115.5 181.375 C 120.488281 180.738281 125.703125 180.382812 131.085938 180.363281 Z M 131.085938 179.613281 C 125.714844 179.625 120.460938 179.96875 115.425781 180.625 C 115.136719 177.78125 114.878906 174.925781 114.664062 172.113281 C 119.910156 171.429688 125.417969 171.0625 131.085938 171.046875 Z M 131.835938 179.613281 L 131.835938 171.054688 C 137.425781 171.074219 142.941406 171.457031 148.265625 172.148438 C 148.0625 174.957031 147.800781 177.789062 147.503906 180.625 C 142.46875 179.96875 137.214844 179.625 131.835938 179.613281 Z M 131.835938 188.003906 L 131.835938 180.363281 C 137.195312 180.382812 142.421875 180.71875 147.4375 181.363281 C 147.167969 183.910156 146.871094 186.445312 146.542969 188.953125 C 141.816406 188.339844 136.886719 188.011719 131.835938 188.003906 Z M 131.835938 205.730469 L 131.835938 188.753906 C 136.851562 188.761719 141.75 189.089844 146.449219 189.695312 C 145.6875 195.496094 144.785156 201.175781 143.796875 206.507812 C 139.953125 206.007812 135.9375 205.738281 131.835938 205.730469 Z M 131.835938 206.476562 C 135.898438 206.496094 139.855469 206.746094 143.660156 207.238281 C 142.585938 212.933594 141.402344 218.210938 140.175781 222.792969 C 137.492188 222.445312 134.699219 222.253906 131.835938 222.234375 Z M 115.960938 240.644531 C 111.351562 238.136719 106.738281 234.886719 102.367188 231.066406 C 103.710938 229.980469 105.308594 228.96875 107.113281 228.058594 C 110.542969 232.132812 114.253906 235.847656 118.191406 239.171875 C 117.367188 239.617188 116.617188 240.105469 115.960938 240.644531 Z M 144.738281 239.171875 C 148.6875 235.859375 152.394531 232.132812 155.816406 228.058594 C 157.601562 228.96875 159.1875 229.980469 160.542969 231.09375 C 156.171875 234.898438 151.578125 238.144531 146.96875 240.652344 C 146.3125 240.113281 145.574219 239.625 144.738281 239.171875 Z M 139.289062 255.765625 C 138.53125 255.59375 137.800781 255.199219 137.101562 254.605469 C 138.339844 254.402344 139.511719 254.132812 140.617188 253.816406 C 142.058594 254.390625 143.46875 254.746094 144.988281 254.882812 C 143.113281 255.257812 141.203125 255.546875 139.289062 255.765625 Z M 146.910156 249.183594 C 144.046875 252.058594 137.972656 253.910156 131.460938 253.910156 C 124.945312 253.910156 118.882812 252.058594 116.011719 249.183594 C 114.894531 248.070312 114.328125 246.878906 114.328125 245.660156 C 114.328125 241.09375 122.015625 237.386719 131.460938 237.386719 C 137.972656 237.386719 144.046875 239.25 146.910156 242.125 C 148.035156 243.238281 148.601562 244.429688 148.601562 245.660156 C 148.601562 246.878906 148.035156 248.070312 146.910156 249.183594 Z M 72.46875 217.691406 C 72.507812 215.386719 73.09375 213.144531 74.160156 210.984375 C 74.34375 211.3125 74.523438 211.628906 74.726562 211.953125 C 77.425781 216.335938 80.585938 220.398438 84.140625 224.117188 C 83.285156 225.808594 82.796875 227.546875 82.671875 229.324219 C 78.992188 226.03125 75.503906 222.175781 72.46875 217.691406 Z M 83.382812 229.960938 C 83.429688 228.144531 83.882812 226.386719 84.699219 224.695312 C 88.609375 228.671875 92.992188 232.257812 97.792969 235.378906 C 97.1875 236.589844 96.851562 237.828125 96.765625 239.097656 C 92.328125 236.753906 87.734375 233.746094 83.382812 229.960938 Z M 100.957031 247.03125 C 100.1875 246.273438 99.5625 245.484375 99.054688 244.6875 C 104.175781 246.542969 109.304688 247.6875 113.878906 248.203125 C 114.136719 248.695312 114.464844 249.15625 114.867188 249.617188 C 110.71875 249.800781 106.199219 249.15625 101.828125 247.847656 C 101.53125 247.582031 101.222656 247.3125 100.957031 247.03125 Z M 112.003906 253.402344 C 111.273438 253.152344 110.554688 252.882812 109.863281 252.605469 C 112.273438 252.875 114.761719 252.71875 118.488281 252.289062 C 119.316406 252.71875 120.210938 253.105469 121.179688 253.429688 C 119.132812 254.125 117.085938 254.335938 114.589844 254.105469 C 114.578125 254.105469 114.558594 254.105469 114.558594 254.105469 C 113.703125 253.894531 112.851562 253.652344 112.003906 253.402344 Z M 150.914062 253.402344 C 150.070312 253.652344 149.226562 253.882812 148.371094 254.105469 C 148.359375 254.105469 148.359375 254.105469 148.351562 254.105469 C 145.851562 254.335938 143.824219 254.125 141.789062 253.441406 C 142.757812 253.105469 143.660156 252.71875 144.476562 252.296875 C 148.175781 252.71875 150.65625 252.875 153.058594 252.605469 C 152.367188 252.882812 151.644531 253.152344 150.914062 253.402344 Z M 161.089844 247.847656 C 156.71875 249.15625 152.210938 249.800781 148.082031 249.617188 C 148.476562 249.15625 148.800781 248.695312 149.070312 248.203125 C 153.625 247.6875 158.753906 246.550781 163.875 244.699219 C 163.359375 245.484375 162.734375 246.273438 161.972656 247.03125 C 161.695312 247.3125 161.386719 247.582031 161.089844 247.847656 Z M 166.152344 239.105469 C 166.078125 237.828125 165.730469 236.597656 165.125 235.378906 C 169.9375 232.257812 174.320312 228.683594 178.230469 224.695312 C 179.066406 226.40625 179.5 228.171875 179.535156 229.96875 C 175.183594 233.746094 170.59375 236.761719 166.152344 239.105469 Z M 180.257812 229.335938 C 180.132812 227.558594 179.644531 225.820312 178.777344 224.128906 C 182.351562 220.398438 185.511719 216.335938 188.210938 211.953125 C 188.40625 211.628906 188.585938 211.3125 188.78125 210.984375 C 189.855469 213.164062 190.421875 215.414062 190.453125 217.710938 C 187.414062 222.1875 183.9375 226.039062 180.257812 229.335938 Z M 191.152344 216.625 C 190.96875 214.433594 190.328125 212.300781 189.242188 210.214844 C 190.414062 208.167969 191.488281 206.09375 192.429688 203.980469 C 193.613281 206.355469 194.21875 208.773438 194.246094 211.261719 C 193.285156 213.136719 192.25 214.921875 191.152344 216.625 Z M 188.625 186.621094 C 185.78125 184.207031 182.382812 182.015625 178.546875 180.078125 C 179.535156 174.90625 180.085938 169.796875 180.152344 164.886719 C 184.140625 166.914062 187.625 169.21875 190.527344 171.746094 C 190.527344 176.308594 189.972656 181.007812 188.828125 185.8125 C 188.769531 186.082031 188.691406 186.351562 188.625 186.621094 Z M 155.210938 125.6875 C 157.257812 127.523438 158.996094 129.78125 160.445312 132.441406 C 156.277344 131.289062 151.820312 130.394531 147.167969 129.769531 C 146.488281 127.320312 145.632812 125.175781 144.574219 123.476562 C 148.292969 123.996094 151.855469 124.734375 155.210938 125.6875 Z M 107.691406 125.714844 C 111.042969 124.765625 114.628906 124.015625 118.355469 123.488281 C 117.296875 125.1875 116.453125 127.328125 115.769531 129.769531 C 111.121094 130.40625 106.664062 131.296875 102.492188 132.441406 C 103.925781 129.808594 105.652344 127.550781 107.691406 125.714844 Z M 74.101562 185.8125 C 72.96875 181.007812 72.410156 176.300781 72.402344 171.738281 C 75.273438 169.25 78.761719 166.953125 82.777344 164.914062 C 82.855469 169.785156 83.390625 174.839844 84.371094 179.96875 C 80.527344 181.902344 77.128906 184.074219 74.273438 186.476562 C 74.21875 186.253906 74.160156 186.03125 74.101562 185.8125 Z M 65.628906 203.558594 C 65.628906 200.914062 66.269531 198.339844 67.492188 195.882812 C 68.210938 198.300781 69.097656 200.703125 70.113281 203.066406 C 68.921875 205.269531 68.222656 207.535156 68 209.839844 C 67.136719 208.035156 66.347656 206.152344 65.648438 204.183594 C 65.636719 203.980469 65.628906 203.769531 65.628906 203.558594 Z M 69.183594 215.328125 C 68.980469 214.558594 68.847656 213.789062 68.769531 213.011719 C 69.691406 214.710938 70.671875 216.34375 71.710938 217.890625 C 71.710938 217.902344 71.710938 217.910156 71.710938 217.921875 C 71.710938 219.027344 71.835938 220.121094 72.074219 221.207031 C 71.007812 219.296875 70.046875 217.335938 69.183594 215.328125 Z M 76.925781 228.652344 C 76.878906 228.605469 76.832031 228.566406 76.773438 228.546875 C 75.753906 227.164062 74.804688 225.742188 73.898438 224.292969 C 73.113281 222.570312 72.640625 220.8125 72.507812 219.035156 C 75.542969 223.359375 78.992188 227.085938 82.625 230.277344 C 82.632812 232.035156 83.019531 233.773438 83.757812 235.464844 C 81.238281 233.464844 78.914062 231.207031 76.925781 228.652344 Z M 88.761719 241.105469 C 87.773438 240.164062 86.910156 239.191406 86.1875 238.195312 C 89.886719 240.703125 93.882812 242.710938 97.929688 244.265625 C 98.484375 245.3125 99.234375 246.320312 100.1875 247.3125 C 97.09375 246.246094 94.125 244.851562 91.445312 243.179688 C 90.539062 242.507812 89.648438 241.824219 88.761719 241.105469 Z M 174.167969 241.105469 C 173.261719 241.835938 172.339844 242.546875 171.410156 243.226562 C 168.738281 244.898438 165.769531 246.273438 162.695312 247.332031 C 163.636719 246.359375 164.394531 245.332031 164.972656 244.273438 C 169.015625 242.726562 173.011719 240.71875 176.710938 238.210938 C 176 239.203125 175.144531 240.171875 174.167969 241.105469 Z M 186.148438 228.546875 C 186.097656 228.566406 186.050781 228.605469 186.011719 228.652344 C 184.015625 231.21875 181.679688 233.476562 179.164062 235.484375 C 179.902344 233.785156 180.285156 232.042969 180.296875 230.285156 C 183.929688 227.097656 187.378906 223.367188 190.414062 219.066406 C 190.277344 220.84375 189.796875 222.589844 189.019531 224.308594 C 188.117188 225.75 187.164062 227.164062 186.148438 228.546875 Z M 190.84375 221.207031 C 191.085938 220.132812 191.210938 219.027344 191.210938 217.921875 C 192.25 216.363281 193.226562 214.75 194.152344 213.039062 C 194.074219 213.808594 193.9375 214.566406 193.746094 215.335938 C 192.871094 217.335938 191.910156 219.304688 190.84375 221.207031 Z M 193.402344 160.660156 C 192.140625 159.027344 190.625 157.460938 188.90625 155.960938 C 188.308594 154.105469 187.609375 152.28125 186.800781 150.503906 C 188.039062 151.695312 189.144531 152.925781 190.085938 154.210938 C 191.316406 156.296875 192.410156 158.457031 193.402344 160.660156 Z M 172.609375 136.871094 C 169.207031 135.265625 165.460938 133.871094 161.445312 132.71875 C 160.140625 130.183594 158.582031 127.992188 156.765625 126.128906 C 159.4375 126.957031 161.964844 127.925781 164.308594 129.011719 C 165.222656 129.519531 166.125 130.039062 167.019531 130.597656 C 169.132812 132.324219 171.003906 134.429688 172.609375 136.871094 Z M 141.730469 121.316406 C 142.164062 121.660156 142.566406 122.054688 142.960938 122.515625 C 139.359375 122.085938 135.640625 121.851562 131.835938 121.835938 L 131.835938 120.554688 C 135.179688 120.566406 138.484375 120.824219 141.730469 121.316406 Z M 131.085938 120.546875 L 131.085938 121.835938 C 127.300781 121.851562 123.570312 122.09375 119.96875 122.527344 C 120.351562 122.066406 120.765625 121.660156 121.199219 121.316406 C 124.425781 120.824219 127.730469 120.566406 131.085938 120.546875 Z M 72.890625 154.175781 C 73.824219 152.914062 74.898438 151.695312 76.121094 150.53125 C 75.300781 152.328125 74.601562 154.175781 74.003906 156.058594 C 72.257812 157.566406 70.75 159.160156 69.488281 160.792969 C 70.507812 158.515625 71.640625 156.308594 72.890625 154.175781 Z M 63.640625 187.101562 C 63.765625 185.207031 64.207031 183.351562 64.957031 181.546875 C 65.203125 185.996094 65.964844 190.433594 67.183594 194.804688 C 65.933594 197.101562 65.195312 199.464844 64.964844 201.894531 C 64.082031 197.496094 63.621094 192.96875 63.621094 188.386719 C 63.621094 187.953125 63.628906 187.523438 63.640625 187.101562 Z M 62.464844 188.222656 C 62.464844 188.273438 62.476562 188.308594 62.496094 188.359375 C 62.496094 188.367188 62.484375 188.378906 62.484375 188.386719 C 62.484375 206.804688 69.664062 224.128906 82.691406 237.15625 C 95.71875 250.183594 113.03125 257.351562 131.460938 257.351562 C 169.46875 257.351562 200.394531 226.445312 200.433594 188.445312 C 200.460938 188.378906 200.480469 188.300781 200.480469 188.222656 C 200.480469 187.617188 200.445312 187.023438 200.386719 186.425781 C 199.894531 168.738281 192.796875 152.175781 180.230469 139.617188 C 167.199219 126.589844 149.886719 119.414062 131.460938 119.414062 C 113.042969 119.414062 95.71875 126.589844 82.691406 139.617188 C 70.046875 152.261719 62.9375 168.941406 62.535156 186.761719 C 62.484375 187.253906 62.464844 187.734375 62.464844 188.222656 " fill-opacity="1" fill-rule="nonzero"/></g><g clip-path="url(#cbd394b97c)"><path fill="#000000" d="M 204.480469 201.820312 C 203.429688 201.90625 202.757812 202.605469 202.96875 203.375 C 203.183594 204.152344 204.199219 204.710938 205.246094 204.625 C 212.570312 204.007812 218.449219 202.90625 222.492188 201.328125 C 226.789062 199.65625 229.140625 197.429688 229.140625 194.652344 C 229.140625 188.886719 218.152344 182.199219 200.394531 176.058594 C 183.253906 170.132812 159.609375 164.519531 133.527344 160.648438 C 120.34375 158.699219 107.816406 157.375 96.429688 156.644531 C 79.941406 155.585938 65.820312 155.796875 55.625 157.179688 C 44.808594 158.652344 38.207031 161.542969 37.523438 165.789062 C 37.488281 166.039062 37.46875 166.289062 37.46875 166.53125 C 37.46875 168.921875 39.253906 171.417969 42.558594 173.945312 C 45.738281 176.359375 50.371094 178.847656 56.191406 181.304688 C 57.152344 181.710938 58.316406 181.507812 58.785156 180.835938 C 59.257812 180.171875 58.863281 179.308594 57.902344 178.894531 C 52.4375 176.589844 48.121094 174.28125 45.25 172.09375 C 42.714844 170.160156 41.339844 168.363281 41.339844 166.777344 C 41.339844 166.625 41.359375 166.480469 41.378906 166.355469 C 41.859375 163.367188 47.421875 161.207031 56.636719 159.957031 C 66.472656 158.613281 80.25 158.429688 96.429688 159.457031 C 107.691406 160.179688 120.085938 161.496094 133.082031 163.425781 C 158.851562 167.242188 182.160156 172.765625 199.003906 178.585938 C 215.21875 184.199219 225.261719 189.914062 225.261719 194.402344 C 225.261719 196.121094 223.558594 197.601562 220.445312 198.8125 C 216.785156 200.234375 211.339844 201.242188 204.480469 201.820312 " fill-opacity="1" fill-rule="nonzero"/></g><g clip-path="url(#91ec649c62)"><path fill="#000000" d="M 202.683594 117.835938 L 202.777344 117.835938 C 203.429688 126.4375 210.292969 133.304688 218.890625 133.949219 L 218.890625 134.054688 C 210.292969 134.699219 203.429688 141.570312 202.777344 150.167969 L 202.683594 150.167969 C 202.027344 141.570312 195.167969 134.699219 186.570312 134.054688 L 186.570312 133.949219 C 195.167969 133.304688 202.027344 126.4375 202.683594 117.835938 " fill-opacity="1" fill-rule="evenodd"/></g><path fill="#000000" d="M 219.148438 147.507812 L 219.199219 147.507812 C 219.46875 151.167969 222.386719 154.085938 226.039062 154.355469 L 226.039062 154.40625 C 222.386719 154.671875 219.46875 157.59375 219.199219 161.246094 L 219.148438 161.246094 C 218.878906 157.59375 215.960938 154.671875 212.300781 154.40625 L 212.300781 154.355469 C 215.960938 154.085938 218.878906 151.167969 219.148438 147.507812 " fill-opacity="1" fill-rule="evenodd"/><path stroke-linecap="butt" transform="matrix(0.75, 0, 0, 0.75, 19.600307, 162.031981)" fill="none" stroke-linejoin="miter" d="M 71.444387 32.993819 L 71.444387 18.400068 L 98.126681 18.400068 L 98.126681 32.993819 L 89.631889 32.321944 L 89.78293 38.077152 L 98.126681 37.410486 L 98.126681 51.999028 L 71.444387 51.999028 L 71.444387 37.410486 L 79.798555 38.077152 L 79.93918 32.321944 Z M 114.782932 38.853194 L 111.387098 38.853194 L 112.673557 51.999028 L 100.439181 51.999028 L 100.439181 18.400068 L 117.808974 18.400068 C 120.564182 18.431318 123.006891 18.769859 125.131891 19.410484 C 127.256891 20.05111 128.91835 21.087568 130.121475 22.525068 C 131.3246 23.962568 131.928766 25.931318 131.928766 28.431318 C 131.928766 30.95736 130.798558 33.009444 128.54335 34.597985 C 126.282933 36.181319 122.866266 36.978194 118.288141 36.978194 L 118.288141 37.551111 L 121.262099 37.551111 C 123.887099 37.551111 126.048558 38.160486 127.746475 39.379236 C 129.439183 40.587569 130.652725 42.275069 131.3871 44.441736 C 132.131891 46.597986 132.340225 49.11882 132.022516 51.999028 L 118.241266 51.999028 C 118.621474 50.40007 118.855849 48.821945 118.933974 47.27507 C 119.017307 45.722986 118.939182 44.306319 118.699599 43.025069 C 118.454807 41.743819 118.012099 40.728194 117.371474 39.978194 C 116.741265 39.228194 115.876682 38.853194 114.782932 38.853194 Z M 117.137099 32.077152 L 111.387098 32.077152 L 111.387098 35.394861 L 117.090224 35.394861 C 118.210016 35.394861 119.105849 35.259444 119.777724 34.983402 C 120.449599 34.712569 120.782932 34.306319 120.782932 33.764652 C 120.782932 33.124027 120.439182 32.681319 119.751682 32.441735 C 119.064182 32.196944 118.194391 32.077152 117.137099 32.077152 Z M 157.366268 51.999028 L 143.782934 51.999028 L 132.308975 18.400068 L 147.194392 18.400068 L 150.215226 37.025069 L 150.980851 37.025069 L 153.86106 18.400068 L 168.793352 18.400068 Z M 169.173561 32.993819 L 169.173561 18.400068 L 195.855854 18.400068 L 195.855854 32.993819 L 187.361062 32.321944 L 187.512103 38.077152 L 195.855854 37.410486 L 195.855854 51.999028 L 169.173561 51.999028 L 169.173561 37.410486 L 177.527728 38.077152 L 177.668353 32.321944 Z M 231.329815 51.999028 L 221.111064 51.999028 L 209.970438 33.285485 L 209.345438 33.472985 L 212.418355 51.999028 L 198.168354 51.999028 L 198.168354 18.400068 L 208.678771 18.400068 L 219.470439 33.285485 L 220.199606 33.087569 L 217.704814 18.400068 L 231.329815 18.400068 Z M 231.329815 51.999028 " stroke="#ffffff" stroke-width="12.6" stroke-opacity="1" stroke-miterlimit="4"/><g fill="#000000" fill-opacity="1"><g transform="translate(72.463584, 201.031979)"><g><path d="M 0.71875 -14.25 L 0.71875 -25.203125 L 20.734375 -25.203125 L 20.734375 -14.25 L 14.359375 -14.765625 L 14.46875 -10.4375 L 20.734375 -10.9375 L 20.734375 0 L 0.71875 0 L 0.71875 -10.9375 L 6.984375 -10.4375 L 7.09375 -14.765625 Z M 0.71875 -14.25 "/></g></g></g><g fill="#000000" fill-opacity="1"><g transform="translate(93.91963, 201.031979)"><g><path d="M 11.765625 -9.859375 L 9.21875 -9.859375 L 10.1875 0 L 1.015625 0 L 1.015625 -25.203125 L 14.046875 -25.203125 C 16.109375 -25.171875 17.9375 -24.914062 19.53125 -24.4375 C 21.125 -23.957031 22.367188 -23.175781 23.265625 -22.09375 C 24.171875 -21.019531 24.625 -19.546875 24.625 -17.671875 C 24.625 -15.773438 23.773438 -14.234375 22.078125 -13.046875 C 20.390625 -11.859375 17.832031 -11.265625 14.40625 -11.265625 L 14.40625 -10.84375 L 16.625 -10.84375 C 18.59375 -10.84375 20.210938 -10.382812 21.484375 -9.46875 C 22.765625 -8.550781 23.679688 -7.28125 24.234375 -5.65625 C 24.785156 -4.039062 24.941406 -2.15625 24.703125 0 L 14.359375 0 C 14.648438 -1.195312 14.820312 -2.378906 14.875 -3.546875 C 14.9375 -4.710938 14.878906 -5.773438 14.703125 -6.734375 C 14.523438 -7.691406 14.195312 -8.453125 13.71875 -9.015625 C 13.238281 -9.578125 12.585938 -9.859375 11.765625 -9.859375 Z M 13.53125 -14.9375 L 9.21875 -14.9375 L 9.21875 -12.453125 L 13.5 -12.453125 C 14.34375 -12.453125 15.015625 -12.550781 15.515625 -12.75 C 16.015625 -12.957031 16.265625 -13.269531 16.265625 -13.6875 C 16.265625 -14.164062 16.003906 -14.492188 15.484375 -14.671875 C 14.972656 -14.847656 14.320312 -14.9375 13.53125 -14.9375 Z M 13.53125 -14.9375 "/></g></g></g><g fill="#000000" fill-opacity="1"><g transform="translate(119.26368, 201.031979)"><g><path d="M 18.359375 0 L 8.171875 0 L -0.4375 -25.203125 L 10.734375 -25.203125 L 13 -11.234375 L 13.578125 -11.234375 L 15.734375 -25.203125 L 26.921875 -25.203125 Z M 18.359375 0 "/></g></g></g><g fill="#000000" fill-opacity="1"><g transform="translate(145.759737, 201.031979)"><g><path d="M 0.71875 -14.25 L 0.71875 -25.203125 L 20.734375 -25.203125 L 20.734375 -14.25 L 14.359375 -14.765625 L 14.46875 -10.4375 L 20.734375 -10.9375 L 20.734375 0 L 0.71875 0 L 0.71875 -10.9375 L 6.984375 -10.4375 L 7.09375 -14.765625 Z M 0.71875 -14.25 "/></g></g></g><g fill="#000000" fill-opacity="1"><g transform="translate(167.215783, 201.031979)"><g><path d="M 25.890625 0 L 18.21875 0 L 9.859375 -14.046875 L 9.390625 -13.890625 L 11.703125 0 L 1.015625 0 L 1.015625 -25.203125 L 8.890625 -25.203125 L 16.984375 -14.046875 L 17.53125 -14.1875 L 15.65625 -25.203125 L 25.890625 -25.203125 Z M 25.890625 0 "/></g></g></g><path stroke-linecap="butt" transform="matrix(0.75, 0, 0, 0.75, 193.791407, 173.249989)" fill="none" stroke-linejoin="miter" d="M 81.048963 15.000016 L 81.048963 4.177099 L 83.830213 4.177099 L 83.830213 15.000016 Z M 89.700005 15.000016 L 89.700005 4.177099 L 92.642713 4.177099 L 100.934381 11.911474 L 101.022922 12.010433 L 101.022922 4.177099 L 103.673964 4.177099 L 103.673964 15.000016 L 100.731256 15.000016 L 92.413547 7.265641 L 92.335422 7.192724 L 92.335422 15.000016 Z M 109.538548 15.000016 L 109.538548 4.177099 L 112.319798 4.177099 L 112.319798 15.000016 Z M 124.715632 15.265641 C 123.22084 15.265641 121.913549 15.041683 120.798965 14.604183 C 119.679174 14.156266 118.81459 13.515641 118.200007 12.671891 C 117.580215 11.822933 117.272923 10.796891 117.272923 9.593766 C 117.272923 8.380224 117.580215 7.354182 118.200007 6.510432 C 118.81459 5.671891 119.679174 5.036474 120.798965 4.598974 C 121.913549 4.161474 123.22084 3.942724 124.715632 3.942724 C 126.075007 3.942724 127.288549 4.135432 128.356257 4.51564 C 129.423966 4.901057 130.288549 5.447932 130.934383 6.151057 C 131.585424 6.854182 131.960424 7.687516 132.059383 8.645849 L 129.335424 8.645849 C 129.236466 8.072932 128.970841 7.578141 128.543757 7.166682 C 128.111466 6.755224 127.564591 6.437516 126.903132 6.218766 C 126.241674 6.005224 125.528132 5.895849 124.762507 5.895849 C 123.856257 5.895849 123.054174 6.036474 122.351049 6.317724 C 121.642715 6.598974 121.090632 7.015641 120.68959 7.562516 C 120.28334 8.109391 120.085424 8.786474 120.085424 9.593766 C 120.085424 10.380224 120.28334 11.046891 120.68959 11.598974 C 121.090632 12.145849 121.642715 12.562516 122.351049 12.848974 C 123.054174 13.140641 123.856257 13.281266 124.762507 13.281266 C 125.559382 13.281266 126.288549 13.177099 126.960424 12.963558 C 127.632299 12.744808 128.179174 12.427099 128.611466 12.010433 C 129.048966 11.593766 129.304174 11.088558 129.382299 10.494808 L 132.090633 10.494808 C 132.012508 11.468766 131.647924 12.312516 130.991674 13.026058 C 130.335424 13.739599 129.465633 14.291683 128.387507 14.682308 C 127.309382 15.067724 126.085424 15.265641 124.715632 15.265641 Z M 137.048966 15.000016 L 137.048966 4.177099 L 139.835425 4.177099 L 139.835425 15.000016 Z M 152.403134 15.265641 C 150.840634 15.265641 149.486467 15.046891 148.345842 14.609391 C 147.205217 14.171891 146.325009 13.526058 145.710425 12.682308 C 145.095842 11.838558 144.78855 10.807308 144.78855 9.593766 C 144.78855 8.380224 145.095842 7.354182 145.710425 6.510432 C 146.325009 5.671891 147.205217 5.036474 148.345842 4.598974 C 149.486467 4.161474 150.840634 3.942724 152.403134 3.942724 C 153.965634 3.942724 155.319801 4.161474 156.455218 4.598974 C 157.590634 5.036474 158.470843 5.671891 159.085426 6.510432 C 159.70001 7.354182 160.01251 8.380224 160.01251 9.593766 C 160.01251 10.807308 159.70001 11.838558 159.085426 12.682308 C 158.470843 13.526058 157.590634 14.171891 156.455218 14.609391 C 155.319801 15.046891 153.965634 15.265641 152.403134 15.265641 Z M 147.595842 9.593766 C 147.595842 10.380224 147.798967 11.046891 148.200009 11.598974 C 148.606259 12.145849 149.168759 12.562516 149.892717 12.848974 C 150.616676 13.140641 151.455217 13.281266 152.403134 13.281266 C 153.356259 13.281266 154.189592 13.135433 154.908343 12.843766 C 155.632301 12.552099 156.194801 12.130224 156.595843 11.578141 C 156.996884 11.020849 157.200009 10.359391 157.200009 9.593766 C 157.200009 8.817724 156.996884 8.156266 156.595843 7.609391 C 156.194801 7.057307 155.632301 6.635432 154.908343 6.343766 C 154.189592 6.052099 153.356259 5.906266 152.403134 5.906266 C 151.455217 5.906266 150.616676 6.046891 149.892717 6.333349 C 149.168759 6.614599 148.606259 7.031266 148.200009 7.578141 C 147.798967 8.130224 147.595842 8.796891 147.595842 9.593766 Z M 147.595842 9.593766 " stroke="#ffffff" stroke-width="3.825544" stroke-opacity="1" stroke-miterlimit="4"/><g fill="#000000" fill-opacity="1"><g transform="translate(253.463278, 184.499988)"><g><path d="M 1.109375 0 L 1.109375 -8.109375 L 3.203125 -8.109375 L 3.203125 0 Z M 1.109375 0 "/></g></g></g><g fill="#000000" fill-opacity="1"><g transform="translate(259.952556, 184.499988)"><g><path d="M 1.109375 0 L 1.109375 -8.109375 L 3.3125 -8.109375 L 9.53125 -2.3125 L 9.59375 -2.234375 L 9.59375 -8.109375 L 11.59375 -8.109375 L 11.59375 0 L 9.375 0 L 3.140625 -5.796875 L 3.09375 -5.859375 L 3.09375 0 Z M 1.109375 0 "/></g></g></g><g fill="#000000" fill-opacity="1"><g transform="translate(274.829894, 184.499988)"><g><path d="M 1.109375 0 L 1.109375 -8.109375 L 3.203125 -8.109375 L 3.203125 0 Z M 1.109375 0 "/></g></g></g><g fill="#000000" fill-opacity="1"><g transform="translate(281.319171, 184.499988)"><g><path d="M 6 0.203125 C 4.882812 0.203125 3.90625 0.0351562 3.0625 -0.296875 C 2.226562 -0.628906 1.578125 -1.113281 1.109375 -1.75 C 0.648438 -2.382812 0.421875 -3.148438 0.421875 -4.046875 C 0.421875 -4.960938 0.648438 -5.734375 1.109375 -6.359375 C 1.578125 -6.992188 2.226562 -7.472656 3.0625 -7.796875 C 3.90625 -8.128906 4.882812 -8.296875 6 -8.296875 C 7.019531 -8.296875 7.929688 -8.148438 8.734375 -7.859375 C 9.535156 -7.566406 10.179688 -7.15625 10.671875 -6.625 C 11.160156 -6.101562 11.441406 -5.484375 11.515625 -4.765625 L 9.46875 -4.765625 C 9.394531 -5.191406 9.195312 -5.554688 8.875 -5.859375 C 8.550781 -6.171875 8.140625 -6.410156 7.640625 -6.578125 C 7.148438 -6.742188 6.617188 -6.828125 6.046875 -6.828125 C 5.367188 -6.828125 4.765625 -6.71875 4.234375 -6.5 C 3.703125 -6.289062 3.285156 -5.976562 2.984375 -5.5625 C 2.679688 -5.15625 2.53125 -4.648438 2.53125 -4.046875 C 2.53125 -3.460938 2.679688 -2.960938 2.984375 -2.546875 C 3.285156 -2.140625 3.703125 -1.828125 4.234375 -1.609375 C 4.765625 -1.390625 5.367188 -1.28125 6.046875 -1.28125 C 6.640625 -1.28125 7.1875 -1.359375 7.6875 -1.515625 C 8.1875 -1.679688 8.597656 -1.921875 8.921875 -2.234375 C 9.253906 -2.546875 9.445312 -2.925781 9.5 -3.375 L 11.53125 -3.375 C 11.476562 -2.644531 11.203125 -2.007812 10.703125 -1.46875 C 10.210938 -0.9375 9.5625 -0.523438 8.75 -0.234375 C 7.945312 0.0546875 7.03125 0.203125 6 0.203125 Z M 6 0.203125 "/></g></g></g><g fill="#000000" fill-opacity="1"><g transform="translate(295.46474, 184.499988)"><g><path d="M 1.109375 0 L 1.109375 -8.109375 L 3.203125 -8.109375 L 3.203125 0 Z M 1.109375 0 "/></g></g></g><g fill="#000000" fill-opacity="1"><g transform="translate(301.95402, 184.499988)"><g><path d="M 6.140625 0.203125 C 4.960938 0.203125 3.945312 0.0390625 3.09375 -0.28125 C 2.238281 -0.613281 1.578125 -1.097656 1.109375 -1.734375 C 0.648438 -2.367188 0.421875 -3.140625 0.421875 -4.046875 C 0.421875 -4.960938 0.648438 -5.734375 1.109375 -6.359375 C 1.578125 -6.992188 2.238281 -7.472656 3.09375 -7.796875 C 3.945312 -8.128906 4.960938 -8.296875 6.140625 -8.296875 C 7.304688 -8.296875 8.316406 -8.128906 9.171875 -7.796875 C 10.023438 -7.472656 10.679688 -6.992188 11.140625 -6.359375 C 11.609375 -5.734375 11.84375 -4.960938 11.84375 -4.046875 C 11.84375 -3.140625 11.609375 -2.367188 11.140625 -1.734375 C 10.679688 -1.097656 10.023438 -0.613281 9.171875 -0.28125 C 8.316406 0.0390625 7.304688 0.203125 6.140625 0.203125 Z M 2.53125 -4.046875 C 2.53125 -3.460938 2.679688 -2.960938 2.984375 -2.546875 C 3.285156 -2.140625 3.707031 -1.828125 4.25 -1.609375 C 4.789062 -1.390625 5.421875 -1.28125 6.140625 -1.28125 C 6.847656 -1.28125 7.472656 -1.390625 8.015625 -1.609375 C 8.554688 -1.828125 8.976562 -2.144531 9.28125 -2.5625 C 9.582031 -2.976562 9.734375 -3.472656 9.734375 -4.046875 C 9.734375 -4.628906 9.582031 -5.125 9.28125 -5.53125 C 8.976562 -5.945312 8.554688 -6.265625 8.015625 -6.484375 C 7.472656 -6.703125 6.847656 -6.8125 6.140625 -6.8125 C 5.421875 -6.8125 4.789062 -6.707031 4.25 -6.5 C 3.707031 -6.289062 3.285156 -5.976562 2.984375 -5.5625 C 2.679688 -5.15625 2.53125 -4.648438 2.53125 -4.046875 Z M 2.53125 -4.046875 "/></g></g></g></svg>